<svg width="151" height="27" viewBox="0 0 151 27" fill="none" xmlns="http://www.w3.org/2000/svg">
<path d="M79.05 6.44039C77.99 0.34039 59.63 -1.56961 38.06 2.18039C29 3.76039 20.82 6.08039 14.45 8.70039C15.43 8.72039 16.16 8.94039 16.6 9.39039C16.94 9.73039 17.12 10.2104 17.12 10.8004V11.4104H15V10.8704C15 10.4304 14.73 10.1504 14.26 10.1504C13.86 10.1504 13.62 10.3304 13.54 10.6804C13.52 10.7804 13.51 10.9504 13.55 11.1004C13.78 12.0204 16.92 12.6004 17.26 14.3104C17.31 14.5304 17.37 15.0004 17.26 15.6704C17.06 17.0504 15.86 17.5804 14.31 17.5804C12.16 17.5804 11.29 16.5604 11.29 15.1504V14.4904H13.56V15.3104C13.56 15.7704 13.9 16.0304 14.36 16.0304C14.79 16.0304 15.05 15.8604 15.14 15.4904C15.18 15.3204 15.2 15.0804 15.13 14.8904C14.71 13.8404 11.77 13.3504 11.41 11.6504C11.33 11.2704 11.32 10.9404 11.39 10.5304C11.43 10.3104 11.49 10.1204 11.58 9.94039C4.50998 13.2504 0.379973 16.8804 0.919973 20.0204C1.98997 26.1304 20.34 28.0304 41.91 24.2804C51.39 22.6304 59.92 20.1604 66.41 17.3904C66.32 17.3904 66.22 17.4104 66.13 17.4104C64.66 17.4104 63.33 16.8604 63.2 15.3504C63.17 15.0804 63.17 14.9604 63.17 14.8004V11.3304C63.17 11.1804 63.19 10.9204 63.21 10.7804C63.39 9.32039 64.54 8.72039 66.14 8.72039C67.38 8.72039 68.89 9.08039 69.06 10.7804C69.08 10.9904 69.08 11.2204 69.08 11.3004V11.6304H66.94V11.1404C66.94 11.1404 66.94 10.9504 66.91 10.8304C66.88 10.6504 66.73 10.2504 66.12 10.2504C65.51 10.2504 65.36 10.6504 65.32 10.8304C65.3 10.9304 65.29 11.0604 65.29 11.2104V14.9804C65.29 15.1104 65.29 15.2104 65.31 15.2904C65.32 15.3504 65.43 15.8704 66.13 15.8704C66.83 15.8704 66.93 15.3504 66.94 15.2904C66.96 15.1904 66.96 15.0704 66.96 14.9804V13.8104H66.12V12.5504H69.09V14.7904C69.09 14.9404 69.09 15.0504 69.06 15.3404C69.02 15.7304 68.9 16.0704 68.71 16.3604C75.59 13.0904 79.6 9.51039 79.06 6.42039L79.05 6.44039ZM23.1 17.2704L22.02 9.91039H21.98L20.87 17.2704H18.59L20.12 8.96039H23.84L25.36 17.2704H23.09H23.1ZM34.08 17.2704L34.03 10.0604H33.99L32.65 17.2704H30.51L29.18 10.0604H29.14L29.09 17.2704H26.97L27.16 8.96039H30.57L31.56 15.1304H31.61L32.61 8.96039H36.02L36.2 17.2704H34.09H34.08ZM44.07 15.6504C43.84 17.2604 42.26 17.5404 41.15 17.5404C39.3 17.5404 38.16 16.7504 38.16 15.1404V14.4804H40.4V15.3004C40.4 15.7404 40.72 16.0104 41.2 16.0104C41.63 16.0104 41.88 15.8404 41.97 15.4804C42.01 15.3204 42.03 15.0704 41.96 14.8904C41.55 13.8604 38.64 13.3504 38.28 11.6804C38.2 11.3004 38.2 10.9804 38.26 10.5704C38.51 9.05039 39.97 8.73039 41.14 8.73039C42.19 8.73039 42.96 8.96039 43.41 9.42039C43.75 9.76039 43.92 10.2304 43.92 10.8204V11.4204H41.83V10.8904C41.83 10.4404 41.55 10.1804 41.1 10.1804C40.7 10.1804 40.46 10.3604 40.38 10.7104C40.36 10.7804 40.35 10.9504 40.38 11.1304C40.61 12.0504 43.72 12.6104 44.06 14.3104C44.1 14.5304 44.17 14.9904 44.07 15.6604V15.6504ZM51.83 14.9004C51.83 15.0604 51.82 15.3704 51.81 15.4504C51.69 16.8204 50.71 17.5104 48.91 17.5104C47.11 17.5104 46.13 16.8104 46 15.4504C46 15.3704 45.97 15.0604 45.98 14.9004V8.96039H48.12V15.0904C48.12 15.2304 48.12 15.3304 48.14 15.4004C48.17 15.5304 48.3 15.9804 48.9 15.9804C49.5 15.9804 49.64 15.5404 49.67 15.4004C49.68 15.3304 49.68 15.2204 49.68 15.0904V8.96039H51.82V14.9004H51.83ZM61.06 17.1804H58.08L56.08 10.6004H56.05L56.16 17.1804H54.08V8.96039H57.19L59.04 15.2804H59.08L58.97 8.96039H61.06V17.1804Z" fill="#014DA2"/>
<path d="M103.6 4.7207V13.4507H105.75V9.9507H107.57V8.1607H105.75V4.7207H103.6Z" fill="#014DA2"/>
<path d="M95.66 21.3209V14.1709H105.75V21.3209H95.66ZM103.69 19.5709V15.9109H97.72V19.5709H103.69Z" fill="#014DA2"/>
<path d="M120.49 4.7207V13.4507H118.38V9.9507H115.64V8.1607H118.34V4.7207H120.49Z" fill="#014DA2"/>
<path d="M115.2 21.7707C112.11 21.7707 109.61 19.9607 109.61 17.7207C109.61 15.4807 112.11 13.6807 115.2 13.6807C118.29 13.6807 120.79 15.4907 120.79 17.7207C120.79 19.9507 118.29 21.7707 115.2 21.7707ZM118.68 17.7207C118.68 16.4707 117.12 15.4607 115.2 15.4607C113.28 15.4607 111.73 16.4707 111.73 17.7207C111.73 18.9707 113.28 19.9807 115.2 19.9807C117.12 19.9807 118.68 18.9607 118.68 17.7207Z" fill="#014DA2"/>
<path d="M98.54 5.04102C98.54 5.04102 98.26 9.77102 102.08 11.721L100.98 13.241C100.98 13.241 98.18 11.391 97.54 9.37102C96.91 11.391 94.1 13.241 94.1 13.241L93 11.721C96.83 9.77102 96.55 5.04102 96.55 5.04102H98.53H98.54Z" fill="#014DA2"/>
<path d="M112.02 9.37078C111.38 11.3908 108.82 13.0908 108.82 13.0908L107.72 11.5708C111.31 9.77078 111.03 5.05078 111.03 5.05078H113.01C113.01 5.05078 112.73 9.78078 116.32 11.5708L115.22 13.0908C115.22 13.0908 112.66 11.4008 112.02 9.37078Z" fill="#014DA2"/>
<path d="M148.54 8.1607V4.7207H146.39V15.4907H148.54V9.9507H150.36V8.1607H148.54ZM143.78 13.2407L144.88 11.7207C141.05 9.7707 141.34 5.0407 141.34 5.0407H139.36C139.36 5.0407 139.64 9.7707 135.81 11.7207L136.91 13.2407C136.91 13.2407 139.71 11.3907 140.35 9.3707C140.99 11.3907 143.79 13.2407 143.79 13.2407H143.78ZM140.84 14.1607H138.78V21.3107H148.54V19.5407H140.85V14.1607H140.84Z" fill="#014DA2"/>
<path d="M123.79 21.311H134.04V19.691H125.83V18.601H134.04V14.421H129.87V13.481H135.13V11.821H122.69V13.481H127.94V14.421H123.8V16.041H132.02V16.981H123.8V21.321L123.79 21.311ZM123.79 10.891H134.04V5.04102H123.79V10.891ZM132.01 9.27102H125.82V6.66102H132.01V9.27102Z" fill="#014DA2"/>
</svg>
