<svg width="186" height="26" viewBox="0 0 186 26" fill="none" xmlns="http://www.w3.org/2000/svg">
<mask id="mask0_1185_13530" style="mask-type:luminance" maskUnits="userSpaceOnUse" x="0" y="0" width="80" height="26">
<path d="M0 0H79.5263V26H0V0Z" fill="white"/>
</mask>
<g mask="url(#mask0_1185_13530)">
<path d="M78.298 6.18219C77.2324 0.0673722 58.84 -1.84771 37.2173 1.91526C28.1363 3.49917 19.9384 5.83181 13.5548 8.45725C14.5339 8.48121 15.2635 8.70203 15.7098 9.14361C16.0506 9.48919 16.2234 9.96437 16.2234 10.5547V11.1595H14.1067V10.6219C14.1067 10.1804 13.8379 9.90196 13.3628 9.90196C12.9644 9.90196 12.7196 10.0796 12.6332 10.4395C12.6188 10.5355 12.614 10.7083 12.6524 10.8619C12.878 11.7883 16.0218 12.3642 16.3626 14.0777C16.4106 14.2985 16.4682 14.7641 16.377 15.4408C16.1754 16.8231 14.9659 17.3559 13.4252 17.3559C11.2701 17.3559 10.3918 16.3336 10.3918 14.9225V14.2649H12.6668L12.6716 15.0904C12.6716 15.556 13.0076 15.8152 13.4684 15.8152C13.9051 15.8152 14.1643 15.6376 14.2507 15.2776C14.2891 15.1144 14.3083 14.8649 14.2315 14.6825C13.8139 13.6265 10.8765 13.137 10.5117 11.4283C10.4301 11.0395 10.4254 10.7179 10.4925 10.3051C10.5261 10.0796 10.5933 9.88757 10.6797 9.71478C3.59536 13.0266 -0.546782 16.6696 0.000385314 19.8134C1.07072 25.9378 19.4584 27.8481 41.0811 24.0851C50.5845 22.4292 59.1279 19.9525 65.6315 17.1735C65.5355 17.1833 65.4444 17.1879 65.3484 17.1879C63.8701 17.1879 62.5453 16.636 62.4109 15.124C62.3821 14.8505 62.3821 14.7305 62.3773 14.5769L62.3821 11.0971C62.3821 10.9483 62.4013 10.6843 62.4157 10.5499C62.5933 9.08601 63.7453 8.48605 65.3484 8.48605C66.5867 8.48605 68.1034 8.84123 68.2714 10.5547C68.2954 10.7659 68.2954 10.9963 68.2954 11.0683C68.2954 11.0732 68.2954 11.0732 68.2954 11.0732V11.3995H66.1547V10.91C66.1547 10.9001 66.1451 10.718 66.1259 10.6028C66.0923 10.43 65.9435 10.022 65.3291 10.022C64.7244 10.022 64.5708 10.43 64.5324 10.6028C64.5132 10.6988 64.5036 10.838 64.5036 10.9868V14.7641C64.5036 14.8985 64.5036 14.9993 64.518 15.0761C64.5276 15.1337 64.638 15.6569 65.3387 15.6569C66.0395 15.6569 66.1451 15.1337 66.1547 15.0761C66.1739 14.9706 66.1739 14.8505 66.1739 14.7641V13.5978H65.3291V12.3355H68.3098V14.577C68.3098 14.7305 68.3098 14.8409 68.281 15.1241C68.2426 15.5177 68.1178 15.8585 67.9258 16.1417C74.823 12.8683 78.8355 9.2828 78.298 6.18219ZM22.2326 17.0295L21.1479 9.66198H21.1095L20.0008 17.0295H17.7113L19.2472 8.70684H22.9814L24.5077 17.0295H22.2326ZM33.2288 17.0295L33.1808 9.80117H33.1424L31.7984 17.0295H29.653L28.3139 9.80117H28.2755L28.2275 17.0295H26.1012L26.2836 8.70684H29.7058L30.6993 14.8937H30.7473L31.7456 8.70684H35.1678L35.3454 17.0295H33.2288ZM43.2409 15.4168C43.0106 17.0295 41.4314 17.3127 40.3179 17.3127C38.4652 17.3127 37.3133 16.5208 37.3133 14.9081L37.3229 14.2457H39.5643V15.0664C39.5643 15.5128 39.8811 15.7816 40.3659 15.7816C40.7979 15.7816 41.0475 15.6088 41.1338 15.2584C41.1771 15.0904 41.1962 14.8457 41.1194 14.6633C40.7067 13.6313 37.7885 13.1226 37.4381 11.4475C37.3517 11.0587 37.3517 10.7419 37.4189 10.3291C37.6589 8.80763 39.1228 8.49565 40.2987 8.49565C41.3546 8.49565 42.1178 8.72124 42.5785 9.18201C42.9193 9.52278 43.0921 9.99315 43.0921 10.5787V11.1835H40.9946V10.6507C40.9946 10.1948 40.7115 9.93556 40.2603 9.93556C39.8571 9.93556 39.6123 10.1131 39.5355 10.4635C39.5211 10.5355 39.5019 10.7083 39.5451 10.8811C39.7755 11.8075 42.8905 12.369 43.2313 14.0681C43.2697 14.2841 43.3369 14.7449 43.2409 15.4168ZM51.0165 14.6633C51.0213 14.8169 51.0069 15.1288 50.9972 15.2104C50.8677 16.5784 49.8885 17.2791 48.0886 17.2791C46.2839 17.2791 45.3 16.5784 45.1752 15.2104C45.1704 15.1288 45.1512 14.8169 45.156 14.6633V8.70684H47.3015V14.8505C47.3015 14.9896 47.3063 15.0904 47.3207 15.1576C47.3495 15.2968 47.4839 15.7384 48.0886 15.7384C48.6934 15.7384 48.8278 15.2968 48.8614 15.1576C48.871 15.0904 48.8758 14.9848 48.8758 14.8505V8.70684H51.0164L51.0165 14.6633ZM60.2703 16.9431H57.2849L55.2786 10.3531H55.2498L55.3554 16.9431H53.2723V8.70684H56.3825L58.24 15.0424H58.2832L58.1776 8.70684H60.2703V16.9431Z" fill="#2347A3"/>
</g>
<path d="M97.4198 18.4982C94.7272 18.4982 94.228 16.9191 94.3432 15.1192H96.5127C96.5127 16.1127 96.5559 16.9479 97.751 16.9479C98.4806 16.9479 98.8405 16.4727 98.8405 15.7671C98.8405 13.9001 94.468 13.7849 94.468 10.6938C94.468 9.06675 95.2456 7.77563 97.895 7.77563C100.007 7.77563 101.053 8.72117 100.909 10.8954H98.7973C98.7973 10.1179 98.6677 9.32593 97.7942 9.32593C97.0886 9.32593 96.6711 9.71471 96.6711 10.4347C96.6711 12.4025 101.044 12.2298 101.044 15.4936C101.044 18.1814 99.0709 18.4982 97.4198 18.4982Z" fill="#2347A3"/>
<path d="M101.807 18.3254L104.682 7.94849H107.542L110.36 18.3254H108.075L107.499 16.0264H104.538L103.947 18.3254H101.807ZM105.992 9.94517H105.963L104.97 14.4329H107.043L105.992 9.94517Z" fill="#2347A3"/>
<path d="M111.345 18.3254V7.94849H114.839L116.461 15.0041H116.49L118.218 7.94849H121.592V18.3254H119.48V10.3195H119.456L117.455 18.3254H115.386L113.485 10.3195H113.457V18.3254H111.345Z" fill="#2347A3"/>
<path d="M126.185 18.4982C123.498 18.4982 122.994 16.9191 123.109 15.1192H125.283C125.283 16.1127 125.326 16.9479 126.517 16.9479C127.251 16.9479 127.611 16.4727 127.611 15.7671C127.611 13.9001 123.243 13.7849 123.243 10.6938C123.243 9.06675 124.016 7.77563 126.661 7.77563C128.777 7.77563 129.824 8.72117 129.68 10.8954H127.568C127.568 10.1179 127.438 9.32593 126.56 9.32593C125.859 9.32593 125.441 9.71471 125.441 10.4347C125.441 12.4025 129.809 12.2298 129.809 15.4936C129.809 18.1814 127.841 18.4982 126.185 18.4982Z" fill="#2347A3"/>
<path d="M138.382 7.94849V15.3064C138.382 16.8615 137.508 18.4982 134.864 18.4982C132.473 18.4982 131.326 17.2647 131.326 15.3064V7.94849H133.496V15.1624C133.496 16.444 134.043 16.9479 134.835 16.9479C135.78 16.9479 136.212 16.3144 136.212 15.1624V7.94849H138.382Z" fill="#2347A3"/>
<path d="M140.171 18.3254V7.94849H143.104L145.863 15.1337H145.892V7.94849H147.918V18.3254H145.057L142.225 10.7371H142.196V18.3254H140.171Z" fill="#2347A3"/>
<path d="M154.493 11.1402C154.508 10.1755 154.349 9.32593 153.197 9.32593C151.849 9.32593 151.849 11.1546 151.849 13.1657C151.849 16.4151 152.165 16.9911 153.404 16.9911C153.759 16.9911 154.148 16.9047 154.479 16.7895V14.4904H153.298V12.8921H156.648V18.1526C156.063 18.2726 154.58 18.4982 153.716 18.4982C150.068 18.4982 149.65 16.9911 149.65 13.0505C149.65 10.4347 149.78 7.77563 153.332 7.77563C155.458 7.77563 156.778 8.96596 156.648 11.1402H154.493Z" fill="#2347A3"/>
<path d="M161.63 13.1369C161.63 10.3915 161.63 7.77563 165.21 7.77563C167.423 7.77563 168.316 8.99475 168.229 11.2218H166.103C166.103 9.8443 165.854 9.32593 165.21 9.32593C163.987 9.32593 163.828 10.4779 163.828 13.1369C163.828 15.7959 163.987 16.9479 165.21 16.9479C166.214 16.9479 166.175 15.6519 166.204 14.8312H168.345C168.345 17.6054 167.236 18.4982 165.21 18.4982C161.63 18.4982 161.63 15.8535 161.63 13.1369Z" fill="#2347A3"/>
<path d="M176.246 17.5046C175.425 18.311 174.461 18.4982 173.357 18.4982C170.966 18.4982 169.646 17.375 169.646 15.3496C169.646 13.9672 170.611 13.0937 171.686 12.3881C171.139 11.6826 170.539 10.8666 170.539 9.7867C170.539 8.63477 171.902 7.77563 173.673 7.77563C174.662 7.77563 176.304 8.2316 176.304 9.80109C176.304 11.1546 175.368 11.841 174.533 12.5897L176.16 14.716C176.347 14.0392 176.39 13.6553 176.39 12.6473H178.142C178.142 13.7273 178.142 15.076 177.436 16.1991L179.006 18.3254H176.88L176.246 17.5046ZM172.867 13.6697C172.349 14.0728 171.821 14.6584 171.821 15.3496C171.821 16.3431 172.406 16.9479 173.4 16.9479C174.019 16.9479 174.605 16.7463 174.979 16.2567L172.867 13.6697ZM174.317 9.9595C174.317 9.41233 173.985 9.06675 173.429 9.06675C172.968 9.06675 172.522 9.39793 172.522 9.8875C172.522 10.4779 172.91 10.9482 173.285 11.3802C173.789 11.0634 174.317 10.6075 174.317 9.9595Z" fill="#2347A3"/>
<path d="M185.504 7.94849V9.67158H183.089V18.3254H180.92V9.67158H178.501V7.94849H185.504Z" fill="#2347A3"/>
</svg>
