<svg width="47" height="45" viewBox="0 0 47 45" fill="none" xmlns="http://www.w3.org/2000/svg">
<path d="M42.9 1.79324C40.68 2.47324 38.06 3.09324 35.24 3.69324V11.6332H44.52C45.09 8.91324 45.5 6.44324 45.78 4.42324C46 2.84324 46.15 1.53324 46.25 0.573242C45.29 1.00324 44.16 1.40324 42.91 1.78324L42.9 1.79324Z" fill="#70B343"/>
<path d="M8.60995 13.543C7.59995 14.303 6.64995 15.133 5.74995 16.033C3.64995 18.133 2.06995 20.443 0.949951 22.823V44.603H26.37C27.95 43.643 29.47 42.473 30.88 41.083C32.03 39.953 33.09 38.713 34.09 37.393H8.60995V13.553V13.543Z" fill="#219346"/>
<path d="M20.04 7.65332C17.39 8.58332 14.8 9.70332 12.38 11.0733V33.6133H36.59C37.94 31.3233 39.11 28.8833 40.12 26.4033H20.04V7.66332V7.65332Z" fill="#70B343"/>
<path d="M31.4699 4.51367C28.9799 5.07367 26.3899 5.69367 23.8099 6.44367V22.6237H41.5299C42.3699 20.1737 43.0699 17.7437 43.6499 15.4137H31.4699V4.52367V4.51367Z" fill="#70B343"/>
</svg>
