<svg width="52" height="52" viewBox="0 0 52 52" fill="none" xmlns="http://www.w3.org/2000/svg">
<path d="M50.15 26.2237C50.15 39.5937 39.31 50.4337 25.94 50.4337C12.57 50.4337 1.72998 39.5937 1.72998 26.2237C1.72998 12.8537 12.57 2.01367 25.94 2.01367C39.31 2.01367 50.15 12.8537 50.15 26.2237Z" fill="#005AAA"/>
<path d="M50.8599 26.2235C50.8599 39.9835 39.7099 51.1335 25.9499 51.1335C12.1899 51.1335 1.03992 39.9835 1.03992 26.2235C1.03992 12.4635 12.1899 1.31348 25.9499 1.31348C39.7099 1.31348 50.8599 12.4635 50.8599 26.2235Z" stroke="#005AAA"/>
<path d="M43.5099 26.2233C43.5099 35.9233 35.6399 43.7933 25.9399 43.7933C16.2399 43.7933 8.36987 35.9233 8.36987 26.2233C8.36987 16.5233 16.2399 8.65332 25.9399 8.65332C35.6399 8.65332 43.5099 16.5233 43.5099 26.2233Z" fill="white"/>
<path d="M18.2799 45.8532L17.8399 46.9332L19.3999 47.5632L19.2199 48.0032L15.6199 46.5432L15.7999 46.1032L17.3599 46.7332L17.7999 45.6532L18.2899 45.8532H18.2799ZM18.8599 44.5032C18.7599 44.8332 18.8099 45.1132 19.0099 45.3532C19.1599 45.5232 19.4399 45.7132 19.8499 45.9232L19.6599 46.3932C19.3199 46.2332 19.0399 46.0532 18.8099 45.8532C18.5299 45.6032 18.3699 45.3432 18.3099 45.0632C18.0699 45.2232 17.7599 45.2932 17.3899 45.2832C17.0899 45.2732 16.7599 45.2032 16.4099 45.0832L16.5999 44.6132C17.0399 44.7532 17.3799 44.8032 17.6099 44.7832C17.9199 44.7532 18.1499 44.5832 18.2999 44.2832L17.0199 43.7632L17.1999 43.3232L20.3399 44.5932L20.1599 45.0332L18.8599 44.5032Z" fill="white"/>
<path d="M24.6699 46.3332H27.1999V45.2532H27.7399V45.8232H28.2799V46.2932H27.7399V46.9632H27.1999V46.7932H24.4499C24.3399 46.7932 24.2599 46.7632 24.2099 46.7132C24.1599 46.6632 24.1299 46.5632 24.1299 46.4332V45.2432H26.3499V45.7132H24.6699V46.3232V46.3332ZM27.1999 47.6432H24.2999V47.1732H27.7399V48.3632H24.8399V48.6432H27.7399V49.1132H24.6299C24.5199 49.1132 24.4399 49.0832 24.3899 49.0332C24.3299 48.9732 24.3099 48.8932 24.3099 48.7632V47.9032H27.2099V47.6232L27.1999 47.6432Z" fill="white"/>
<path d="M33.3198 45.4634C33.1798 45.4334 33.0498 45.3734 32.9298 45.2934C32.8798 45.5234 32.7598 45.7334 32.5698 45.9134C32.4198 46.0634 32.2498 46.1834 32.0598 46.2534L31.8698 45.7834C32.1398 45.6434 32.3098 45.4734 32.3898 45.3034C32.4598 45.1534 32.4698 44.9834 32.4098 44.8034L31.6198 45.1234L31.4398 44.6834L32.2398 44.3634L32.0998 44.0234L32.6298 43.8134L32.7698 44.1534L33.5598 43.8334L33.7398 44.2734L32.9498 44.5934C33.0398 44.7634 33.1698 44.8834 33.3198 44.9334C33.5098 45.0034 33.7398 44.9934 34.0198 44.9134L34.1598 45.2634C34.4598 45.1834 34.7598 45.1934 35.0398 45.3134C35.3398 45.4334 35.5498 45.6434 35.6698 45.9434C35.7998 46.2734 35.7898 46.5934 35.6198 46.9034C35.4598 47.1934 35.2298 47.4134 34.9098 47.5334C34.5898 47.6634 34.2798 47.6734 33.9698 47.5634C33.6398 47.4534 33.3998 47.2334 33.2698 46.9034C33.1598 46.6334 33.1498 46.3734 33.2398 46.1034C33.3198 45.8634 33.4798 45.6534 33.6998 45.4734C33.5598 45.4734 33.4298 45.4734 33.3098 45.4434L33.3198 45.4634ZM33.8298 46.1634C33.7398 46.3434 33.7298 46.5334 33.8098 46.7134C33.8798 46.8934 34.0098 47.0134 34.2098 47.0834C34.3998 47.1534 34.5798 47.1534 34.7498 47.0834C34.9298 47.0134 35.0598 46.8834 35.1498 46.7034C35.2398 46.5234 35.2498 46.3334 35.1798 46.1534C35.1098 45.9734 34.9698 45.8434 34.7798 45.7734C34.5998 45.7134 34.4098 45.7134 34.2398 45.7834C34.0598 45.8534 33.9298 45.9734 33.8498 46.1534L33.8298 46.1634ZM34.4898 43.9934L34.2498 43.3934L34.7498 43.1934L35.4398 44.9034L34.9398 45.1034L34.6698 44.4234L34.0798 44.6634L33.8998 44.2234L34.4898 43.9834V43.9934Z" fill="white"/>
<path d="M9.31992 41.1838L8.28992 39.9638L8.68992 39.7238L9.30992 40.4538L9.80992 40.0338L9.28992 39.4238L9.63992 39.1238L10.1499 39.7338L10.7199 39.2538L10.0399 38.4438L10.4099 38.1338L11.4599 39.3838L9.31992 41.1838Z" fill="white"/>
<path d="M8.65993 39.0635L8.21993 38.6935C8.30993 38.4835 8.39993 38.3135 8.47993 38.1835C8.49993 38.1535 8.51994 38.1135 8.55994 38.0535C8.47994 38.0735 8.33993 38.0935 8.11993 38.1335C8.03993 38.1435 7.96994 38.1535 7.91994 38.1535L7.55994 37.6235L8.68993 37.5935L9.18993 36.3535L9.57993 36.9235L9.38994 37.3135C9.33994 37.4035 9.28993 37.5035 9.22993 37.6235C9.31993 37.5935 9.46994 37.5835 9.67994 37.5735L10.0099 37.5535L10.3999 38.1235H9.05994L8.66994 39.0735L8.65993 39.0635Z" fill="white"/>
<path d="M6.78 35.8637L7.21999 35.9237C7.17999 36.0737 7.19 36.1937 7.24 36.2837C7.35 36.4837 7.61 36.4837 8.02 36.2537C8.24 36.1337 8.38 36.0137 8.42 35.9137C8.46 35.8237 8.45 35.7337 8.41 35.6437C8.35 35.5437 8.23999 35.4637 8.07999 35.4037H8.03999L8.2 35.0137C8.29 35.0437 8.37 35.0737 8.42 35.1037C8.56 35.1937 8.68 35.3137 8.77 35.4837C8.91 35.7337 8.93 35.9737 8.85 36.2037C8.76 36.4337 8.57 36.6237 8.28 36.7837C7.89 36.9937 7.55 37.0237 7.24 36.8737C7.08 36.7937 6.95 36.6637 6.86 36.5037C6.79 36.3737 6.75 36.2437 6.75 36.1137C6.75 36.0437 6.75 35.9637 6.78 35.8637Z" fill="white"/>
<path d="M7.22998 33.6032L7.43998 33.2832C7.70998 33.4232 7.89998 33.6232 8.00998 33.8832C8.12998 34.1532 8.12998 34.4132 8.02998 34.6532C7.91998 34.8932 7.71998 35.0732 7.41998 35.2032C7.09998 35.3432 6.80998 35.3732 6.56998 35.2932C6.32998 35.2132 6.15998 35.0532 6.04998 34.8032C5.94998 34.5732 5.93998 34.3632 6.00998 34.1732C6.10998 33.9332 6.34998 33.7232 6.72998 33.5632L6.83998 33.5132L7.30998 34.5932H7.31998C7.62998 34.4532 7.71998 34.2532 7.60998 33.9932C7.53998 33.8232 7.40998 33.6932 7.21998 33.6032H7.22998ZM6.95998 34.7632L6.70998 34.1932H6.68998C6.55998 34.2632 6.47998 34.3232 6.42998 34.3832C6.37998 34.4632 6.36998 34.5532 6.40998 34.6432C6.48998 34.8332 6.66998 34.8732 6.94998 34.7532L6.95998 34.7632Z" fill="white"/>
<path d="M4.55994 33.3235C4.64994 33.2735 4.81994 33.2035 5.05994 33.1235L6.57993 32.6035C6.82993 32.5235 6.96994 32.4635 6.99994 32.4235C7.02994 32.3935 7.03994 32.3435 7.01994 32.3035C7.01994 32.2835 6.99994 32.2635 6.98994 32.2535L7.25993 32.0635C7.32993 32.1435 7.37994 32.2435 7.41994 32.3535C7.49994 32.5935 7.45994 32.7735 7.30994 32.8935C7.23994 32.9535 7.09994 33.0135 6.88994 33.0835L5.43993 33.5735C5.20993 33.6535 5.01994 33.7235 4.85994 33.8035L4.55994 33.3235Z" fill="white"/>
<path d="M4.16992 32.0236C4.26992 31.9736 4.43992 31.9236 4.67992 31.8536L6.22992 31.4336C6.47992 31.3636 6.62992 31.3136 6.65992 31.2836C6.68992 31.2536 6.69992 31.2136 6.68992 31.1636C6.68992 31.1436 6.67992 31.1236 6.66992 31.1036L6.94992 30.9336C7.00992 31.0136 7.05992 31.1136 7.08992 31.2336C7.15992 31.4736 7.10992 31.6536 6.94992 31.7736C6.87992 31.8236 6.72992 31.8836 6.51992 31.9436L5.03992 32.3436C4.80992 32.4036 4.60992 32.4736 4.44992 32.5336L4.17992 32.0336L4.16992 32.0236Z" fill="white"/>
<path d="M6.06996 29.303L6.34996 29.043C6.57996 29.233 6.71996 29.473 6.76996 29.753C6.81996 30.043 6.76995 30.293 6.61995 30.503C6.45995 30.713 6.21996 30.843 5.90996 30.903C5.55996 30.973 5.27996 30.933 5.05996 30.803C4.83996 30.673 4.70996 30.473 4.65996 30.213C4.60996 29.963 4.64995 29.753 4.75995 29.583C4.90995 29.373 5.18996 29.223 5.59996 29.143L5.71995 29.123L5.93995 30.283H5.95996C6.28996 30.223 6.41995 30.043 6.36995 29.763C6.33995 29.583 6.23996 29.423 6.06996 29.293V29.303ZM5.54995 30.373L5.43995 29.763H5.41996C5.27996 29.793 5.17996 29.833 5.12996 29.883C5.05996 29.943 5.02995 30.033 5.04995 30.133C5.08995 30.343 5.25995 30.423 5.54995 30.363V30.373Z" fill="white"/>
<path d="M4.55997 28.8637L4.37997 28.3937C4.45997 28.3337 4.54997 28.3037 4.62997 28.2937C4.58997 28.2437 4.52997 28.1737 4.45997 28.0737C4.38997 27.9737 4.34997 27.8437 4.33997 27.7137C4.33997 27.6037 4.33996 27.4937 4.39996 27.3937C4.44996 27.2937 4.50997 27.2337 4.59997 27.1937C4.66997 27.1637 4.76997 27.1437 4.88997 27.1337L6.38997 27.0137L6.42997 27.5437L5.08997 27.6537C4.98997 27.6537 4.91997 27.6737 4.87997 27.6937C4.81997 27.7237 4.78996 27.7737 4.79996 27.8537C4.79996 27.9637 4.87996 28.0837 5.00996 28.2137L6.45997 28.0937L6.49997 28.6337L5.00996 28.7537C4.82996 28.7637 4.66997 28.8037 4.52997 28.8637H4.55997Z" fill="white"/>
<path d="M4.32995 25.5032L4.69995 25.6432V25.9932H5.72995C5.85995 25.9932 5.94995 25.9832 5.98995 25.9432C6.02995 25.9132 6.05995 25.8532 6.05995 25.7532C6.05995 25.7132 6.04995 25.6532 6.01995 25.5632L6.33995 25.4932C6.39995 25.6432 6.42995 25.7932 6.42995 25.9332C6.42995 26.0732 6.39995 26.1932 6.34995 26.2932C6.28995 26.3932 6.21995 26.4632 6.12995 26.4932C6.05995 26.5132 5.95995 26.5332 5.80995 26.5232H4.68995V26.7232H4.31995V26.5132C4.09995 26.5132 3.93995 26.5132 3.82995 26.4932L3.69995 25.9432C3.89995 25.9632 4.10995 25.9732 4.31995 25.9832V25.5032H4.32995Z" fill="white"/>
<path d="M3.81995 22.9129L3.95995 22.1929C4.02995 21.8429 4.11994 21.6029 4.23994 21.4529C4.43994 21.2129 4.69995 21.1329 5.02995 21.1929C5.40995 21.2629 5.64994 21.4729 5.73994 21.8129C5.77994 21.9529 5.76994 22.1429 5.72994 22.3829L5.66994 22.6829L6.67995 22.8729L6.57994 23.4229L3.82994 22.9129H3.81995ZM4.37994 22.4429L5.21994 22.6029L5.26994 22.3129C5.28994 22.2129 5.29994 22.1429 5.28994 22.1029C5.28994 22.0329 5.24994 21.9729 5.18994 21.9229C5.12994 21.8629 5.03994 21.8229 4.91994 21.8029C4.78994 21.7829 4.67995 21.8029 4.59995 21.8429C4.51995 21.8929 4.45994 21.9829 4.43994 22.0929L4.36994 22.4429H4.37994Z" fill="white"/>
<path d="M5.08997 20.8032V20.3032C5.18997 20.2832 5.29997 20.2832 5.40997 20.3032C5.31997 20.1832 5.25997 20.0632 5.23997 19.9332C5.23997 19.8832 5.23996 19.8232 5.25996 19.7532C5.27996 19.6932 5.30997 19.6332 5.35997 19.5732L5.77997 19.8432C5.77997 19.8432 5.70997 19.9332 5.69997 19.9832C5.66997 20.1032 5.69997 20.2232 5.77997 20.3532L7.17997 20.7532L7.02997 21.2732L5.69997 20.8932C5.43997 20.8232 5.23997 20.7932 5.09997 20.8032H5.08997Z" fill="white"/>
<path d="M5.7099 18.4931C5.8099 18.2231 5.9899 18.0431 6.2499 17.9531C6.4799 17.8731 6.7399 17.8831 7.0399 18.0031C7.3599 18.1231 7.5699 18.3031 7.6899 18.5231C7.8099 18.7531 7.8199 18.9931 7.7199 19.2631C7.6199 19.5231 7.4499 19.7031 7.2099 19.7831C6.9699 19.8731 6.6999 19.8631 6.3899 19.7431C6.0899 19.6231 5.8699 19.4531 5.7499 19.2231C5.6299 18.9931 5.6099 18.7531 5.7099 18.4931ZM6.0899 18.6331C6.0399 18.7631 6.0699 18.8731 6.1899 18.9631C6.2799 19.0331 6.4199 19.1131 6.5999 19.1831C6.8199 19.2731 6.9899 19.3131 7.1099 19.3031C7.2299 19.3031 7.3099 19.2331 7.3599 19.1031C7.4399 18.8931 7.2599 18.7031 6.8299 18.5431C6.5699 18.4431 6.3899 18.4131 6.2799 18.4431C6.1899 18.4731 6.1299 18.5331 6.0899 18.6231V18.6331Z" fill="white"/>
<path d="M6.31999 15.293L8.22999 16.273C8.57999 16.453 8.80999 16.543 8.92999 16.553L8.70999 16.983C8.70999 16.983 8.63999 16.983 8.58999 16.953C8.62999 17.123 8.60999 17.293 8.52999 17.453C8.40999 17.683 8.22999 17.823 7.98999 17.873C7.74999 17.923 7.48999 17.873 7.19999 17.733C6.90999 17.583 6.71999 17.393 6.60999 17.153C6.49999 16.913 6.50999 16.683 6.62999 16.453C6.69999 16.323 6.78999 16.233 6.89999 16.183C6.83999 16.163 6.74999 16.123 6.61999 16.063L5.98999 15.743L6.30999 15.303L6.31999 15.293ZM7.30999 16.383C7.18999 16.433 7.09999 16.503 7.05999 16.583C6.94999 16.793 7.09999 16.993 7.48999 17.193C7.68999 17.293 7.82999 17.343 7.93999 17.333C8.03999 17.333 8.11999 17.253 8.18999 17.133C8.23999 17.043 8.23999 16.943 8.18999 16.833L7.30999 16.383Z" fill="white"/>
<path d="M7.44995 15.0936L7.65995 14.5936L8.76995 15.3236C8.90995 15.4136 9.00995 15.4636 9.07995 15.4736C9.14995 15.4736 9.20995 15.4436 9.25995 15.3636C9.29995 15.3036 9.31995 15.2436 9.31995 15.1636C9.31995 15.0836 9.30995 15.0236 9.27995 14.9736L8.06995 14.1736L8.25995 13.6836L9.57995 14.5536C9.70995 14.6336 9.82995 14.6736 9.95995 14.6536L9.92995 15.0936C9.84995 15.1236 9.75995 15.1336 9.66995 15.1136C9.70995 15.3036 9.66995 15.4936 9.53995 15.6736C9.45995 15.7936 9.35995 15.8836 9.24995 15.9436C9.13995 16.0036 9.02995 16.0236 8.92995 15.9936C8.83995 15.9736 8.71995 15.9036 8.55995 15.8036L7.44995 15.0736V15.0936Z" fill="white"/>
<path d="M9.73 12.1731L9.84 12.6031C9.68 12.6231 9.57 12.6731 9.51 12.7531C9.36 12.9331 9.47 13.1731 9.83 13.4631C10.03 13.6231 10.19 13.7031 10.3 13.7031C10.4 13.7031 10.48 13.6631 10.54 13.5831C10.61 13.4931 10.65 13.3631 10.64 13.1931V13.1531L11.04 13.1631C11.04 13.2531 11.04 13.3331 11.04 13.4031C11.02 13.5731 10.94 13.7231 10.82 13.8731C10.64 14.0931 10.43 14.2131 10.19 14.2131C9.95 14.2131 9.69 14.1131 9.43 13.9031C9.08 13.6231 8.93 13.3131 8.95 12.9731C8.97 12.7931 9.03 12.6231 9.15 12.4831C9.24 12.3631 9.35 12.2831 9.47 12.2331C9.53 12.2031 9.61 12.1831 9.71 12.1631L9.73 12.1731Z" fill="white"/>
<path d="M10.5999 10.9936L10.7799 11.3436L10.5399 11.5936L11.2899 12.3036C11.3899 12.3936 11.4599 12.4436 11.5199 12.4536C11.5699 12.4536 11.6299 12.4336 11.6999 12.3636C11.7299 12.3336 11.7599 12.2836 11.7999 12.1936L12.0799 12.3636C12.0199 12.5136 11.9399 12.6436 11.8499 12.7436C11.7599 12.8436 11.6499 12.9136 11.5499 12.9436C11.4399 12.9836 11.3399 12.9736 11.2499 12.9436C11.1799 12.9136 11.0999 12.8536 10.9899 12.7536L10.1799 11.9936L10.0399 12.1436L9.76994 11.8836L9.90994 11.7336C9.74994 11.5836 9.62995 11.4636 9.56995 11.3836L9.84995 10.8936C9.97995 11.0436 10.1299 11.1936 10.2799 11.3436L10.6099 10.9936H10.5999Z" fill="white"/>
<path d="M42.04 10.7034L43.11 11.8834L42.72 12.1334L42.08 11.4234L41.6 11.8534L42.14 12.4534L41.8 12.7634L41.27 12.1734L40.71 12.6734L41.42 13.4634L41.06 13.7834L39.97 12.5734L42.05 10.6934L42.04 10.7034Z" fill="white"/>
<path d="M42.78 12.793L43.24 13.153C43.15 13.363 43.07 13.543 43 13.673C42.98 13.703 42.96 13.753 42.93 13.803C43.01 13.783 43.15 13.753 43.36 13.713C43.44 13.703 43.51 13.693 43.56 13.683L43.94 14.193L42.81 14.263L42.35 15.523L41.95 14.973L42.13 14.573C42.18 14.483 42.23 14.373 42.28 14.263C42.19 14.293 42.04 14.313 41.84 14.333L41.51 14.363L41.1 13.803L42.44 13.763L42.8 12.793H42.78Z" fill="white"/>
<path d="M44.77 15.9336L44.33 15.8936C44.36 15.7436 44.35 15.6136 44.3 15.5336C44.18 15.3336 43.92 15.3536 43.52 15.5836C43.3 15.7136 43.17 15.8336 43.13 15.9436C43.09 16.0336 43.1 16.1236 43.15 16.2136C43.21 16.3136 43.32 16.3936 43.49 16.4436H43.53L43.38 16.8336C43.29 16.8136 43.21 16.7836 43.15 16.7436C43 16.6636 42.88 16.5436 42.78 16.3736C42.63 16.1336 42.6 15.8936 42.68 15.6636C42.76 15.4336 42.94 15.2336 43.23 15.0636C43.61 14.8336 43.96 14.7936 44.27 14.9336C44.43 15.0136 44.57 15.1336 44.66 15.2936C44.74 15.4236 44.78 15.5536 44.78 15.6836C44.78 15.7536 44.78 15.8336 44.76 15.9336H44.77Z" fill="white"/>
<path d="M44.3899 18.2034L44.1899 18.5334C43.9199 18.4034 43.7199 18.2134 43.5999 17.9534C43.4699 17.6834 43.4599 17.4334 43.5599 17.1834C43.6599 16.9434 43.8499 16.7534 44.1499 16.6134C44.4699 16.4634 44.7499 16.4234 44.9899 16.4934C45.2299 16.5634 45.4099 16.7234 45.5299 16.9634C45.6399 17.1934 45.6599 17.4034 45.5899 17.5934C45.4999 17.8434 45.2699 18.0534 44.8899 18.2234L44.7799 18.2734L44.2699 17.2034H44.2599C43.9599 17.3534 43.8699 17.5534 43.9899 17.8134C44.0699 17.9834 44.1999 18.1034 44.3999 18.1934L44.3899 18.2034ZM44.6199 17.0434L44.8899 17.6034H44.9099C45.0399 17.5334 45.1199 17.4734 45.1599 17.4034C45.2099 17.3234 45.2099 17.2334 45.1599 17.1334C45.0699 16.9434 44.8899 16.9034 44.6199 17.0334V17.0434Z" fill="white"/>
<path d="M47.08 18.3938C46.99 18.4438 46.82 18.5238 46.59 18.6138L45.08 19.1838C44.83 19.2738 44.7 19.3438 44.67 19.3738C44.64 19.4138 44.63 19.4538 44.65 19.5038C44.65 19.5238 44.67 19.5438 44.68 19.5538L44.42 19.7538C44.35 19.6738 44.3 19.5838 44.25 19.4738C44.16 19.2438 44.19 19.0538 44.34 18.9238C44.41 18.8638 44.55 18.7938 44.76 18.7138L46.2 18.1738C46.43 18.0838 46.62 18.0038 46.77 17.9238L47.08 18.3938Z" fill="white"/>
<path d="M47.5099 19.6831C47.4199 19.7331 47.2499 19.7931 47.0099 19.8731L45.4699 20.3531C45.2199 20.4331 45.0799 20.4831 45.0399 20.5231C45.0099 20.5531 44.9999 20.6031 45.0199 20.6431C45.0199 20.6631 45.0299 20.6831 45.0499 20.7031L44.7799 20.8831C44.7199 20.8031 44.6699 20.7031 44.6299 20.5931C44.5599 20.3531 44.5999 20.1731 44.7599 20.0531C44.8299 19.9931 44.9799 19.9331 45.1899 19.8731L46.6599 19.4131C46.8899 19.3431 47.0899 19.2731 47.2399 19.2031L47.5199 19.6931L47.5099 19.6831Z" fill="white"/>
<path d="M45.7 22.4635L45.43 22.7335C45.19 22.5435 45.04 22.3135 44.98 22.0335C44.92 21.7435 44.96 21.4935 45.11 21.2735C45.26 21.0535 45.49 20.9135 45.81 20.8435C46.16 20.7635 46.44 20.7935 46.66 20.9135C46.88 21.0335 47.02 21.2335 47.08 21.4935C47.14 21.7435 47.11 21.9535 47 22.1235C46.86 22.3435 46.58 22.4935 46.18 22.5835L46.06 22.6135L45.8 21.4535H45.78C45.45 21.5335 45.32 21.7035 45.39 21.9835C45.43 22.1635 45.53 22.3135 45.7 22.4435V22.4635ZM46.18 21.3835L46.32 21.9935H46.34C46.48 21.9535 46.57 21.9135 46.63 21.8535C46.7 21.7835 46.72 21.7035 46.7 21.5935C46.65 21.3835 46.48 21.3135 46.19 21.3735L46.18 21.3835Z" fill="white"/>
<path d="M47.22 22.8633L47.41 23.3233C47.33 23.3833 47.25 23.4233 47.17 23.4333C47.21 23.4733 47.27 23.5533 47.35 23.6533C47.42 23.7533 47.46 23.8733 47.48 24.0133C47.49 24.1233 47.48 24.2333 47.43 24.3333C47.39 24.4333 47.32 24.5033 47.24 24.5433C47.17 24.5833 47.08 24.6033 46.95 24.6133L45.45 24.7833L45.39 24.2533L46.72 24.1033C46.82 24.0933 46.89 24.0733 46.93 24.0533C46.99 24.0233 47.01 23.9633 47 23.8833C46.99 23.7733 46.91 23.6533 46.77 23.5333L45.32 23.7033L45.26 23.1633L46.74 22.9933C46.92 22.9733 47.08 22.9333 47.21 22.8633H47.22Z" fill="white"/>
<path d="M47.5599 26.1931L47.1799 26.0631V25.7131L46.1299 25.7431C45.9999 25.7431 45.9099 25.7631 45.8699 25.8031C45.8299 25.8331 45.8099 25.9031 45.8099 25.9931C45.8099 26.0331 45.8299 26.0931 45.8599 26.1831L45.5399 26.2631C45.4699 26.1131 45.4399 25.9731 45.4399 25.8231C45.4399 25.6831 45.4599 25.5631 45.5099 25.4631C45.5599 25.3631 45.6299 25.2931 45.7199 25.2531C45.7899 25.2231 45.8899 25.2131 46.0399 25.2031L47.1599 25.1731V24.9631L47.5299 24.9531V25.1631C47.7599 25.1631 47.9199 25.1631 48.0199 25.1631L48.1699 25.7031C47.9699 25.6831 47.7599 25.6831 47.5499 25.6931V26.1731L47.5599 26.1931Z" fill="white"/>
<path d="M48.1599 28.7933L48.0499 29.5233C47.9999 29.8733 47.9099 30.1233 47.7999 30.2733C47.6099 30.5133 47.3499 30.6133 47.0199 30.5633C46.6399 30.5033 46.3899 30.3033 46.2899 29.9633C46.2499 29.8233 46.2499 29.6333 46.2899 29.3933L46.3399 29.0833L45.3199 28.9233L45.3999 28.3633L48.1699 28.7833L48.1599 28.7933ZM47.6199 29.2833L46.7799 29.1533L46.7399 29.4433C46.7199 29.5433 46.7199 29.6133 46.7199 29.6533C46.7199 29.7233 46.7599 29.7833 46.8199 29.8333C46.8799 29.8833 46.9699 29.9233 47.0899 29.9433C47.2199 29.9633 47.3299 29.9433 47.4099 29.8933C47.4899 29.8333 47.5399 29.7533 47.5599 29.6333L47.6099 29.2833H47.6199Z" fill="white"/>
<path d="M46.96 30.943V31.443C46.87 31.473 46.77 31.473 46.66 31.453C46.76 31.573 46.82 31.693 46.84 31.813C46.84 31.863 46.84 31.923 46.83 31.993C46.81 32.053 46.78 32.113 46.74 32.173L46.31 31.913C46.31 31.913 46.37 31.823 46.39 31.773C46.42 31.653 46.39 31.533 46.3 31.413L44.88 31.063L45.01 30.543L46.35 30.873C46.61 30.933 46.81 30.963 46.96 30.943Z" fill="white"/>
<path d="M46.42 33.2838C46.32 33.5638 46.15 33.7438 45.9 33.8438C45.67 33.9338 45.41 33.9238 45.11 33.8238C44.79 33.7138 44.57 33.5438 44.44 33.3238C44.31 33.1038 44.3 32.8538 44.39 32.5838C44.48 32.3238 44.65 32.1438 44.88 32.0438C45.12 31.9438 45.39 31.9538 45.7 32.0538C46.01 32.1638 46.23 32.3238 46.36 32.5538C46.49 32.7738 46.51 33.0238 46.42 33.2838ZM46.04 33.1538C46.08 33.0238 46.04 32.9138 45.93 32.8238C45.84 32.7538 45.7 32.6838 45.51 32.6238C45.28 32.5438 45.11 32.5138 44.99 32.5238C44.87 32.5238 44.79 32.6038 44.75 32.7238C44.68 32.9338 44.86 33.1138 45.3 33.2638C45.56 33.3538 45.74 33.3738 45.86 33.3438C45.95 33.3138 46.01 33.2538 46.04 33.1538Z" fill="white"/>
<path d="M45.92 36.5033L43.98 35.5933C43.63 35.4233 43.39 35.3433 43.26 35.3433L43.47 34.9033C43.47 34.9033 43.54 34.9033 43.59 34.9233C43.54 34.7533 43.55 34.5833 43.63 34.4133C43.74 34.1733 43.92 34.0333 44.15 33.9733C44.39 33.9133 44.65 33.9533 44.94 34.0933C45.23 34.2333 45.43 34.4133 45.55 34.6533C45.66 34.8833 45.66 35.1233 45.55 35.3633C45.49 35.4933 45.4 35.5933 45.29 35.6433C45.35 35.6633 45.44 35.6933 45.58 35.7633L46.22 36.0633L45.91 36.5133L45.92 36.5033ZM44.89 35.4333C45.01 35.3833 45.09 35.3133 45.14 35.2233C45.24 35.0133 45.09 34.8133 44.69 34.6233C44.49 34.5333 44.34 34.4933 44.24 34.5033C44.14 34.5133 44.06 34.5833 44 34.7133C43.96 34.8033 43.96 34.9033 44 35.0133L44.89 35.4333Z" fill="white"/>
<path d="M44.7899 36.7233L44.5999 37.2333L43.4699 36.5433C43.3299 36.4533 43.2199 36.4133 43.1499 36.4033C43.0799 36.4033 43.0199 36.4333 42.9699 36.5133C42.9399 36.5733 42.9199 36.6333 42.9199 36.7133C42.9199 36.7933 42.9399 36.8533 42.9699 36.8933L44.2099 37.6533L44.0299 38.1533L42.6799 37.3333C42.5499 37.2533 42.4199 37.2233 42.2899 37.2433V36.8033C42.3899 36.7633 42.4699 36.7533 42.5599 36.7733C42.5199 36.5833 42.5599 36.3933 42.6699 36.2033C42.7499 36.0833 42.8399 35.9833 42.9499 35.9233C43.0599 35.8633 43.1699 35.8333 43.2699 35.8633C43.3599 35.8833 43.4799 35.9433 43.6399 36.0433L44.7699 36.7333L44.7899 36.7233Z" fill="white"/>
<path d="M42.61 39.7231L42.48 39.3031C42.64 39.2731 42.74 39.2231 42.81 39.1431C42.95 38.9531 42.84 38.7231 42.47 38.4431C42.27 38.2931 42.11 38.2131 41.99 38.2131C41.89 38.2131 41.81 38.2531 41.75 38.3331C41.68 38.4231 41.65 38.5631 41.66 38.7331V38.7731H41.26C41.25 38.6831 41.24 38.6031 41.26 38.5331C41.28 38.3631 41.35 38.2031 41.46 38.0531C41.63 37.8231 41.84 37.7031 42.08 37.6931C42.32 37.6831 42.58 37.7731 42.85 37.9731C43.21 38.2431 43.38 38.5431 43.36 38.8831C43.36 39.0631 43.29 39.2331 43.17 39.3831C43.08 39.5031 42.97 39.5931 42.86 39.6431C42.8 39.6731 42.72 39.6931 42.62 39.7131L42.61 39.7231Z" fill="white"/>
<path d="M41.78 40.9334L41.59 40.5834L41.82 40.3234L41.04 39.6434C40.94 39.5534 40.86 39.5134 40.81 39.5034C40.76 39.5034 40.7 39.5334 40.64 39.6034C40.62 39.6334 40.58 39.6934 40.54 39.7734L40.26 39.6134C40.31 39.4634 40.39 39.3334 40.48 39.2234C40.57 39.1234 40.67 39.0534 40.78 39.0134C40.89 38.9734 40.99 38.9734 41.08 39.0134C41.15 39.0434 41.23 39.1034 41.34 39.1934L42.18 39.9334L42.32 39.7834L42.6 40.0334L42.46 40.1834C42.63 40.3334 42.74 40.4434 42.81 40.5234L42.55 41.0234C42.41 40.8734 42.26 40.7334 42.1 40.5834L41.78 40.9434V40.9334Z" fill="white"/>
<path d="M17.9999 9.10401L17.5499 8.10401L16.0199 8.78401L15.8199 8.34401L19.3699 6.75401L19.5699 7.19401L18.0399 7.88401L18.4899 8.88401L17.9999 9.10401ZM17.4499 5.18401C17.7699 5.27401 17.9999 5.46401 18.1399 5.76401C18.2799 6.06401 18.2699 6.36401 18.1099 6.66401C17.9699 6.94401 17.7599 7.14401 17.4599 7.27401C17.1599 7.40401 16.8599 7.43401 16.5599 7.35401C16.2399 7.26401 16.0099 7.07401 15.8799 6.77401C15.7499 6.47401 15.7499 6.17401 15.8999 5.87401C16.0399 5.59401 16.2599 5.39401 16.5599 5.25401C16.8599 5.12401 17.1499 5.09401 17.4499 5.17401V5.18401ZM16.3899 6.04401C16.3099 6.21401 16.2999 6.38401 16.3799 6.55401C16.4499 6.71401 16.5799 6.82401 16.7699 6.87401C16.9399 6.92401 17.1099 6.91401 17.2799 6.84401C17.4399 6.77401 17.5599 6.65401 17.6299 6.48401C17.7199 6.30401 17.7199 6.14401 17.6499 5.97401C17.5799 5.81401 17.4499 5.70401 17.2599 5.64401C17.0899 5.59401 16.9199 5.60401 16.7599 5.67401C16.5899 5.74401 16.4699 5.86401 16.3899 6.02401V6.04401Z" fill="white"/>
<path d="M22.7999 3.66332C22.8599 4.02332 23.0399 4.27332 23.3499 4.41332C23.6199 4.53332 23.9799 4.56332 24.4499 4.52332L24.5199 5.01332C24.1399 5.05332 23.7799 5.04332 23.4599 4.97332C23.0899 4.89332 22.8099 4.74332 22.6199 4.53332C22.4899 4.79332 22.2599 5.01332 21.9299 5.20332C21.6499 5.35332 21.3299 5.47332 20.9499 5.55332L20.8799 5.06332C21.3399 4.96332 21.6799 4.81332 21.8999 4.62332C22.1599 4.39332 22.2599 4.10332 22.1999 3.74332L22.7999 3.65332V3.66332ZM22.8099 7.60332L22.6199 6.35332L20.9699 6.60332L20.8999 6.13332L24.7399 5.55332L24.8099 6.02332L23.1499 6.27332L23.3399 7.52332L22.8099 7.60332Z" fill="white"/>
<path d="M27.8599 3.99379C27.7699 4.73379 27.7899 5.27379 27.9099 5.62379C27.9999 5.88379 28.1399 6.04379 28.3399 6.10379L28.2799 6.65379C28.1099 6.62379 27.9499 6.54379 27.8099 6.42379C27.6099 6.24379 27.4699 5.99379 27.3999 5.67379C27.2399 5.96379 27.0499 6.17379 26.8099 6.30379C26.6399 6.39379 26.4699 6.43379 26.2999 6.43379L26.3599 5.89379C26.5699 5.87379 26.7499 5.75379 26.8999 5.51379C27.0999 5.19379 27.2399 4.67379 27.3299 3.93379L26.6399 3.85379L26.6899 3.38379L28.5999 3.60379L28.5499 4.07379L27.8699 3.99379H27.8599ZM28.3499 4.66379L28.8899 4.72379L29.0099 3.64379L29.5199 3.70379L29.0699 7.56379L28.5599 7.50379L28.8299 5.21379L28.2899 5.15379L28.3499 4.65379V4.66379ZM29.8599 3.75379L30.3799 3.81379L29.9299 7.67379L29.4099 7.61379L29.8599 3.75379Z" fill="white"/>
<path d="M35.2399 8.04383L34.8299 9.04383C34.7799 9.16383 34.7199 9.23383 34.6499 9.26383C34.5799 9.29383 34.4999 9.28383 34.3999 9.24383L31.6599 8.13383C31.5599 8.09383 31.4899 8.03383 31.4699 7.97383C31.4399 7.90383 31.4499 7.80383 31.4999 7.69383L31.9099 6.69383L33.3399 7.27383L33.4799 6.93383L31.9199 6.30383L32.0999 5.86383L35.6999 7.32383L35.5199 7.76383L33.9599 7.13383L33.8199 7.47383L35.2499 8.05383L35.2399 8.04383ZM34.5799 8.28383L32.2199 7.32383L32.0399 7.78383L34.3999 8.74383L34.5799 8.28383ZM35.3599 6.37383L35.8599 6.57383L35.6899 6.99383L32.3199 5.62383L32.4899 5.20383L32.9699 5.40383L33.1099 5.05383L32.6299 4.85383L32.7999 4.42383L36.1699 5.79383L35.9999 6.22383L35.4999 6.02383L35.3599 6.37383ZM33.5999 5.25383L33.4599 5.60383L34.8799 6.18383L35.0199 5.83383L33.5999 5.25383Z" fill="white"/>
<path d="M38.9499 9.6932C38.9499 9.9232 38.7699 10.1032 38.5399 10.1032C38.3099 10.1032 38.1299 9.9232 38.1299 9.6932C38.1299 9.4632 38.3099 9.2832 38.5399 9.2832C38.7699 9.2832 38.9499 9.4632 38.9499 9.6932Z" fill="white"/>
<path d="M13.4699 9.6932C13.4699 9.9232 13.2899 10.1032 13.0599 10.1032C12.8299 10.1032 12.6499 9.9232 12.6499 9.6932C12.6499 9.4632 12.8299 9.2832 13.0599 9.2832C13.2899 9.2832 13.4699 9.4632 13.4699 9.6932Z" fill="white"/>
<path d="M13.4699 43.2528C13.4699 43.4828 13.2899 43.6628 13.0599 43.6628C12.8299 43.6628 12.6499 43.4828 12.6499 43.2528C12.6499 43.0228 12.8299 42.8428 13.0599 42.8428C13.2899 42.8428 13.4699 43.0228 13.4699 43.2528Z" fill="white"/>
<path d="M38.9499 43.2528C38.9499 43.4828 38.7699 43.6628 38.5399 43.6628C38.3099 43.6628 38.1299 43.4828 38.1299 43.2528C38.1299 43.0228 38.3099 42.8428 38.5399 42.8428C38.7699 42.8428 38.9499 43.0228 38.9499 43.2528Z" fill="white"/>
<path d="M42.7499 26.2231C42.7499 35.5131 35.2199 43.0331 25.9399 43.0331C16.6599 43.0331 9.12988 35.5031 9.12988 26.2231C9.12988 16.9431 16.6599 9.41309 25.9399 9.41309C35.2199 9.41309 42.7499 16.9431 42.7499 26.2231Z" fill="url(#paint0_radial_214_4520)"/>
<path d="M29.7099 16.5234L19.0799 32.7834L24.6099 32.8034L27.3599 26.8134C30.5399 26.3034 35.9599 25.0434 38.9199 22.0834C43.0999 17.9034 39.2799 15.2334 35.9199 14.7334C32.6799 14.2534 26.9599 14.5034 21.5899 17.4534C15.3299 20.8834 12.1999 26.2234 13.2399 30.8234C14.3999 35.9234 21.3399 37.3734 28.4299 34.9434C30.7599 34.1434 32.7999 32.6334 34.2799 31.1634H32.8099C32.8099 31.1634 28.5199 35.2134 22.7499 34.2934C17.2299 33.4134 15.1699 29.6834 17.0999 25.0934C19.4999 19.4034 26.1499 15.9434 31.2399 15.3534C33.2399 15.1234 37.1699 15.3234 37.8499 17.1334C38.8299 19.7434 34.5899 22.7334 28.9599 23.3434L31.1599 18.5634L29.7099 16.5234Z" fill="white"/>
<defs>
<radialGradient id="paint0_radial_214_4520" cx="0" cy="0" r="1" gradientUnits="userSpaceOnUse" gradientTransform="translate(32.7799 20.7831) scale(29.65)">
<stop stop-color="#ABE1FA"/>
<stop offset="0.2" stop-color="#00B9F2"/>
<stop offset="0.8" stop-color="#005AAA"/>
<stop offset="1" stop-color="#00B9F2"/>
</radialGradient>
</defs>
</svg>
