<svg width="42" height="53" viewBox="0 0 42 53" fill="none" xmlns="http://www.w3.org/2000/svg">
<path d="M12.98 28.5736C20.28 36.4236 40.18 30.6836 35.54 21.2336C30.53 11.0036 13.51 13.1836 10.59 25.1236C8.23999 34.7436 15.28 42.7336 25.01 42.7336C33.59 42.7336 38.1 37.7836 39.17 36.0936C37.84 38.4836 32.71 44.0536 24.31 44.0536C13.16 44.0536 3.25998 37.1936 6.25998 25.1836C9.52998 12.0936 32.15 7.39361 38.64 21.1936C44.3 33.2336 21.03 37.7636 12.98 28.5636V28.5736Z" fill="#F7941C"/>
<path d="M25.1299 23.3036C25.1699 23.7736 25.3099 24.2036 25.3299 24.6736C25.3599 25.3436 25.8299 25.9236 25.8099 26.6136C25.7599 26.4736 25.7199 26.3436 25.7099 26.1936C25.6799 26.7736 26.1199 27.2736 26.6999 27.3036C27.2899 27.3436 27.7799 26.8936 27.8199 26.3136C27.8599 26.1836 27.9299 26.0436 27.8999 25.9236C27.6799 25.1136 26.9599 24.7236 26.4399 24.1236C26.0999 23.7436 25.6999 23.4136 25.1999 23.2436C25.1799 23.2236 25.1499 23.2136 25.1299 23.2336C25.1099 23.2536 25.0999 23.2836 25.1199 23.3036H25.1299Z" fill="#EF4122"/>
<path d="M28.8199 21.5132C29.0299 22.4432 29.5399 23.2832 29.6199 24.2332C29.6199 24.3432 29.5499 24.4732 29.6199 24.6532C29.7599 25.1332 30.2499 25.4132 30.7399 25.2732C31.2199 25.1432 31.4999 24.6432 31.3599 24.1632L31.3799 24.1832C31.2699 23.9732 31.2199 23.7332 31.0799 23.5632C30.4099 22.7732 29.8599 21.8732 28.8599 21.4732C28.8599 21.4732 28.8399 21.4632 28.8199 21.4732C28.8199 21.4732 28.8099 21.4932 28.8199 21.5132Z" fill="#EF4122"/>
<path d="M8.57993 15.1641C8.72993 14.3841 8.21993 13.7541 7.68993 13.2841C6.07993 11.8741 4.62992 10.5041 2.80992 9.47408C2.57992 9.35408 2.29992 9.40408 2.02992 9.44408C1.46992 9.12408 0.759928 9.32408 0.439928 9.87408C0.119928 10.4341 0.31992 11.1441 0.86992 11.4641L0.929918 11.6241C1.04992 11.7941 1.12993 12.0241 1.29993 12.1041C3.64993 13.2741 5.84992 14.6741 8.36992 15.3141C8.40992 15.3741 8.48993 15.3841 8.54993 15.3441C8.60993 15.3041 8.62993 15.2141 8.57993 15.1641Z" fill="#005AAA"/>
<path d="M35.3699 11.6534C36.5399 11.2834 37.4899 10.4834 38.5599 9.86339C39.3299 9.41339 39.9999 8.8334 40.6899 8.2634C40.6499 8.3134 40.6099 8.3734 40.5699 8.4234C41.3599 7.9934 41.6499 6.99339 41.2199 6.20339C40.7899 5.41339 39.7899 5.1234 38.9999 5.5534L39.1499 5.6234C38.7699 5.5434 38.5099 5.8334 38.3099 6.1034C37.8199 6.7634 37.4899 7.4534 37.0299 8.1434C36.2899 9.2534 35.5999 10.2534 35.2299 11.4934C35.1899 11.5334 35.1799 11.5934 35.2299 11.6434C35.2699 11.6834 35.3299 11.6934 35.3799 11.6434L35.3699 11.6534Z" fill="#005AAA"/>
<path d="M16.2599 8.31312C15.9399 6.23312 15.0199 4.31312 14.1099 2.49312C13.6199 1.72312 12.6899 1.54312 12.0299 2.09312C11.3699 2.64312 11.2199 3.71312 11.7199 4.49312C13.0499 5.83312 13.9099 7.73312 15.3499 8.92312C15.4999 9.22312 15.8299 9.32312 16.0799 9.15312C16.3299 8.98312 16.4199 8.61312 16.2699 8.31312H16.2599Z" fill="#005AAA"/>
<path d="M26.6999 7.24342C26.8599 7.10342 27.0099 6.96342 27.1399 6.79342C28.1199 5.53342 28.6099 4.13342 29.2599 2.68342C29.2999 2.59342 29.2599 2.49342 29.2599 2.39342C29.3899 1.59342 28.8599 0.833423 28.0599 0.693423C27.2599 0.563423 26.4999 1.09342 26.3599 1.89342H26.4599C26.3999 1.98342 26.3099 2.06342 26.2899 2.16342C26.0499 3.60342 25.9299 4.99342 25.8899 6.45342C25.8899 6.66342 25.9099 6.92342 26.0799 7.11342C26.0299 7.24342 26.1099 7.39342 26.2399 7.44342C26.3799 7.49342 26.5299 7.41342 26.5699 7.28342L26.7099 7.24342H26.6999Z" fill="#005AAA"/>
<path d="M11.8499 49.6044C11.8299 49.8244 11.7799 50.0244 11.7099 50.2144C11.6399 50.4044 11.5399 50.5644 11.4299 50.6944C11.3099 50.8344 11.1799 50.9344 11.0299 51.0144C10.8799 51.0944 10.7099 51.1244 10.5299 51.1244C10.3199 51.1244 10.1399 51.0844 9.96994 50.9944C9.80994 50.9044 9.66994 50.7844 9.54994 50.6244C9.42994 50.4644 9.33994 50.2844 9.27994 50.0644C9.21994 49.8544 9.18994 49.6144 9.18994 49.3644C9.18994 49.1144 9.21993 48.8844 9.28993 48.6744C9.34993 48.4644 9.44994 48.2744 9.55994 48.1144C9.67994 47.9544 9.81993 47.8344 9.97993 47.7444C10.1399 47.6544 10.3299 47.6044 10.5199 47.6044C10.6999 47.6044 10.8599 47.6444 11.0099 47.7144C11.1599 47.7844 11.2899 47.8844 11.3999 48.0144C11.5199 48.1444 11.6099 48.2944 11.6899 48.4744C11.7599 48.6544 11.8199 48.8444 11.8399 49.0544H12.3399V48.1244C12.3399 47.9744 12.3099 47.8744 12.2399 47.8244C12.1699 47.7744 12.0899 47.7444 11.9899 47.7444V47.5644H12.6199C12.7499 47.5644 12.8399 47.5944 12.9099 47.6544C12.9699 47.7144 12.9999 47.8044 12.9999 47.9344V52.6244H12.3399V49.6144H11.8399L11.8499 49.6044ZM11.2299 49.3644C11.2299 49.2044 11.2099 49.0444 11.1799 48.8944C11.1399 48.7444 11.0999 48.6144 11.0299 48.4944C10.9699 48.3844 10.8899 48.2944 10.8099 48.2244C10.7199 48.1544 10.6299 48.1244 10.5299 48.1244C10.4199 48.1244 10.3299 48.1544 10.2399 48.2244C10.1499 48.2944 10.0799 48.3844 10.0199 48.4944C9.95994 48.6044 9.90993 48.7444 9.87993 48.8944C9.84993 49.0444 9.82994 49.2044 9.82994 49.3644C9.82994 49.5244 9.84993 49.6944 9.87993 49.8344C9.90993 49.9844 9.95994 50.1144 10.0199 50.2244C10.0799 50.3344 10.1499 50.4244 10.2399 50.4944C10.3299 50.5544 10.4199 50.5944 10.5299 50.5944C10.6299 50.5944 10.7199 50.5644 10.8099 50.4944C10.8999 50.4344 10.9699 50.3444 11.0299 50.2244C11.0899 50.1144 11.1399 49.9844 11.1799 49.8344C11.2199 49.6844 11.2299 49.5244 11.2299 49.3644ZM13.5199 48.0344C13.5199 47.8944 13.4899 47.7944 13.4199 47.7444C13.3499 47.6944 13.2699 47.6644 13.1699 47.6644V47.4844H13.7899C13.9199 47.4844 14.0099 47.5144 14.0799 47.5744C14.1399 47.6344 14.1699 47.7244 14.1699 47.8544V52.7844H13.5299V48.0344H13.5199Z" fill="#221E1F"/>
<path d="M14.2699 52.8941H13.4099V48.0341C13.4099 47.9341 13.3899 47.8641 13.3499 47.8341C13.2999 47.7941 13.2399 47.7841 13.1599 47.7841H13.0899C13.0899 47.7841 13.0999 47.8741 13.0999 47.9241V52.7241H12.2299V49.7141H11.9299C11.8999 49.9041 11.8599 50.0841 11.7899 50.2541C11.7099 50.4541 11.6099 50.6241 11.4899 50.7641C11.3599 50.9141 11.2199 51.0241 11.0499 51.1141C10.8799 51.1941 10.6899 51.2341 10.4999 51.2341C10.2799 51.2341 10.0699 51.1941 9.88994 51.0941C9.70994 50.9941 9.55993 50.8641 9.42993 50.6841C9.30993 50.5241 9.20993 50.3241 9.14993 50.0941C9.08993 49.8741 9.05994 49.6241 9.05994 49.3641C9.05994 49.1041 9.08994 48.8641 9.15994 48.6441C9.22994 48.4241 9.31994 48.2241 9.44994 48.0541C9.57994 47.8841 9.72994 47.7541 9.90994 47.6541C10.2499 47.4641 10.6899 47.4541 11.0399 47.6241C11.1999 47.7041 11.3399 47.8141 11.4699 47.9541C11.5899 48.0941 11.6999 48.2541 11.7799 48.4441C11.8499 48.6041 11.8999 48.7741 11.9299 48.9541H12.2399V48.1241C12.2399 47.9741 12.1999 47.9241 12.1799 47.9041C12.1299 47.8641 12.0699 47.8541 11.9899 47.8541H11.8799V47.4641H12.6099C12.7699 47.4641 12.8899 47.5041 12.9699 47.5841C12.9999 47.6141 13.0199 47.6441 13.0399 47.6841V47.4141H13.7599C13.9199 47.4141 14.0399 47.4541 14.1199 47.5341C14.1999 47.6141 14.2499 47.7341 14.2499 47.8941V52.9241L14.2699 52.8941ZM13.6199 52.6841H14.0499V47.8641C14.0499 47.7641 14.0299 47.6941 13.9899 47.6641C13.9499 47.6241 13.8799 47.6041 13.7799 47.6041H13.3499C13.3499 47.6041 13.4399 47.6441 13.4799 47.6741C13.5699 47.7441 13.6199 47.8741 13.6199 48.0441V52.6941V52.6841ZM12.4599 52.5041H12.9099V47.9141C12.9099 47.8141 12.8899 47.7441 12.8499 47.7141C12.8099 47.6741 12.7399 47.6541 12.6399 47.6541H12.1999C12.1999 47.6541 12.2899 47.6941 12.3299 47.7241C12.4199 47.7941 12.4699 47.9241 12.4699 48.1141V49.1541H11.7699V49.0641C11.7299 48.8641 11.6799 48.6841 11.6099 48.5141C11.5399 48.3441 11.4499 48.2041 11.3399 48.0841C11.2399 47.9641 11.1099 47.8741 10.9799 47.8041C10.6999 47.6641 10.3199 47.6741 10.0499 47.8341C9.89994 47.9141 9.76994 48.0341 9.65994 48.1741C9.54994 48.3241 9.45993 48.5041 9.39993 48.7041C9.33993 48.9041 9.30994 49.1341 9.30994 49.3641C9.30994 49.5941 9.33993 49.8241 9.39993 50.0341C9.45993 50.2341 9.53993 50.4141 9.64993 50.5541C9.75993 50.7041 9.88993 50.8141 10.0399 50.9041C10.1899 50.9841 10.3599 51.0241 10.5399 51.0241C10.6999 51.0241 10.8599 50.9941 10.9899 50.9241C11.1299 50.8541 11.2499 50.7541 11.3599 50.6341C11.4699 50.5141 11.5499 50.3641 11.6199 50.1841C11.6899 50.0041 11.7299 49.8141 11.7599 49.6041V49.5141H12.4699V52.5241L12.4599 52.5041ZM10.5299 50.6941C10.3999 50.6941 10.2799 50.6541 10.1799 50.5741C10.0799 50.5041 9.98993 50.3941 9.92993 50.2741C9.85993 50.1541 9.80994 50.0141 9.77994 49.8541C9.74994 49.7041 9.72993 49.5341 9.72993 49.3541C9.72993 49.1741 9.74994 49.0141 9.77994 48.8641C9.81994 48.7041 9.86993 48.5641 9.92993 48.4441C9.98993 48.3241 10.0799 48.2141 10.1799 48.1441C10.3899 47.9841 10.6599 47.9741 10.8799 48.1441C10.9799 48.2241 11.0599 48.3241 11.1299 48.4441C11.1999 48.5641 11.2499 48.7041 11.2899 48.8641C11.3299 49.0241 11.3499 49.1841 11.3499 49.3641C11.3499 49.5441 11.3299 49.7041 11.2899 49.8641C11.2499 50.0241 11.1999 50.1641 11.1299 50.2841C11.0599 50.4141 10.9799 50.5141 10.8799 50.5841C10.7799 50.6641 10.6599 50.7041 10.5399 50.7041L10.5299 50.6941ZM10.5299 48.2241C10.4499 48.2241 10.3699 48.2541 10.2999 48.3041C10.2199 48.3641 10.1599 48.4441 10.1099 48.5441C10.0499 48.6541 10.0099 48.7741 9.97993 48.9141C9.94993 49.0541 9.92993 49.2041 9.92993 49.3641C9.92993 49.5241 9.94993 49.6741 9.97993 49.8141C10.0099 49.9541 10.0599 50.0741 10.1099 50.1741C10.1599 50.2741 10.2299 50.3541 10.2999 50.4041C10.4299 50.5041 10.5999 50.5141 10.7399 50.4041C10.8099 50.3441 10.8799 50.2741 10.9299 50.1741C10.9899 50.0641 11.0299 49.9441 11.0699 49.8041C11.0999 49.6641 11.1199 49.5141 11.1199 49.3541C11.1199 49.1941 11.0999 49.0441 11.0699 48.9041C11.0399 48.7641 10.9899 48.6441 10.9299 48.5341C10.8699 48.4341 10.8099 48.3541 10.7299 48.2941C10.6599 48.2441 10.5899 48.2141 10.5199 48.2141L10.5299 48.2241Z" fill="#221E1F"/>
<path d="M18.2499 51.1444H15.8699C15.6399 51.1444 15.4599 51.1044 15.3399 51.0144C15.2199 50.9244 15.1599 50.7644 15.1599 50.5144V48.2144C15.1599 48.0744 15.1299 47.9744 15.0599 47.9244C14.9899 47.8744 14.9099 47.8444 14.8099 47.8444V47.6644H15.4399C15.5699 47.6644 15.6599 47.6944 15.7299 47.7544C15.7999 47.8144 15.8199 47.9044 15.8199 48.0444V50.6044H18.2599V51.1444H18.2499ZM18.6999 52.7844V49.3944H17.1099V48.8544H18.6999V48.0444C18.6999 47.8944 18.6699 47.7944 18.5999 47.7444C18.5299 47.6944 18.4499 47.6644 18.3499 47.6644V47.4844H18.9799C19.1099 47.4844 19.2099 47.5144 19.2699 47.5644C19.3299 47.6244 19.3599 47.7144 19.3599 47.8444V52.7744H18.6899L18.6999 52.7844Z" fill="#221E1F"/>
<path d="M19.4699 52.884H18.5899V49.494H16.9999V48.734H18.5899V48.034C18.5899 47.924 18.5699 47.844 18.5299 47.814C18.4799 47.774 18.4199 47.764 18.3399 47.764H18.2299V47.374H18.9699C19.1299 47.374 19.2499 47.414 19.3299 47.484C19.4199 47.564 19.4599 47.684 19.4599 47.844V52.874L19.4699 52.884ZM18.7999 52.674H19.2599V47.854C19.2599 47.754 19.2399 47.694 19.1999 47.654C19.1599 47.614 19.0799 47.594 18.9799 47.594H18.5499C18.5499 47.594 18.6299 47.634 18.6599 47.654C18.7499 47.724 18.7999 47.854 18.7999 48.034V48.944H17.2099V49.274H18.7999V52.664V52.674ZM18.3499 51.254H15.8599C15.5999 51.254 15.4099 51.204 15.2699 51.104C15.1199 50.994 15.0499 50.794 15.0499 50.514V48.214C15.0499 48.104 15.0299 48.034 14.9899 48.004C14.9399 47.964 14.8799 47.954 14.7999 47.954H14.6899V47.564H15.4199C15.5799 47.564 15.6999 47.604 15.7799 47.684C15.8599 47.764 15.9099 47.884 15.9099 48.044V50.504H18.3499V51.264V51.254ZM14.9999 47.774C14.9999 47.774 15.0799 47.814 15.1099 47.834C15.1999 47.904 15.2499 48.034 15.2499 48.214V50.514C15.2499 50.724 15.2999 50.864 15.3899 50.934C15.4899 51.004 15.6499 51.044 15.8599 51.044H18.1399V50.714H15.6999V48.044C15.6999 47.944 15.6799 47.874 15.6399 47.834C15.5999 47.794 15.5299 47.774 15.4299 47.774H15.0099H14.9999Z" fill="#221E1F"/>
<path d="M22.25 49.0234C22.25 49.2134 22.28 49.4034 22.34 49.5934C22.41 49.7834 22.4999 49.9634 22.6199 50.1334C22.7399 50.3034 22.89 50.4534 23.05 50.5834C23.22 50.7134 23.3999 50.8134 23.5999 50.8834L23.17 51.3034C23.06 51.2634 22.9499 51.2234 22.8199 51.1534C22.6999 51.0934 22.5799 51.0034 22.4599 50.9034C22.3499 50.8034 22.24 50.6834 22.14 50.5434C22.04 50.4034 21.9599 50.2434 21.8999 50.0534C21.8299 50.2334 21.74 50.4034 21.64 50.5434C21.54 50.6834 21.4299 50.8034 21.3199 50.9034C21.2099 51.0034 21.09 51.0934 20.97 51.1534C20.85 51.2234 20.7399 51.2734 20.6299 51.3034L20.2 50.8834C20.37 50.8134 20.53 50.7234 20.7 50.5934C20.86 50.4634 21.01 50.3234 21.14 50.1634C21.27 50.0034 21.37 49.8234 21.45 49.6234C21.53 49.4234 21.56 49.2234 21.56 49.0234V48.2134H20.45V47.6734H23.34V48.2134H22.2299V49.0234H22.25ZM24.8699 47.8634V52.7934H24.2V48.0334C24.2 47.8934 24.1699 47.7934 24.0999 47.7434C24.0299 47.6934 23.9499 47.6634 23.8499 47.6634V47.4834H24.4799C24.61 47.4834 24.71 47.5134 24.77 47.5734C24.83 47.6334 24.86 47.7234 24.86 47.8534L24.8699 47.8634Z" fill="#221E1F"/>
<path d="M24.9799 52.8936H24.0999V48.0336C24.0999 47.9336 24.0799 47.8635 24.0399 47.8335C23.9899 47.7935 23.9299 47.7836 23.8499 47.7836H23.7399V47.3936H24.4799C24.6399 47.3936 24.7599 47.4335 24.8499 47.5135C24.9299 47.5935 24.9799 47.7136 24.9799 47.8736V52.9036V52.8936ZM24.3099 52.6836H24.7699V47.8636C24.7699 47.7636 24.7499 47.6936 24.7099 47.6636C24.6699 47.6236 24.5899 47.6036 24.4899 47.6036H24.0599C24.0599 47.6036 24.1399 47.6436 24.1699 47.6636C24.2599 47.7336 24.3099 47.8636 24.3099 48.0336V52.6836ZM20.6199 51.4236L20.0199 50.8536L20.1699 50.7936C20.3299 50.7336 20.4899 50.6436 20.6399 50.5236C20.7999 50.4036 20.9399 50.2636 21.0599 50.1136C21.1799 49.9536 21.2799 49.7836 21.3499 49.6036C21.4199 49.4236 21.4599 49.2336 21.4599 49.0336V48.3335H20.3499V47.5736H23.4599V48.3335H22.3499V49.0336C22.3499 49.2036 22.3799 49.3836 22.4399 49.5636C22.4999 49.7436 22.5899 49.9136 22.7099 50.0736C22.8299 50.2336 22.9599 50.3736 23.1199 50.5036C23.2799 50.6236 23.4499 50.7236 23.6399 50.7936L23.7999 50.8536L23.1999 51.4336L23.1399 51.4136C23.0199 51.3736 22.8999 51.3236 22.7799 51.2536C22.6499 51.1836 22.5299 51.0936 22.3999 50.9936C22.2799 50.8936 22.1699 50.7636 22.0599 50.6136C21.9999 50.5236 21.9499 50.4335 21.8999 50.3335C21.8499 50.4335 21.7899 50.5236 21.7299 50.6136C21.6199 50.7636 21.5099 50.8836 21.3899 50.9936C21.2699 51.1036 21.1499 51.1836 21.0199 51.2536C20.8999 51.3236 20.7799 51.3736 20.6699 51.4136L20.6099 51.4336L20.6199 51.4236ZM21.9199 49.7336L22.0099 50.0135C22.0699 50.1935 22.1499 50.3436 22.2399 50.4736C22.3299 50.6036 22.4399 50.7236 22.5399 50.8136C22.6499 50.9136 22.7599 50.9936 22.8799 51.0536C22.9699 51.1036 23.0599 51.1436 23.1499 51.1736L23.4199 50.9136C23.2699 50.8436 23.1299 50.7636 22.9899 50.6536C22.8199 50.5136 22.6599 50.3536 22.5399 50.1836C22.4099 50.0036 22.3099 49.8136 22.2399 49.6136C22.1699 49.4136 22.1399 49.2035 22.1399 49.0135V48.1036H23.2499V47.7736H20.5699V48.1036H21.6799V49.0135C21.6799 49.2335 21.6399 49.4536 21.5599 49.6536C21.4799 49.8536 21.3699 50.0436 21.2399 50.2236C21.1099 50.3936 20.9499 50.5436 20.7799 50.6736C20.6599 50.7636 20.5299 50.8436 20.3999 50.9136L20.6699 51.1736C20.7499 51.1436 20.8399 51.1036 20.9299 51.0536C21.0399 50.9936 21.1499 50.9136 21.2599 50.8136C21.3699 50.7236 21.4699 50.6036 21.5699 50.4736C21.6699 50.3436 21.7499 50.1835 21.8099 50.0135L21.9199 49.7336Z" fill="#221E1F"/>
<path d="M29.1799 49.8232L28.7599 50.2732C28.4799 50.2032 28.2199 50.0932 27.9799 49.9332C27.7399 49.7732 27.5499 49.5532 27.4199 49.2632C27.3599 49.4032 27.2799 49.5332 27.1799 49.6532C27.0799 49.7632 26.9699 49.8632 26.8499 49.9532C26.7299 50.0332 26.5999 50.1032 26.4699 50.1632C26.3399 50.2132 26.2099 50.2632 26.0799 50.2832L25.6699 49.8332C26.1899 49.7232 26.5499 49.5332 26.7599 49.2532C26.9699 48.9732 27.0699 48.6332 27.0699 48.2232H26.0099V47.6832H28.8199V48.2232H27.7499C27.7499 48.6432 27.8599 48.9932 28.0699 49.2532C28.2799 49.5232 28.6499 49.7132 29.1699 49.8332L29.1799 49.8232ZM30.3799 50.5332V51.9132H27.6699V52.2732H30.4399V52.7832H27.6799C27.4699 52.7832 27.2999 52.7432 27.1699 52.6632C27.0399 52.5832 26.9799 52.4132 26.9799 52.1432V51.9332C26.9799 51.7932 26.9499 51.6932 26.8799 51.6432C26.8099 51.5932 26.7299 51.5632 26.6299 51.5632V51.3832H29.6999V51.0232H26.7499V50.5132H30.3799V50.5332ZM30.3799 47.8532V50.3732H29.7099V49.1632H28.5599V48.6232H29.7099V48.0532C29.7099 47.9032 29.6799 47.8032 29.6099 47.7532C29.5399 47.7032 29.4599 47.6732 29.3599 47.6732V47.4932H29.9899C30.1199 47.4932 30.2199 47.5232 30.2799 47.5732C30.3399 47.6332 30.3699 47.7232 30.3699 47.8532H30.3799Z" fill="#221E1F"/>
<path d="M30.54 52.8936H27.67C27.44 52.8936 27.25 52.8535 27.1 52.7635C26.94 52.6635 26.86 52.4636 26.86 52.1536V51.9436C26.86 51.8436 26.84 51.7736 26.8 51.7436C26.75 51.7036 26.69 51.6936 26.61 51.6936H26.5V51.3036H29.57V51.1536H26.62V50.4336H29.58V49.2736H28.43V48.5135H29.58V48.0436C29.58 47.9336 29.56 47.8535 29.52 47.8335C29.47 47.7935 29.41 47.7836 29.33 47.7836H29.22V47.3936H29.96C30.12 47.3936 30.24 47.4336 30.32 47.5036C30.41 47.5836 30.45 47.7036 30.45 47.8636V52.0336H27.74V52.1836H30.51V52.9036L30.54 52.8936ZM26.82 51.5135C26.82 51.5135 26.91 51.5535 26.95 51.5835C27.04 51.6535 27.09 51.7836 27.09 51.9536V52.1636C27.09 52.3236 27.11 52.5136 27.23 52.5936C27.34 52.6636 27.49 52.6936 27.68 52.6936H30.33V52.3936H27.56V51.8236H30.27V50.6536H26.85V50.9536H29.8V51.5236H26.81L26.82 51.5135ZM29.82 50.2635H30.28V47.8536C30.28 47.7536 30.26 47.6936 30.22 47.6536C30.18 47.6136 30.1 47.5936 30 47.5936H29.57C29.57 47.5936 29.65 47.6336 29.68 47.6536C29.78 47.7236 29.82 47.8536 29.82 48.0336V48.7136H28.67V49.0436H29.82V50.2536V50.2635ZM28.79 50.3936H28.73C28.44 50.3136 28.17 50.1936 27.92 50.0236C27.72 49.8936 27.55 49.7136 27.42 49.4936C27.37 49.5736 27.32 49.6436 27.26 49.7136C27.15 49.8336 27.04 49.9436 26.91 50.0336C26.78 50.1236 26.65 50.1936 26.51 50.2536C26.37 50.3136 26.24 50.3536 26.11 50.3836H26.05L25.47 49.7635L25.65 49.7236C26.14 49.6236 26.49 49.4436 26.68 49.1836C26.86 48.9536 26.95 48.6636 26.97 48.3236H25.91V47.5636H28.93V48.3236H27.86C27.88 48.6736 27.97 48.9636 28.15 49.1836C28.34 49.4336 28.7 49.6136 29.19 49.7236L29.37 49.7635L28.78 50.3936H28.79ZM25.87 49.8836L26.12 50.1536C26.22 50.1236 26.32 50.0936 26.43 50.0536C26.56 50.0036 26.68 49.9336 26.79 49.8636C26.9 49.7836 27.01 49.6935 27.1 49.5835C27.19 49.4835 27.26 49.3636 27.32 49.2236L27.41 48.9936L27.51 49.2136C27.63 49.4836 27.81 49.6936 28.03 49.8436C28.24 49.9836 28.47 50.0936 28.71 50.1536L28.97 49.8836C28.52 49.7536 28.19 49.5636 27.99 49.3136C27.77 49.0236 27.65 48.6636 27.65 48.2236V48.1136H27.76H28.73V47.7836H26.13V48.1136H27.19V48.2236C27.19 48.6636 27.08 49.0336 26.85 49.3236C26.65 49.5836 26.32 49.7736 25.87 49.8936V49.8836Z" fill="#221E1F"/>
<path d="M34.2199 48.9536C34.2199 49.1436 34.1799 49.3236 34.0999 49.4936C34.0199 49.6636 33.9199 49.8036 33.7799 49.9236C33.6499 50.0536 33.4899 50.1436 33.3099 50.2136C33.1299 50.2836 32.9399 50.3136 32.7399 50.3136C32.5399 50.3136 32.3499 50.2836 32.1699 50.2136C31.9899 50.1436 31.8299 50.0536 31.6999 49.9236C31.5599 49.8036 31.4599 49.6636 31.3799 49.4936C31.2999 49.3236 31.2699 49.1536 31.2699 48.9536C31.2699 48.7536 31.3099 48.5836 31.3799 48.4236C31.4599 48.2636 31.5599 48.1136 31.6899 47.9936C31.8199 47.8736 31.9799 47.7736 32.1599 47.7036C32.3399 47.6336 32.5299 47.5936 32.7299 47.5936C32.9299 47.5936 33.1199 47.6336 33.2999 47.7036C33.4799 47.7736 33.6399 47.8736 33.7699 47.9936C33.9099 48.1236 34.0099 48.2636 34.0899 48.4236C34.1699 48.5836 34.2099 48.7636 34.2099 48.9536H34.2199ZM33.5599 48.9436C33.5599 48.8336 33.5399 48.7336 33.4999 48.6436C33.4599 48.5436 33.3999 48.4636 33.3299 48.3836C33.2599 48.3036 33.1699 48.2436 33.0699 48.2036C32.9699 48.1636 32.8599 48.1336 32.7499 48.1336C32.6399 48.1336 32.5199 48.1536 32.4199 48.2036C32.3199 48.2436 32.2299 48.3136 32.1599 48.3836C32.0899 48.4536 32.0299 48.5436 31.9899 48.6436C31.9499 48.7436 31.9299 48.8436 31.9299 48.9436C31.9299 49.0436 31.9499 49.1536 31.9899 49.2536C32.0299 49.3536 32.0899 49.4436 32.1599 49.5236C32.2299 49.5936 32.3199 49.6536 32.4199 49.7036C32.5199 49.7536 32.6299 49.7736 32.7499 49.7736C32.8699 49.7736 32.9699 49.7536 33.0699 49.7036C33.1699 49.6636 33.2499 49.6036 33.3199 49.5236C33.3899 49.4436 33.4499 49.3536 33.4899 49.2536C33.5299 49.1536 33.5499 49.0536 33.5499 48.9436H33.5599ZM35.7099 51.0936V52.7836H34.9799V51.2636H32.1399V50.7236H35.2999C35.4399 50.7236 35.5499 50.7536 35.6099 50.8136C35.6699 50.8736 35.7099 50.9636 35.7099 51.0936ZM35.7099 48.1436H36.5399V48.6936H35.7099V49.2036H36.5399V49.7436H35.7099V50.4836H35.0399V48.0336C35.0399 47.8836 35.0099 47.7836 34.9399 47.7336C34.8699 47.6836 34.7899 47.6536 34.6899 47.6536V47.4736H35.3199C35.4499 47.4736 35.5499 47.5036 35.6099 47.5536C35.6699 47.6136 35.6999 47.7036 35.6999 47.8336V48.1236L35.7099 48.1436Z" fill="#221E1F"/>
<path d="M35.8199 52.8836H34.8799V51.3636H32.0399V50.6136H35.2999C35.4699 50.6136 35.5999 50.6536 35.6799 50.7336C35.7699 50.8136 35.8099 50.9336 35.8099 51.0936V52.8836H35.8199ZM35.0899 52.6736H35.6099V51.0936C35.6099 50.9936 35.5899 50.9236 35.5499 50.8936C35.5099 50.8536 35.4199 50.8335 35.3099 50.8335H32.2599V51.1636H35.0999V52.6836L35.0899 52.6736ZM35.8199 50.5936H34.9399V48.0436C34.9399 47.9336 34.9199 47.8535 34.8799 47.8335C34.8299 47.7935 34.7699 47.7836 34.6899 47.7836H34.5799V47.3936H35.3199C35.4799 47.3936 35.5999 47.4336 35.6799 47.5036C35.7699 47.5836 35.8099 47.7036 35.8099 47.8636V48.0536H36.6399V48.8136H35.8099V49.1136H36.6399V49.8736H35.8099V50.6136L35.8199 50.5936ZM35.1499 50.3836H35.6099V49.6436H36.4399V49.3136H35.6099V48.5936H36.4399V48.2635H35.6099V47.8636C35.6099 47.7636 35.5899 47.7036 35.5499 47.6636C35.5099 47.6236 35.4299 47.6036 35.3299 47.6036H34.8999C34.8999 47.6036 34.9799 47.6436 35.0099 47.6636C35.1099 47.7336 35.1499 47.8636 35.1499 48.0436V50.3836ZM32.7499 50.4136C32.5399 50.4136 32.3299 50.3736 32.1399 50.3036C31.9499 50.2336 31.7799 50.1236 31.6399 49.9936C31.4999 49.8636 31.3799 49.7136 31.2999 49.5336C31.2199 49.3536 31.1799 49.1636 31.1799 48.9536C31.1799 48.7436 31.2199 48.5536 31.2999 48.3736C31.3799 48.1936 31.4999 48.0436 31.6399 47.9036C31.7799 47.7736 31.9499 47.6736 32.1399 47.5936C32.5199 47.4436 32.9699 47.4436 33.3599 47.5936C33.5499 47.6636 33.7199 47.7736 33.8599 47.9036C34.0099 48.0336 34.1199 48.1936 34.2099 48.3736C34.2899 48.5536 34.3399 48.7436 34.3399 48.9536C34.3399 49.1636 34.2999 49.3536 34.2099 49.5336C34.1299 49.7136 34.0099 49.8636 33.8699 49.9936C33.7299 50.1236 33.5599 50.2336 33.3699 50.3036C33.1799 50.3736 32.9799 50.4136 32.7699 50.4136H32.7499ZM32.7399 47.6936C32.5499 47.6936 32.3699 47.7236 32.2099 47.7936C32.0399 47.8636 31.8999 47.9536 31.7799 48.0636C31.6599 48.1736 31.5599 48.3136 31.4899 48.4636C31.4199 48.6136 31.3899 48.7736 31.3899 48.9536C31.3899 49.1336 31.4299 49.2936 31.4899 49.4436C31.5599 49.5936 31.6599 49.7336 31.7799 49.8436C31.8999 49.9636 32.0499 50.0536 32.2199 50.1136C32.5499 50.2436 32.9499 50.2436 33.2799 50.1136C33.4399 50.0536 33.5899 49.9636 33.7099 49.8436C33.8299 49.7336 33.9299 49.5936 33.9999 49.4436C34.0699 49.2936 34.1099 49.1236 34.1099 48.9536C34.1099 48.7836 34.0699 48.6136 33.9999 48.4636C33.9299 48.3136 33.8299 48.1736 33.6999 48.0636C33.5799 47.9536 33.4299 47.8636 33.2599 47.7936C33.0899 47.7236 32.9199 47.6936 32.7299 47.6936H32.7399ZM32.7499 49.8736C32.6199 49.8736 32.4899 49.8436 32.3799 49.7936C32.2699 49.7436 32.1699 49.6736 32.0899 49.5936C31.9999 49.5036 31.9399 49.4036 31.8899 49.2936C31.8399 49.1836 31.8199 49.0636 31.8199 48.9436C31.8199 48.8236 31.8399 48.7136 31.8899 48.6036C31.9299 48.4936 31.9999 48.3936 32.0799 48.3136C32.1599 48.2236 32.2599 48.1536 32.3699 48.1036C32.5899 48.0036 32.8699 48.0036 33.0999 48.1036C33.2099 48.1536 33.3099 48.2236 33.3899 48.3136C33.4699 48.3936 33.5299 48.4936 33.5799 48.6036C33.6299 48.7136 33.6499 48.8336 33.6499 48.9536C33.6499 49.0736 33.6299 49.1936 33.5799 49.3036C33.5299 49.4136 33.4699 49.5136 33.3899 49.6036C33.3099 49.6836 33.2099 49.7536 33.0999 49.8036C32.9899 49.8536 32.8699 49.8836 32.7399 49.8836L32.7499 49.8736ZM32.7499 48.2336C32.6499 48.2336 32.5499 48.2536 32.4699 48.2936C32.3799 48.3336 32.3099 48.3836 32.2399 48.4536C32.1699 48.5236 32.1199 48.5936 32.0899 48.6736C32.0599 48.7536 32.0399 48.8436 32.0399 48.9436C32.0399 49.0436 32.0599 49.1336 32.0899 49.2136C32.1299 49.3036 32.1799 49.3836 32.2399 49.4436C32.2999 49.5036 32.3799 49.5636 32.4699 49.6036C32.6399 49.6836 32.8499 49.6836 33.0299 49.6036C33.1199 49.5636 33.1899 49.5136 33.2499 49.4436C33.3099 49.3736 33.3699 49.2936 33.3999 49.2136C33.4399 49.1236 33.4499 49.0336 33.4499 48.9436C33.4499 48.8536 33.4299 48.7636 33.3899 48.6836C33.3499 48.5936 33.2999 48.5236 33.2399 48.4536C33.1799 48.3836 33.0999 48.3336 33.0099 48.2936C32.9199 48.2536 32.8299 48.2336 32.7299 48.2336H32.7499Z" fill="#221E1F"/>
</svg>
