<svg width="86" height="33" viewBox="0 0 86 33" fill="none" xmlns="http://www.w3.org/2000/svg">
<path d="M23.8399 32.093C23.2599 32.093 22.6699 31.893 22.1999 31.473L11.9199 22.443C11.1399 21.763 10.8699 20.663 11.2299 19.693C11.5999 18.723 12.5199 18.083 13.5599 18.083H14.8699C18.4499 18.083 21.3599 15.173 21.3599 11.593C21.3599 8.01304 18.4499 5.10305 14.8699 5.10305H3.27992C1.90992 5.10305 0.789917 3.99304 0.789917 2.61304C0.789917 1.23304 1.89992 0.123047 3.27992 0.123047H14.8699C21.1899 0.123047 26.3399 5.26304 26.3399 11.593C26.3399 16.383 23.3899 20.493 19.2099 22.213L25.4999 27.733C26.5299 28.643 26.6399 30.213 25.7299 31.243C25.2399 31.803 24.5499 32.093 23.8599 32.093H23.8399Z" fill="#1C81AB"/>
<path d="M3.27992 32.1836C1.90992 32.1836 0.789917 31.0736 0.789917 29.6936V19.0036C0.789917 13.6136 5.17992 9.22363 10.5699 9.22363H13.4199C14.7899 9.22363 15.9099 10.3336 15.9099 11.7136C15.9099 13.0936 14.7999 14.2036 13.4199 14.2036H10.5699C7.91992 14.2036 5.76993 16.3536 5.76993 19.0036V29.6936C5.76993 31.0636 4.65992 32.1836 3.27992 32.1836Z" fill="#1C81AB"/>
<path d="M53.5799 32.1836H39.4299C34.5199 32.1836 30.5299 28.1936 30.5299 23.2836V9.12363C30.5299 4.21363 34.5199 0.223633 39.4299 0.223633H53.5799C54.9499 0.223633 56.0699 1.33363 56.0699 2.71363C56.0699 4.09363 54.9599 5.20363 53.5799 5.20363H39.4299C37.2699 5.20363 35.4999 6.96363 35.4999 9.13363V23.2936C35.4999 25.4536 37.2599 27.2236 39.4299 27.2236H53.5799C54.9499 27.2236 56.0699 28.3336 56.0699 29.7136C56.0699 31.0936 54.9599 32.2036 53.5799 32.2036V32.1836Z" fill="#1C81AB"/>
<path d="M53.5799 18.6831H42.0099C40.6399 18.6831 39.5199 17.5731 39.5199 16.1931C39.5199 14.8131 40.6299 13.7031 42.0099 13.7031H53.5799C54.9499 13.7031 56.0699 14.8131 56.0699 16.1931C56.0699 17.5731 54.9599 18.6831 53.5799 18.6831Z" fill="#1C81AB"/>
<path d="M82.9799 16.1931C84.7899 14.5031 85.9199 12.1031 85.9199 9.44313C85.9199 4.35313 81.7799 0.203125 76.6799 0.203125H62.8599C61.4899 0.203125 60.3699 1.31313 60.3699 2.69313C60.3699 4.07313 61.4799 5.18312 62.8599 5.18312H76.6799C79.0299 5.18312 80.9399 7.09313 80.9399 9.44313C80.9399 11.7931 79.0299 13.7031 76.6799 13.7031H62.8599C61.4899 13.7031 60.3699 14.8131 60.3699 16.1931C60.3699 17.5731 61.4799 18.6831 62.8599 18.6831H76.6799C79.0299 18.6831 80.9399 20.5931 80.9399 22.9431C80.9399 25.2931 79.0299 27.2031 76.6799 27.2031H62.8599C61.4899 27.2031 60.3699 28.3131 60.3699 29.6931C60.3699 31.0731 61.4799 32.1831 62.8599 32.1831H76.6799C81.7699 32.1831 85.9199 28.0431 85.9199 22.9431C85.9199 20.2831 84.7899 17.8831 82.9799 16.1931Z" fill="#00C0F3"/>
</svg>
