<svg width="112" height="44" viewBox="0 0 112 44" fill="none" xmlns="http://www.w3.org/2000/svg">
<path d="M3.2699 40.9231H3.7399V42.0031H3.74988L4.47989 40.9231H5.0199L4.1499 42.1231L5.0899 43.4731H4.5199L3.74988 42.2731H3.7399V43.4731H3.2699V40.9131V40.9231Z" fill="#58595B"/>
<path d="M6.00986 40.8828C6.53986 40.8828 7.02985 41.2828 7.02985 42.2028C7.02985 43.1228 6.53986 43.5128 6.00986 43.5128C5.47986 43.5128 4.98987 43.1128 4.98987 42.2028C4.98987 41.2928 5.47986 40.8828 6.00986 40.8828ZM6.00986 43.1528C6.30986 43.1528 6.53986 42.9028 6.53986 42.1928C6.53986 41.4828 6.29986 41.2328 6.00986 41.2328C5.71986 41.2328 5.47986 41.4828 5.47986 42.1928C5.47986 42.9028 5.71986 43.1528 6.00986 43.1528Z" fill="#58595B"/>
<path d="M7.44995 40.9231H8.24994C8.69994 40.9231 9.00995 41.1331 9.00995 41.5931C9.00995 41.9231 8.79996 42.1531 8.51996 42.1931C8.61996 42.2231 8.71996 42.2631 8.79996 42.5031L9.12994 43.4731H8.62994L8.37994 42.6431C8.31994 42.4431 8.19996 42.3731 8.01996 42.3731H7.90994V43.4731H7.43994V40.9131L7.44995 40.9231ZM8.10995 42.0331C8.35995 42.0331 8.52994 41.9031 8.52994 41.6431C8.52994 41.3531 8.37995 41.2731 8.10995 41.2731H7.91995V42.0331H8.10995Z" fill="#58595B"/>
<path d="M9.50989 40.9231H10.8499V41.2931H9.96988V41.9731H10.7999V42.3431H9.96988V43.1031H10.8799V43.4731H9.49988V40.9131L9.50989 40.9231Z" fill="#58595B"/>
<path d="M12.6198 42.8629H11.7398L11.5598 43.4828H11.0898L11.9498 40.9229H12.4598L13.2798 43.4828H12.7998L12.6198 42.8629ZM12.5198 42.5029L12.1998 41.3129L11.8498 42.5029H12.5298H12.5198Z" fill="#58595B"/>
<path d="M15.4399 40.8828C15.9699 40.8828 16.4599 41.2828 16.4599 42.2028C16.4599 43.1228 15.9699 43.5128 15.4399 43.5128C14.9099 43.5128 14.4199 43.1128 14.4199 42.2028C14.4199 41.2928 14.9099 40.8828 15.4399 40.8828ZM15.4399 43.1528C15.7399 43.1528 15.9799 42.9028 15.9799 42.1928C15.9799 41.4828 15.7399 41.2328 15.4399 41.2328C15.1399 41.2328 14.9099 41.4828 14.9099 42.1928C14.9099 42.9028 15.1499 43.1528 15.4399 43.1528Z" fill="#58595B"/>
<path d="M18.5299 43.4228C18.4299 43.4728 18.2099 43.5128 17.9799 43.5128C17.1999 43.5128 16.7999 42.9428 16.7999 42.2028C16.7999 41.4628 17.1999 40.8828 17.9599 40.8828C18.2199 40.8828 18.4299 40.9528 18.5299 40.9928L18.4999 41.4128C18.3999 41.3628 18.2499 41.2728 18.0199 41.2728C17.6299 41.2728 17.2999 41.5328 17.2999 42.2028C17.2999 42.8728 17.6299 43.1328 18.0199 43.1328C18.2499 43.1328 18.3999 43.0828 18.4999 43.0028L18.5299 43.4328V43.4228Z" fill="#58595B"/>
<path d="M20.5598 43.4228C20.4698 43.4728 20.2398 43.5128 20.0098 43.5128C19.2298 43.5128 18.8298 42.9428 18.8298 42.2028C18.8298 41.4628 19.2298 40.8828 19.9898 40.8828C20.2498 40.8828 20.4598 40.9528 20.5598 40.9928L20.5298 41.4128C20.4298 41.3628 20.2798 41.2728 20.0498 41.2728C19.6598 41.2728 19.3298 41.5328 19.3298 42.2028C19.3298 42.8728 19.6598 43.1328 20.0498 43.1328C20.2798 43.1328 20.4298 43.0828 20.5298 43.0028L20.5598 43.4328V43.4228Z" fill="#58595B"/>
<path d="M21.42 40.9229V42.5828C21.42 43.0028 21.5499 43.1429 21.8199 43.1429C22.0899 43.1429 22.2199 43.0028 22.2199 42.5828V40.9229H22.6899V42.5828C22.6899 43.2528 22.2999 43.5229 21.8199 43.5229C21.3399 43.5229 20.95 43.2628 20.95 42.5828V40.9229H21.42Z" fill="#58595B"/>
<path d="M23.1899 40.9229H23.92C24.45 40.9229 24.7199 41.2129 24.7199 41.7029C24.7199 42.1929 24.44 42.4828 23.92 42.4828H23.6599V43.4828H23.1899V40.9229ZM23.83 42.1228C24.12 42.1228 24.2499 41.9829 24.2499 41.7029C24.2499 41.4229 24.12 41.2829 23.83 41.2829H23.6599V42.1228H23.83Z" fill="#58595B"/>
<path d="M26.1198 42.8629H25.2398L25.0598 43.4828H24.5898L25.4498 40.9229H25.9598L26.7798 43.4828H26.2998L26.1198 42.8629ZM26.0198 42.5029L25.6998 41.3129L25.3498 42.5029H26.0298H26.0198Z" fill="#58595B"/>
<path d="M27.2499 41.2929H26.6799V40.9229H28.2899V41.2929H27.7199V43.4729H27.2499V41.2929Z" fill="#58595B"/>
<path d="M28.6399 40.9229H29.1099V43.4828H28.6399V40.9229Z" fill="#58595B"/>
<path d="M30.5699 40.8828C31.0999 40.8828 31.5899 41.2828 31.5899 42.2028C31.5899 43.1228 31.0999 43.5128 30.5699 43.5128C30.0399 43.5128 29.5499 43.1128 29.5499 42.2028C29.5499 41.2928 30.0399 40.8828 30.5699 40.8828ZM30.5699 43.1528C30.8699 43.1528 31.1099 42.9028 31.1099 42.1928C31.1099 41.4828 30.8699 41.2328 30.5699 41.2328C30.2699 41.2328 30.0399 41.4828 30.0399 42.1928C30.0399 42.9028 30.2799 43.1528 30.5699 43.1528Z" fill="#58595B"/>
<path d="M32.0199 40.9229H32.5799L33.4299 42.9329V40.9229H33.8599V43.4828H33.2999L32.4499 41.4929V43.4828H32.0299V40.9229H32.0199Z" fill="#58595B"/>
<path d="M35.6799 42.8629H34.7999L34.6199 43.4828H34.1499L35.0099 40.9229H35.5199L36.3399 43.4828H35.8599L35.6799 42.8629ZM35.5799 42.5029L35.2599 41.3129L34.9099 42.5029H35.5899H35.5799Z" fill="#58595B"/>
<path d="M36.6199 40.9231H37.0899V43.1031H37.9299V43.4731H36.6199V40.9131V40.9231Z" fill="#58595B"/>
<path d="M39.1799 42.9828C39.2699 43.0428 39.4698 43.1428 39.7198 43.1428C39.9298 43.1428 40.1099 43.0328 40.1099 42.7728C40.1099 42.5928 39.9998 42.5128 39.7798 42.3828L39.5399 42.2528C39.2899 42.1128 39.1199 41.9128 39.1199 41.5828C39.1199 41.1228 39.4999 40.8828 39.9299 40.8828C40.1999 40.8828 40.3899 40.9528 40.4599 40.9728L40.4398 41.3628C40.3298 41.3228 40.1799 41.2528 39.9599 41.2528C39.7299 41.2528 39.5999 41.3728 39.5999 41.5528C39.5999 41.7428 39.7299 41.8128 39.8699 41.8928L40.1399 42.0428C40.4399 42.2128 40.5799 42.3728 40.5799 42.7328C40.5799 43.2528 40.2098 43.5028 39.7198 43.5028C39.4598 43.5028 39.2699 43.4628 39.1399 43.3928L39.1699 42.9728L39.1799 42.9828Z" fill="#58595B"/>
<path d="M42.3299 42.8629H41.4499L41.2699 43.4828H40.7999L41.6599 40.9229H42.1699L42.9899 43.4828H42.5099L42.3299 42.8629ZM42.2299 42.5029L41.9099 41.3129L41.5599 42.5029H42.2399H42.2299Z" fill="#58595B"/>
<path d="M43.2899 40.9231H44.5799V41.2931H43.7599V41.9931H44.5499V42.3631H43.7599V43.4731H43.2899V40.9131V40.9231Z" fill="#58595B"/>
<path d="M44.9799 40.9231H46.3199V41.2931H45.4398V41.9731H46.2699V42.3431H45.4398V43.1031H46.3499V43.4731H44.9698V40.9131L44.9799 40.9231Z" fill="#58595B"/>
<path d="M47.1898 41.2929H46.6199V40.9229H48.2299V41.2929H47.6599V43.4729H47.1898V41.2929Z" fill="#58595B"/>
<path d="M49.0898 42.4529L48.3398 40.9229H48.8398L49.3398 41.9428L49.8098 40.9229H50.3098L49.5598 42.4629V43.4729H49.0898V42.4428V42.4529Z" fill="#58595B"/>
<path d="M52.9099 43.2428C52.7599 43.4028 52.62 43.5128 52.3 43.5128C51.72 43.5128 51.46 43.1628 51.46 42.7728C51.46 42.3228 51.7699 42.1128 51.9399 42.0328C51.8099 41.8728 51.67 41.7328 51.67 41.4628C51.67 41.2228 51.86 40.8828 52.37 40.8828C52.84 40.8828 53.02 41.1828 53.02 41.4428C53.02 41.7828 52.72 41.9928 52.55 42.1128L52.95 42.6328C53.06 42.4628 53.09 42.2328 53.09 42.0528H53.4999C53.4999 42.3128 53.42 42.7028 53.2 42.9628L53.5999 43.4728H53.0999L52.92 43.2428H52.9099ZM52.18 42.3028C52.04 42.3928 51.9099 42.5128 51.9099 42.7528C51.9099 43.0328 52.1399 43.1728 52.3099 43.1728C52.4799 43.1728 52.5999 43.0928 52.6899 42.9828L52.17 42.3128L52.18 42.3028ZM52.34 41.1728C52.18 41.1728 52.0599 41.2828 52.0599 41.4528C52.0599 41.6428 52.1999 41.7728 52.2899 41.8828C52.4299 41.7828 52.61 41.6428 52.61 41.4328C52.61 41.2728 52.49 41.1728 52.34 41.1728Z" fill="#58595B"/>
<path d="M54.8899 40.9229H55.3599V41.9629H56.1199V40.9229H56.5899V43.4828H56.1199V42.3529H55.3599V43.4828H54.8899V40.9229Z" fill="#58595B"/>
<path d="M57.1299 40.9231H58.4698V41.2931H57.5899V41.9731H58.4199V42.3431H57.5899V43.1031H58.4998V43.4731H57.1199V40.9131L57.1299 40.9231Z" fill="#58595B"/>
<path d="M60.24 42.8629H59.36L59.18 43.4828H58.71L59.5699 40.9229H60.08L60.9 43.4828H60.42L60.24 42.8629ZM60.14 42.5029L59.8199 41.3129L59.4699 42.5029H60.15H60.14Z" fill="#58595B"/>
<path d="M61.1699 40.9231H61.6399V43.1031H62.4799V43.4731H61.1699V40.9131V40.9231Z" fill="#58595B"/>
<path d="M62.8299 41.2929H62.2599V40.9229H63.8699V41.2929H63.2999V43.4729H62.8299V41.2929Z" fill="#58595B"/>
<path d="M64.2198 40.9229H64.6898V41.9629H65.4499V40.9229H65.9199V43.4828H65.4499V42.3529H64.6898V43.4828H64.2198V40.9229Z" fill="#58595B"/>
<path d="M68.49 42.8629H67.61L67.43 43.4828H66.96L67.8199 40.9229H68.33L69.15 43.4828H68.67L68.49 42.8629ZM68.39 42.5029L68.0699 41.3129L67.7199 42.5029H68.4H68.39Z" fill="#58595B"/>
<path d="M70.3699 42.0428H71.1999V43.3828C71.0699 43.4528 70.8399 43.5128 70.5099 43.5128C69.6899 43.5128 69.2499 42.9528 69.2499 42.2028C69.2499 41.4528 69.6899 40.8828 70.5099 40.8828C70.7999 40.8828 71.0299 40.9528 71.1299 40.9928L71.0999 41.4128C70.9499 41.3228 70.7499 41.2528 70.5099 41.2528C70.0099 41.2528 69.7399 41.6628 69.7399 42.1928C69.7399 42.7628 69.9999 43.1328 70.4799 43.1328C70.5899 43.1328 70.6899 43.1128 70.7499 43.0828V42.3928H70.3599V42.0328L70.3699 42.0428Z" fill="#58595B"/>
<path d="M71.7199 40.9231H73.0599V41.2931H72.18V41.9731H73.0099V42.3431H72.18V43.1031H73.09V43.4731H71.71V40.9131L71.7199 40.9231Z" fill="#58595B"/>
<path d="M73.5499 40.9229H74.1099L74.9599 42.9329V40.9229H75.3899V43.4828H74.8299L73.9799 41.4929V43.4828H73.5599V40.9229H73.5499Z" fill="#58595B"/>
<path d="M77.5498 43.4228C77.4598 43.4728 77.2298 43.5128 76.9998 43.5128C76.2198 43.5128 75.8198 42.9428 75.8198 42.2028C75.8198 41.4628 76.2198 40.8828 76.9798 40.8828C77.2398 40.8828 77.4498 40.9528 77.5498 40.9928L77.5198 41.4128C77.4198 41.3628 77.2698 41.2728 77.0398 41.2728C76.6498 41.2728 76.3198 41.5328 76.3198 42.2028C76.3198 42.8728 76.6498 43.1328 77.0398 43.1328C77.2698 43.1328 77.4198 43.0828 77.5198 43.0028L77.5498 43.4328V43.4228Z" fill="#58595B"/>
<path d="M78.4799 42.4529L77.7299 40.9229H78.2399L78.7399 41.9428L79.2099 40.9229H79.7198L78.9698 42.4629V43.4729H78.4998V42.4428L78.4799 42.4529Z" fill="#58595B"/>
<path d="M55.73 23.0723V24.6723H63.51V28.6823H60.68V26.0423H58.89V28.6823H54.48V30.2723H66.73V28.6823H65.3V23.0723H55.72H55.73ZM57.75 31.9123C57.14 32.5323 56.81 33.3223 56.81 34.1423C56.81 34.9623 57.12 35.7123 57.7 36.3123C58.42 37.0723 59.47 37.5123 60.58 37.5123C61.69 37.5123 62.69 37.0923 63.41 36.3723C64.02 35.7523 64.35 34.9623 64.35 34.1423C64.35 33.3223 64.01 32.5223 63.41 31.9123C62.69 31.1823 61.66 30.7723 60.58 30.7723C59.5 30.7723 58.47 31.1823 57.75 31.9123ZM58.56 34.1423C58.56 33.6523 58.77 33.1923 59.15 32.8423C59.53 32.4923 60.04 32.2923 60.58 32.2923C61.12 32.2923 61.63 32.4923 62.01 32.8423C62.39 33.1923 62.6 33.6523 62.6 34.1423C62.6 34.6323 62.39 35.0923 62.01 35.4423C61.63 35.7923 61.12 35.9923 60.58 35.9923C60.04 35.9923 59.53 35.8023 59.15 35.4423C58.77 35.0923 58.56 34.6323 58.56 34.1423Z" fill="#58595B"/>
<path d="M0.679932 26.5325C0.679932 27.4525 1.05993 28.3225 1.73993 28.9825C2.44993 29.6725 3.39991 30.0425 4.40991 30.0425C5.41991 30.0425 6.36993 29.6625 7.07993 28.9825C7.75993 28.3225 8.13992 27.4525 8.13992 26.5325C8.13992 25.6125 7.75993 24.7425 7.07993 24.0825C6.36993 23.3925 5.41991 23.0225 4.40991 23.0225C2.34991 23.0225 0.679932 24.6025 0.679932 26.5425V26.5325ZM3.09991 27.9525C2.68991 27.5925 2.44992 27.0725 2.44992 26.5325C2.44992 25.9925 2.68991 25.4725 3.09991 25.1025C3.45991 24.7925 3.92991 24.6125 4.40991 24.6125C4.88991 24.6125 5.35991 24.7825 5.71991 25.1025C6.13991 25.4625 6.36993 25.9825 6.36993 26.5325C6.36993 27.5825 5.48991 28.4425 4.40991 28.4425C3.91991 28.4425 3.45991 28.2725 3.09991 27.9525Z" fill="#58595B"/>
<path d="M9.95996 22.9326V32.1526H11.77V27.5526H13.5999V25.9326H11.77V22.9326H9.95996Z" fill="#58595B"/>
<path d="M3.44995 31.6621V35.3121C3.44995 36.1421 4.12995 36.8221 4.94995 36.8221H11.83V35.2021H5.23996V31.6721H3.43994L3.44995 31.6621Z" fill="#58595B"/>
<path fill-rule="evenodd" clip-rule="evenodd" d="M24.1199 22.9326V25.9726H21.5199V27.5626H24.1199V32.3226H25.9199V22.9426H24.1199V22.9326Z" fill="#58595B"/>
<path d="M17.4399 31.6621V35.3121C17.4399 36.1421 18.1099 36.8221 18.9399 36.8221H25.96V35.2021H19.24V31.6721H17.4399V31.6621Z" fill="#58595B"/>
<path d="M14.9799 23.2324V24.8424H17.5399V24.9824C17.5399 27.6024 15.8699 28.8524 14.4699 29.4324L14.4199 29.4524L15.3699 30.6624H15.3899C16.4499 30.2824 17.8199 29.3024 18.5399 27.9824C19.2599 29.3024 20.6299 30.2824 21.6899 30.6524H21.7199L22.6899 29.4524L22.6399 29.4324C21.2399 28.8524 19.5599 27.6024 19.5599 24.9824V24.8424H22.1199V23.2324H14.9599H14.9799Z" fill="#58595B"/>
<path d="M50.6399 22.9326V26.2626H48.1699V27.8126H50.6399V32.2826H52.4399V22.9326H50.6399Z" fill="#58595B"/>
<path d="M43.96 31.6621V35.3121C43.96 36.1421 44.6399 36.8221 45.4699 36.8221H52.49V35.2021H45.77V31.6721H43.9699L43.96 31.6621Z" fill="#58595B"/>
<path d="M41.8199 23.2227V24.7927H46.1299C45.9699 26.9527 44.0799 28.6627 41.1999 29.2627H41.1499L42.0799 30.6327H42.0999C46.2899 29.6127 48.2399 27.3727 48.2399 23.5627V23.2227H41.8199Z" fill="#58595B"/>
<path d="M76.9199 22.9326V32.0826H78.7199V27.5526H80.5499V25.9826H78.7199V22.9326H76.9199Z" fill="#58595B"/>
<path d="M70.4099 31.6621V35.3121C70.4099 36.1421 71.0899 36.8221 71.9199 36.8221H78.7999V35.2021H72.2099V31.6721H70.4099V31.6621Z" fill="#58595B"/>
<path d="M68.6599 23.2129V28.4629C68.6599 29.2929 69.3299 29.9729 70.1699 29.9729H75.6899V28.3929H70.4699V24.7829H75.5999V23.2129H68.6699H68.6599Z" fill="#58595B"/>
<path d="M36.7799 27.1526V29.3526H31.34V27.1526H36.7799ZM36.7799 23.1426V25.5826H31.34V23.1426H29.5399V29.4526C29.5399 30.2826 30.21 30.9626 31.05 30.9626H33.1599V33.6526H28.09V35.2526H40.05V33.6526H34.9799V30.9626H37.08C37.91 30.9626 38.59 30.2826 38.59 29.4526V23.1426H36.7899H36.7799Z" fill="#58595B"/>
<path d="M107.29 11.4525C106.79 11.3825 106.29 11.3525 105.78 11.3525C100.54 11.3525 91.24 20.4425 90.5 26.0025C91.21 21.1225 99.63 21.8625 100.96 21.8625H106.22C109.13 21.8625 111.48 19.5125 111.48 16.6025C111.48 14.0625 109.68 11.9425 107.29 11.4525Z" fill="url(#paint0_radial_214_4576)"/>
<path d="M90.4999 26.0023C90.4999 26.0023 90.4899 26.0823 90.4799 26.1223C90.4799 26.1523 90.4799 26.1923 90.4799 26.2223C90.4599 26.3823 90.45 26.5323 90.45 26.6823C90.45 27.1923 90.48 27.6923 90.55 28.1923C91.04 30.5823 93.16 32.3823 95.7 32.3823C98.6 32.3823 100.96 30.0223 100.96 27.1223V21.8623C99.63 21.8623 91.2099 21.1223 90.4999 26.0023Z" fill="url(#paint1_linear_214_4576)"/>
<path d="M84.1099 21.7531C84.6099 21.8231 85.1099 21.8531 85.6199 21.8531C90.8599 21.8531 100.16 12.7631 100.9 7.20312C100.19 12.0831 91.7699 11.3431 90.4399 11.3431H85.1799C82.2699 11.3431 79.9199 13.6931 79.9199 16.6031C79.9199 19.1431 81.7199 21.2631 84.1099 21.7531Z" fill="url(#paint2_radial_214_4576)"/>
<path d="M100.9 7.20301C100.9 7.20301 100.91 7.12301 100.92 7.09301C100.92 7.05301 100.92 7.02301 100.93 6.99301C100.94 6.83301 100.95 6.68301 100.95 6.53301C100.95 6.02301 100.92 5.52301 100.85 5.02301C100.36 2.63301 98.24 0.833008 95.7 0.833008C92.79 0.833008 90.4399 3.19301 90.4399 6.09301V11.353C91.7699 11.353 100.19 12.093 100.9 7.21301V7.20301Z" fill="url(#paint3_linear_214_4576)"/>
<path d="M4.35995 12.4727V13.3827C4.35995 14.5227 5.09995 15.2727 5.84995 15.4527C5.74995 15.5327 5.48996 15.7727 5.45996 15.7927C4.83996 15.7327 4.11995 15.2127 3.94995 14.7127L3.89996 14.5627L3.84995 14.7127C3.69995 15.1927 2.95995 15.7227 2.34995 15.7927C2.31995 15.7627 2.04995 15.5327 1.94995 15.4527C2.70995 15.2627 3.43994 14.5227 3.43994 13.3827V12.4727H4.34995H4.35995Z" fill="#58595B"/>
<path d="M4.18991 16.4531V17.9331H7.39993V18.4031H3.93991C3.54991 18.4031 3.28992 18.1531 3.28992 17.7831V16.4531H4.18991Z" fill="#58595B"/>
<path d="M7.17993 12.383V13.673H8.17993V14.143H7.17993V16.803H6.27991V12.373H7.17993V12.383Z" fill="#58595B"/>
<path d="M12.95 12.3828V13.5928H12V13.5528C11.81 12.8628 11.15 12.3828 10.37 12.3828C9.46 12.3828 8.72998 13.0528 8.72998 13.8828C8.72998 14.7128 9.47 15.3828 10.37 15.3828C11.2 15.3828 11.89 14.8328 12.01 14.0828V14.0428H12.95V15.4528H13.85V12.3828H12.95ZM10.37 14.9328C9.96 14.9328 9.62 14.4628 9.62 13.8928C9.62 13.3228 9.95 12.8528 10.37 12.8528C10.79 12.8528 11.12 13.3228 11.12 13.8928C11.12 14.4628 10.78 14.9328 10.37 14.9328Z" fill="#58595B"/>
<path d="M12.8799 15.9531V16.6831H10.71V15.9531H9.80994V17.7931C9.80994 18.1631 10.07 18.4131 10.46 18.4131H13.77V15.9631H12.87L12.8799 15.9531ZM12.8799 17.9331H10.71V17.1531H12.8799V17.9331Z" fill="#58595B"/>
<path d="M19.4899 12.3828V14.0428H18.8799V12.3828H18.0399V18.4128H18.8799V14.5128H19.4899V18.4128H20.3299V12.3828H19.4899ZM16.7899 13.7328V13.0428H17.5999V12.5828H15.0399V13.0428H15.9099V13.7328C15.9099 14.8628 15.4099 15.7428 14.6699 15.9828C14.7499 16.0528 15.0199 16.2728 15.0499 16.3028C15.5799 16.2128 16.2099 15.5928 16.3599 15.1028C16.5199 15.6028 17.1399 16.2228 17.6599 16.3028C17.6999 16.2728 17.9999 16.0128 18.0299 15.9928C18.0099 15.9928 17.9799 15.9728 17.9799 15.9728C17.2699 15.7028 16.7999 14.7928 16.7999 13.7328H16.7899Z" fill="#58595B"/>
<path d="M24.2199 13.0728H23.2399V12.3428H22.3599V13.0728H21.3899V13.5228H22.2599L22.0799 13.6128C21.6499 13.8428 21.3899 14.2628 21.3899 14.7328C21.3899 15.4528 22.0299 16.0628 22.7999 16.0628C23.5699 16.0628 24.2099 15.4628 24.2099 14.7328C24.2099 14.2728 23.9399 13.8428 23.5199 13.6128L23.3499 13.5228H24.2199V13.0728ZM23.4099 14.7428C23.4099 15.2328 23.1399 15.6328 22.7999 15.6328C22.4599 15.6328 22.1899 15.2228 22.1899 14.7428C22.1899 14.2628 22.4699 13.8528 22.7999 13.8528C23.1299 13.8528 23.4099 14.2528 23.4099 14.7428Z" fill="#58595B"/>
<path d="M26.7498 12.3828V18.4128H25.9098V14.5128H25.3998V18.4128H24.5598V12.3828H25.3998V14.0428H25.9098V12.3828H26.7498Z" fill="#58595B"/>
<path d="M31.0199 12.383V13.143H30.1899V13.123C29.8899 12.793 29.4799 12.603 29.0599 12.603C28.2199 12.603 27.5399 13.303 27.5399 14.163C27.5399 15.023 28.2199 15.713 29.0599 15.713C29.4699 15.713 29.8699 15.533 30.1599 15.223L30.1799 15.203H31.0299V18.403H31.8599V12.373H31.0299L31.0199 12.383ZM29.0599 15.253C28.6599 15.253 28.3699 14.793 28.3699 14.163C28.3699 13.533 28.6699 13.073 29.0599 13.073C29.4499 13.073 29.7399 13.543 29.7399 14.163C29.7399 14.783 29.4499 15.253 29.0599 15.253ZM31.0199 14.743H30.4699L30.4899 14.673C30.5399 14.503 30.5699 14.343 30.5699 14.163C30.5699 13.983 30.5399 13.823 30.4899 13.673L30.4699 13.603H31.0299V14.733L31.0199 14.743Z" fill="#58595B"/>
<path d="M33.0999 12.3828V18.4128H32.2699V12.3828H33.0999Z" fill="#58595B"/>
<path d="M36.37 12.5625V13.4625H35.15V12.5625H34.25V14.8525C34.25 15.2225 34.5 15.4625 34.9 15.4625H37.28V12.5625H36.38H36.37ZM36.37 14.9925H35.15V13.9125H36.37V14.9925Z" fill="#58595B"/>
<path d="M37.26 15.9023C36.38 15.9023 35.66 16.5223 35.66 17.2823C35.66 18.0423 36.36 18.6523 37.26 18.6523C38.16 18.6523 38.85 18.0423 38.85 17.2823C38.85 16.5223 38.14 15.9023 37.26 15.9023ZM37.26 18.1723C36.88 18.1723 36.54 17.7523 36.54 17.2823C36.54 16.8123 36.87 16.3723 37.26 16.3723C37.65 16.3723 37.97 16.8023 37.97 17.2823C37.97 17.7623 37.63 18.1723 37.26 18.1723Z" fill="#58595B"/>
<path d="M39 12.3926V13.5426H40V14.0126H39V15.7626H38.1V12.4026H39V12.3926Z" fill="#58595B"/>
<defs>
<radialGradient id="paint0_radial_214_4576" cx="0" cy="0" r="1" gradientUnits="userSpaceOnUse" gradientTransform="translate(109.39 15.9525) rotate(180) scale(21.39 21.39)">
<stop stop-color="#D7DF22"/>
<stop offset="0.6" stop-color="#71BF44"/>
</radialGradient>
<linearGradient id="paint1_linear_214_4576" x1="95.71" y1="32.3823" x2="95.71" y2="22.0723" gradientUnits="userSpaceOnUse">
<stop offset="0.5" stop-color="#00AEEF"/>
<stop offset="0.66" stop-color="#00A0DC"/>
<stop offset="0.98" stop-color="#007EAC"/>
<stop offset="1" stop-color="#007CAA"/>
</linearGradient>
<radialGradient id="paint2_radial_214_4576" cx="0" cy="0" r="1" gradientUnits="userSpaceOnUse" gradientTransform="translate(82.0099 17.2531) scale(21.39 21.39)">
<stop stop-color="#D7DF22"/>
<stop offset="0.6" stop-color="#71BF44"/>
</radialGradient>
<linearGradient id="paint3_linear_214_4576" x1="95.6999" y1="0.823008" x2="95.6999" y2="11.133" gradientUnits="userSpaceOnUse">
<stop offset="0.5" stop-color="#00AEEF"/>
<stop offset="0.66" stop-color="#00A0DC"/>
<stop offset="0.98" stop-color="#007EAC"/>
<stop offset="1" stop-color="#007CAA"/>
</linearGradient>
</defs>
</svg>
