<svg width="102" height="49" viewBox="0 0 102 49" fill="none" xmlns="http://www.w3.org/2000/svg">
<path d="M0 46.2915H0.402827V47.2314H0.414019L1.04624 46.2915H1.5106L0.760895 47.3377L1.57214 48.5071H1.0798L0.414019 47.4664H0.402827V48.5071H0V46.2915Z" fill="#595757"/>
<path d="M2.37253 46.2581C2.8313 46.2581 3.25651 46.5994 3.25651 47.3938C3.25651 48.1883 2.8369 48.5295 2.37253 48.5295C1.90816 48.5295 1.49414 48.1883 1.49414 47.3938C1.49414 46.5994 1.91376 46.2581 2.37253 46.2581ZM2.37253 48.2218C2.62989 48.2218 2.8369 48.0037 2.8369 47.3938C2.8369 46.784 2.62989 46.5658 2.37253 46.5658C2.11517 46.5658 1.90816 46.784 1.90816 47.3938C1.90816 48.0037 2.11517 48.2218 2.37253 48.2218Z" fill="#595757"/>
<path d="M3.62012 46.2915H4.30828C4.69991 46.2915 4.96847 46.4705 4.96847 46.8734C4.96847 47.1643 4.78944 47.3545 4.54327 47.3937V47.4049C4.62719 47.4161 4.7167 47.4552 4.78943 47.6622L5.08036 48.5071H4.64956L4.43136 47.7853C4.37541 47.6119 4.27472 47.5559 4.12366 47.5559H4.03414V48.5071H3.63131V46.2915H3.62012ZM4.1852 47.2538C4.4034 47.2538 4.54886 47.1419 4.54886 46.9181C4.54886 46.6664 4.41459 46.5992 4.1852 46.5992H4.02294V47.2538H4.1852Z" fill="#595757"/>
<path d="M5.39941 46.2915H6.56314V46.616H5.80224V47.2035H6.51838V47.528H5.80224V48.1826H6.5911V48.5071H5.39941V46.2915Z" fill="#595757"/>
<path d="M8.08965 47.9697H7.32875L7.1721 48.5012H6.76367L7.50778 46.2856H7.94978L8.66032 48.5012H8.24071L8.08405 47.9697H8.08965ZM8.00572 47.6564L7.72598 46.6214H7.72039L7.41827 47.6564H8.00572Z" fill="#595757"/>
<path d="M10.5363 46.2581C10.9951 46.2581 11.4147 46.5994 11.4147 47.3938C11.4147 48.1883 10.9951 48.5295 10.5363 48.5295C10.0776 48.5295 9.65234 48.1883 9.65234 47.3938C9.65234 46.5994 10.072 46.2581 10.5363 46.2581ZM10.5363 48.2218C10.7937 48.2218 11.0007 48.0037 11.0007 47.3938C11.0007 46.784 10.7937 46.5658 10.5363 46.5658C10.279 46.5658 10.072 46.784 10.072 47.3938C10.072 48.0037 10.279 48.2218 10.5363 48.2218Z" fill="#595757"/>
<path d="M13.2038 48.4568C13.1199 48.5016 12.924 48.5352 12.7282 48.5352C12.0568 48.5352 11.71 48.0428 11.71 47.3994C11.71 46.756 12.0568 46.2637 12.717 46.2637C12.9408 46.2637 13.1255 46.3252 13.2094 46.3532L13.187 46.7169C13.1031 46.6777 12.9744 46.5993 12.7674 46.5993C12.4317 46.5993 12.1408 46.8287 12.1408 47.3994C12.1408 47.9701 12.4317 48.1995 12.7674 48.1995C12.9632 48.1995 13.0919 48.1547 13.187 48.0876L13.2094 48.4568H13.2038Z" fill="#595757"/>
<path d="M14.9672 48.4568C14.8833 48.5016 14.6874 48.5352 14.486 48.5352C13.8147 48.5352 13.4678 48.0428 13.4678 47.3994C13.4678 46.756 13.8147 46.2637 14.4692 46.2637C14.693 46.2637 14.8777 46.3252 14.9616 46.3532L14.9392 46.7169C14.8553 46.6777 14.7266 46.5993 14.5196 46.5993C14.1839 46.5993 13.893 46.8287 13.893 47.3994C13.893 47.9701 14.1839 48.1995 14.5196 48.1995C14.7154 48.1995 14.8441 48.1547 14.9392 48.0876L14.9616 48.4568H14.9672Z" fill="#595757"/>
<path d="M15.7095 46.2915V47.7238C15.7095 48.093 15.8214 48.2105 16.0563 48.2105C16.2913 48.2105 16.4032 48.0874 16.4032 47.7238V46.2915H16.8116V47.7238C16.8116 48.3056 16.4759 48.535 16.0619 48.535C15.6479 48.535 15.3066 48.3056 15.3066 47.7238V46.2915H15.7151H15.7095Z" fill="#595757"/>
<path d="M17.2373 46.2915H17.8695C18.3283 46.2915 18.5633 46.5489 18.5633 46.9629C18.5633 47.3769 18.3283 47.6399 17.8695 47.6399H17.6401V48.5071H17.2373V46.2915ZM17.7968 47.3265C18.0486 47.3265 18.1604 47.2035 18.1604 46.9629C18.1604 46.7223 18.0486 46.6048 17.7968 46.6048H17.6457V47.3321H17.7968V47.3265Z" fill="#595757"/>
<path d="M19.7723 47.9697H19.0114L18.8547 48.5012H18.4463L19.1904 46.2856H19.6324L20.3485 48.5012H19.9289L19.7723 47.9697ZM19.6883 47.6564L19.4086 46.6214H19.403L19.1009 47.6564H19.6939H19.6883Z" fill="#595757"/>
<path d="M20.757 46.6102H20.2646V46.2856H21.6578V46.6102H21.1654V48.5012H20.757V46.6102Z" fill="#595757"/>
<path d="M21.9541 46.2915H22.3569V48.5071H21.9541V46.2915Z" fill="#595757"/>
<path d="M23.6272 46.2581C24.0859 46.2581 24.5055 46.5994 24.5055 47.3938C24.5055 48.1883 24.0859 48.5295 23.6272 48.5295C23.1684 48.5295 22.7432 48.1883 22.7432 47.3938C22.7432 46.5994 23.1628 46.2581 23.6272 46.2581ZM23.6272 48.2218C23.8845 48.2218 24.0915 48.0037 24.0915 47.3938C24.0915 46.784 23.8845 46.5658 23.6272 46.5658C23.3698 46.5658 23.1628 46.784 23.1628 47.3938C23.1628 48.0037 23.3698 48.2218 23.6272 48.2218Z" fill="#595757"/>
<path d="M24.8855 46.2915H25.3666L26.1051 48.0315V46.2915H26.4744V48.5071H25.9877L25.2547 46.7838H25.2491V48.5071H24.8799V46.2915H24.8855Z" fill="#595757"/>
<path d="M28.0525 47.9697H27.2916L27.135 48.5012H26.7266L27.4707 46.2856H27.9127L28.6288 48.5012H28.2092L28.0525 47.9697ZM27.963 47.6564L27.6833 46.6214H27.6777L27.3756 47.6564H27.963Z" fill="#595757"/>
<path d="M28.8581 46.2915H29.261V48.1826H29.9883V48.5071H28.8525V46.2915H28.8581Z" fill="#595757"/>
<path d="M31.0794 48.0764C31.1577 48.1267 31.3312 48.2106 31.5494 48.2106C31.7284 48.2106 31.885 48.1099 31.885 47.8917C31.885 47.7295 31.7955 47.6624 31.5941 47.5561L31.3871 47.4442C31.1689 47.3267 31.0234 47.1476 31.0234 46.8623C31.0234 46.4651 31.3479 46.2581 31.7228 46.2581C31.9578 46.2581 32.12 46.3196 32.1872 46.3364L32.1704 46.6721C32.0697 46.6329 31.941 46.577 31.7564 46.577C31.5549 46.577 31.4486 46.6833 31.4486 46.8343C31.4486 46.9966 31.5605 47.0637 31.6836 47.1308L31.9242 47.2651C32.1816 47.4106 32.3046 47.5505 32.3046 47.8638C32.3046 48.3113 31.9857 48.5295 31.5605 48.5295C31.3367 48.5295 31.1689 48.496 31.057 48.4344L31.0794 48.0708V48.0764Z" fill="#595757"/>
<path d="M33.8038 47.9697H33.0429L32.8862 48.5012H32.4834L33.2275 46.2856H33.6695L34.38 48.5012H33.9604L33.8038 47.9697ZM33.7198 47.6564L33.4401 46.6214H33.4345L33.1324 47.6564H33.7198Z" fill="#595757"/>
<path d="M34.6328 46.2915H35.7518V46.616H35.0412V47.2203H35.7238V47.5447H35.0412V48.5071H34.6384V46.2915H34.6328Z" fill="#595757"/>
<path d="M36.0977 46.2915H37.2614V46.616H36.5061V47.2035H37.2222V47.528H36.5061V48.1826H37.295V48.5071H36.0977V46.2915Z" fill="#595757"/>
<path d="M38.0109 46.6102H37.5186V46.2856H38.9117V46.6102H38.4193V48.5012H38.0109V46.6102Z" fill="#595757"/>
<path d="M39.6507 47.6116L38.9961 46.2856H39.4325L39.8633 47.1696L40.2661 46.2856H40.7025L40.0479 47.6228V48.5012H39.6395V47.6116H39.6507Z" fill="#595757"/>
<path d="M42.9629 48.3002C42.8287 48.4345 42.7168 48.5351 42.4314 48.5351C41.9335 48.5351 41.7041 48.233 41.7041 47.8917C41.7041 47.5057 41.9726 47.3211 42.1181 47.2539C42.0062 47.1197 41.8831 46.991 41.8831 46.7616C41.8831 46.5546 42.0454 46.2581 42.4874 46.2581C42.8958 46.2581 43.0469 46.5154 43.0469 46.7392C43.0469 47.0357 42.7895 47.2204 42.6384 47.3211L42.9853 47.7743C43.0804 47.6288 43.1028 47.4274 43.1028 47.2707H43.4553C43.4553 47.5001 43.3825 47.8302 43.1923 48.0596L43.5392 48.5016H43.1084L42.9517 48.3002H42.9629ZM42.3307 47.4833C42.2132 47.5616 42.1013 47.668 42.1013 47.875C42.1013 48.1155 42.3027 48.2386 42.4482 48.2386C42.5937 48.2386 42.7 48.1659 42.7783 48.0708L42.3307 47.4889V47.4833ZM42.4706 46.5042C42.3363 46.5042 42.2244 46.5993 42.2244 46.7448C42.2244 46.9071 42.3419 47.0246 42.4258 47.1141C42.5489 47.0302 42.7056 46.9071 42.7056 46.7224C42.7056 46.5826 42.6049 46.4986 42.4706 46.4986V46.5042Z" fill="#595757"/>
<path d="M44.6689 46.2915H45.0718V47.1923H45.7264V46.2915H46.1292V48.5071H45.7264V47.5336H45.0718V48.5071H44.6689V46.2915Z" fill="#595757"/>
<path d="M46.6104 46.2915H47.7741V46.616H47.0188V47.2035H47.7349V47.528H47.0188V48.1826H47.8076V48.5071H46.6104V46.2915Z" fill="#595757"/>
<path d="M49.3018 47.9697H48.5409L48.3843 48.5012H47.9814L48.7255 46.2856H49.1675L49.8837 48.5012H49.4641L49.3074 47.9697H49.3018ZM49.2179 47.6564L48.9382 46.6214H48.9326L48.6304 47.6564H49.2179Z" fill="#595757"/>
<path d="M50.1071 46.2915H50.51V48.1826H51.2373V48.5071H50.1016V46.2915H50.1071Z" fill="#595757"/>
<path d="M51.5451 46.6102H51.0527V46.2856H52.4458V46.6102H51.9535V48.5012H51.5451V46.6102Z" fill="#595757"/>
<path d="M52.7422 46.2915H53.1506V47.1923H53.8052V46.2915H54.2136V48.5071H53.8052V47.5336H53.1506V48.5071H52.7422V46.2915Z" fill="#595757"/>
<path d="M56.4395 47.9697H55.6786L55.522 48.5012H55.1191L55.8633 46.2856H56.3053L57.0214 48.5012H56.6018L56.4451 47.9697H56.4395ZM56.35 47.6564L56.0703 46.6214H56.0647L55.7626 47.6564H56.35Z" fill="#595757"/>
<path d="M58.0685 47.2651H58.7846V48.4233C58.6727 48.4848 58.4769 48.5352 58.186 48.5352C57.4754 48.5352 57.1006 48.054 57.1006 47.3994C57.1006 46.7448 57.4754 46.2637 58.186 46.2637C58.4377 46.2637 58.6392 46.3196 58.7231 46.3588L58.7007 46.7225C58.572 46.6441 58.393 46.5882 58.1916 46.5882C57.7608 46.5882 57.5314 46.9406 57.5314 47.405C57.5314 47.9029 57.7552 48.2219 58.1692 48.2219C58.2643 48.2219 58.3482 48.2051 58.4042 48.1771V47.584H58.0685V47.2763V47.2651Z" fill="#595757"/>
<path d="M59.2439 46.2915H60.4076V46.616H59.6467V47.2035H60.3628V47.528H59.6467V48.1826H60.4356V48.5071H59.2383V46.2915H59.2439Z" fill="#595757"/>
<path d="M60.8271 46.2915H61.3083L62.0468 48.0315V46.2915H62.4161V48.5071H61.9293L61.1964 46.7838H61.1908V48.5071H60.8271V46.2915Z" fill="#595757"/>
<path d="M64.2904 48.4568C64.2065 48.5016 64.0107 48.5352 63.8093 48.5352C63.1379 48.5352 62.791 48.0428 62.791 47.3994C62.791 46.756 63.1379 46.2637 63.7925 46.2637C64.0163 46.2637 64.2009 46.3252 64.2848 46.3532L64.2625 46.7169C64.1785 46.6777 64.0499 46.5993 63.8428 46.5993C63.5072 46.5993 63.2162 46.8287 63.2162 47.3994C63.2162 47.9701 63.5072 48.1995 63.8428 48.1995C64.0387 48.1995 64.1673 48.1547 64.2625 48.0876L64.2848 48.4568H64.2904Z" fill="#595757"/>
<path d="M65.0853 47.6116L64.4307 46.2856H64.8671L65.2979 47.1696L65.7007 46.2856H66.1371L65.4825 47.6228V48.5012H65.0741V47.6116H65.0853Z" fill="#595757"/>
<path d="M96.6006 12.7449C96.0075 12.6666 95.3977 12.6218 94.7878 12.6218C88.5049 12.6218 77.3488 23.5261 76.4648 30.1951C77.3153 24.3429 87.4083 25.2269 89.0084 25.2269H95.3193C98.8049 25.2269 101.625 22.4016 101.625 18.9216C101.625 15.8724 99.4707 13.3324 96.6006 12.7449Z" fill="url(#paint0_radial_1185_13484)"/>
<path d="M76.4639 30.1949C76.4583 30.2397 76.4471 30.2901 76.4415 30.3348C76.4415 30.374 76.4359 30.4188 76.4303 30.4579C76.4135 30.6425 76.4023 30.8328 76.4023 31.0118C76.4023 31.6216 76.4415 32.2259 76.5198 32.8189C77.1129 35.689 79.6529 37.8431 82.6965 37.8431C86.1821 37.8431 89.0019 35.0177 89.0019 31.5377V25.2267C87.4018 25.2267 77.3143 24.3372 76.4583 30.1949H76.4639Z" fill="url(#paint1_linear_1185_13484)"/>
<path d="M68.7995 25.0982C69.3926 25.1765 70.0024 25.2213 70.6122 25.2213C76.8952 25.2213 88.0513 14.317 88.9353 7.64795C88.0848 13.5001 77.9918 12.6161 76.3917 12.6161H70.0808C66.5952 12.6161 63.7754 15.4415 63.7754 18.9215C63.7754 21.9651 65.9294 24.5051 68.7995 25.0982Z" fill="url(#paint2_radial_1185_13484)"/>
<path d="M88.9352 7.6481C88.9408 7.60334 88.9519 7.55298 88.9575 7.50823C88.9575 7.46906 88.9631 7.42432 88.9687 7.38516C88.9855 7.20053 88.9967 7.01031 88.9967 6.83128C88.9967 6.22144 88.9575 5.61718 88.8792 5.02413C88.2862 2.15399 85.7461 0 82.7025 0C79.217 0 76.3916 2.82539 76.3916 6.30536V12.6163C77.9917 12.6163 88.0792 13.5003 88.9352 7.6481Z" fill="url(#paint3_linear_1185_13484)"/>
<path d="M3.15112 27.0732V42.5037H0.00683594V27.0732H3.15112ZM10.9503 27.0732L6.35135 34.3968L11.3587 42.5037H7.76684L3.2854 34.3968L7.64375 27.0732H10.9559H10.9503Z" fill="#595757"/>
<path d="M18.7817 26.7988C14.7143 26.7988 12.2861 29.7864 12.2861 34.7882C12.2861 39.79 14.7143 42.7832 18.7817 42.7832C22.8491 42.7832 25.2997 39.7956 25.2997 34.7882C25.2997 29.7808 22.8659 26.7988 18.7817 26.7988ZM18.7817 40.6907C16.6501 40.6907 15.5199 38.6486 15.5199 34.7882C15.5199 30.9278 16.6501 28.8857 18.7817 28.8857C20.9133 28.8857 22.0659 30.9837 22.0659 34.7882C22.0659 38.5927 20.9021 40.6907 18.7817 40.6907Z" fill="#595757"/>
<path d="M33.234 38.3801C33.234 36.8527 31.9528 36.31 30.5932 35.7281C28.7805 34.956 26.9062 34.156 26.9062 31.0621C26.9062 30.6257 27.0573 26.7988 32.1654 26.7988C33.413 26.7988 34.269 26.989 35.3544 27.2296C35.3544 27.2296 35.4887 27.2576 35.6118 27.2856C35.595 27.6101 35.4887 29.5626 35.4887 29.5794C34.5376 29.1654 33.4634 28.8857 32.6018 28.8857C31.0856 28.8857 30.1456 29.6746 30.1456 30.9502C30.1456 32.3768 31.3933 32.9139 32.7193 33.4846C34.5656 34.2791 36.4734 35.1015 36.4734 38.2178C36.4734 40.9481 34.3418 42.7832 31.1695 42.7832C29.9107 42.7832 28.5343 42.5706 27.1748 42.1846C27.1972 41.8824 27.3035 40.2208 27.3371 39.7508C27.4546 39.7956 27.572 39.8459 27.572 39.8459C28.512 40.2375 29.3848 40.5956 30.5709 40.5956C31.8968 40.5956 33.234 39.9074 33.234 38.3745V38.3801Z" fill="#595757"/>
<path d="M50.2536 27.0732V42.5037H47.1093V35.8347H42.404V42.5037H39.2598V27.0732H42.404V33.4681H47.1093V27.0732H50.2536Z" fill="#595757"/>
<path d="M61.1905 27.0732H57.0559C56.9552 27.3754 52.2835 41.9386 52.1045 42.5037H55.2432C55.3271 42.2016 56.2726 38.9174 56.2726 38.9174H61.9737C61.9737 38.9174 62.9193 42.2016 63.0032 42.5037H66.1419C65.9628 41.9386 61.2856 27.3754 61.1905 27.0732ZM56.8657 36.825L58.9581 29.5741H59.2938L61.3863 36.825H56.8657Z" fill="#595757"/>
<defs>
<radialGradient id="paint0_radial_1185_13484" cx="0" cy="0" r="1" gradientUnits="userSpaceOnUse" gradientTransform="translate(99.1126 18.1383) rotate(-180) scale(25.6522 25.6522)">
<stop stop-color="#DAE000"/>
<stop offset="0.6" stop-color="#6FBA2C"/>
</radialGradient>
<linearGradient id="paint1_linear_1185_13484" x1="82.7077" y1="37.8431" x2="82.7077" y2="25.4785" gradientUnits="userSpaceOnUse">
<stop offset="0.5" stop-color="#00A0E9"/>
<stop offset="0.67" stop-color="#0093D6"/>
<stop offset="1" stop-color="#0076A9"/>
</linearGradient>
<radialGradient id="paint2_radial_1185_13484" cx="0" cy="0" r="1" gradientUnits="userSpaceOnUse" gradientTransform="translate(66.2875 19.6992) scale(25.6522 25.6522)">
<stop stop-color="#DAE000"/>
<stop offset="0.6" stop-color="#6FBA2C"/>
</radialGradient>
<linearGradient id="paint3_linear_1185_13484" x1="82.697" y1="-0.00559481" x2="82.697" y2="12.3589" gradientUnits="userSpaceOnUse">
<stop offset="0.5" stop-color="#00A0E9"/>
<stop offset="0.67" stop-color="#0093D6"/>
<stop offset="1" stop-color="#0076A9"/>
</linearGradient>
</defs>
</svg>
