<svg width="12" height="12" viewBox="0 0 12 12" fill="none" xmlns="http://www.w3.org/2000/svg">
<path d="M0.879508 5.25C0.465297 5.25129 0.130554 5.58812 0.13184 6.00233C0.133125 6.41654 0.469952 6.75128 0.884163 6.75L0.881836 6L0.879508 5.25ZM11.1648 6.49842C11.4568 6.20462 11.4553 5.72975 11.1615 5.43777L6.37373 0.67963C6.07993 0.387647 5.60506 0.389121 5.31308 0.682922C5.0211 0.976723 5.02257 1.45159 5.31637 1.74358L9.57216 5.97303L5.3427 10.2288C5.05072 10.5226 5.05219 10.9975 5.346 11.2895C5.6398 11.5815 6.11467 11.58 6.40665 11.2862L11.1648 6.49842ZM0.881836 6L0.884163 6.75L10.6351 6.71974L10.6328 5.96974L10.6305 5.21974L0.879508 5.25L0.881836 6Z" fill="white"/>
</svg>
