<svg width="142" height="61" viewBox="0 0 142 61" fill="none" xmlns="http://www.w3.org/2000/svg">
<g clip-path="url(#clip0_214_4486)">
<path fill-rule="evenodd" clip-rule="evenodd" d="M92.1924 22.8075C93.0208 22.4595 92.9802 21.7636 91.9082 21.7139C86.3451 21.4239 78.5731 24.3733 74.2038 29.0044C74.8292 25.2431 78.1183 21.018 82.6093 18.6403C83.3565 18.2509 82.9667 17.7041 82.6093 17.7041C82.4631 17.7041 82.2926 17.729 82.0814 17.7952C77.5498 19.2948 69.7534 26.1379 70.2488 30.8519C70.3625 31.9869 72.2141 32.8733 74.5449 31.3738C76.8676 29.866 78.1832 27.8362 83.5676 25.1769C87.6932 23.1388 91.8351 22.9566 92.1924 22.7992V22.8075Z" fill="#221E1F"/>
<path d="M109.369 24.7709C108.841 24.8703 102.295 27.5545 96.4885 29.2695C94.3202 29.9157 90.5275 30.5536 87.8638 30.1974C85.5411 29.8908 84.3067 28.4576 83.9981 26.9249C83.8275 26.1047 81.3587 26.9498 81.716 28.7972C82.3738 32.2437 88.5622 32.3928 91.1935 32.02C94.5476 31.5478 97.7961 30.363 100.988 29.2529C104.244 28.1262 107.452 26.8752 110.481 25.1934C110.823 25.0029 110.262 24.6052 109.369 24.7626V24.7709Z" fill="#221E1F"/>
<path fill-rule="evenodd" clip-rule="evenodd" d="M89.821 10.8281L89.7235 10.6045H89.4961C76.8757 12.7419 63.7518 22.7581 63.4432 22.9155C64.84 15.9812 78.2563 2.56833 78.4188 2.32807C78.8248 1.73157 78.9223 1.15993 78.6949 0.712561C78.4675 0.265189 77.9396 -0.0661978 77.2087 0.0166489C64.6857 1.5576 38.4703 13.7195 30.9744 31.4321C29.1553 35.7318 35.2219 34.0749 36.4319 32.4511C43.9359 22.4101 56.7188 11.3584 66.245 9.80084C59.1795 17.7127 56.6782 26.0057 56.2559 29.4272C55.9798 31.6392 57.9451 32.8985 61.3479 30.3551C61.7052 30.09 68.0398 22.9983 75.7225 18.0772C82.5362 13.7112 89.4068 11.4329 89.6423 11.2507L89.8697 11.0601L89.7966 10.8364L89.821 10.8281Z" fill="#EC1B23"/>
<path d="M0 52.1765C0 49.1361 0.820246 46.6341 2.23334 44.2812L3.61395 44.8777C2.35516 47.1063 1.78667 49.6911 1.78667 52.1765C1.78667 54.6619 2.35516 57.2633 3.61395 59.4919L2.23334 60.0884C0.828367 57.719 0 55.2501 0 52.1765Z" fill="#221E1F"/>
<path d="M17.4932 53.6267H12.2062V58.349H10.2328V53.6267H5.03517V52.0195H17.4932V53.6267ZM5.62802 49.6418C8.43797 49.2938 9.90792 47.9186 10.1028 46.5765H6.13966V44.9775H16.3643V46.5765H12.458C12.6529 47.9186 14.1066 49.2938 16.9003 49.6418L16.1938 51.2159C13.7818 50.8762 12.0925 49.8241 11.2723 48.3908C10.452 49.8241 8.7547 50.8762 6.35081 51.2159L5.63614 49.6418H5.62802Z" fill="#221E1F"/>
<path d="M18.9306 59.4919C20.1894 57.2633 20.7579 54.6951 20.7579 52.1765C20.7579 49.658 20.1894 47.1063 18.9306 44.8777L20.295 44.2812C21.7162 46.6341 22.5446 49.1361 22.5446 52.1765C22.5446 55.217 21.7243 57.719 20.295 60.0884L18.9306 59.4919Z" fill="#221E1F"/>
<path d="M27.6366 54.7119C29.1634 54.6787 30.5846 54.5627 32.1439 54.2645L32.4363 56.3274C30.4141 56.7582 28.5705 56.8327 26.4347 56.8327H25.2571V45.3171H27.6366V54.7119ZM33.289 43.9501H35.5548V60.1963H33.289V51.1246H29.9593V49.1114H33.289V43.9418V43.9501ZM39.185 43.6436V60.9419H36.8867V43.6436H39.185Z" fill="#221E1F"/>
<path d="M56.8975 56.9649V58.978H41.5402V56.9649H56.8975ZM55.257 54.5374H43.3431V44.9189H55.127V46.9073H45.812V48.7299H54.7453V50.6437H45.812V52.5823H55.257V54.5374Z" fill="#221E1F"/>
<path d="M68.5596 53.7338C67.0653 54.0155 65.5791 54.1646 64.101 54.2806V60.461H61.6727V54.4132C60.2921 54.4711 58.9684 54.4711 57.7827 54.4711L57.5065 52.458C60.6576 52.458 64.7994 52.4414 68.4053 51.936L68.5514 53.7421L68.5596 53.7338ZM58.6841 47.9263C58.6841 45.8385 60.487 44.3721 62.9965 44.3721C65.506 44.3721 67.2845 45.8385 67.2845 47.9263C67.2845 50.014 65.4816 51.4804 62.9965 51.4804C60.5114 51.4804 58.6841 50.0306 58.6841 47.9263ZM60.95 47.9263C60.95 48.995 61.7946 49.5998 62.9965 49.5998C64.1985 49.5998 65.0025 48.995 65.0025 47.9263C65.0025 46.8575 64.1903 46.2528 62.9965 46.2528C61.8027 46.2528 60.95 46.8741 60.95 47.9263ZM71.9299 43.6597V60.9415H69.5016V57.1637H66.0907V55.283H69.5016V43.6514H71.9299V43.6597Z" fill="#221E1F"/>
<path d="M90.3083 56.8903V58.9201H74.9835V56.8903H90.3083ZM86.3289 49.9395C86.3613 48.9785 86.3613 48.0837 86.3613 47.1973V47.1641H76.6971V45.1924H88.7571V47.2056C88.7571 49.7241 88.7571 52.1101 87.9693 55.863L85.5736 55.6228C85.9066 54.2144 86.0852 52.9551 86.1989 51.7953L76.5103 52.3006L76.2179 50.2875L86.3289 49.9478V49.9395Z" fill="#221E1F"/>
<path d="M107.712 56.9657V58.9789H92.3711V56.9657H97.8042V52.8317H100.232V56.9657H107.712ZM103.773 49.2775C103.83 48.4905 103.83 47.7532 103.83 47.0821H94.109V45.1104H106.226V46.6347C106.226 48.7225 106.242 51.1416 105.454 54.936L103.059 54.6377C103.351 53.3619 103.538 52.2186 103.627 51.183L93.906 51.7049L93.5893 49.6172L103.773 49.2775Z" fill="#221E1F"/>
<path d="M112.707 54.9356C115.281 54.919 117.417 54.7864 119.813 54.3722L120.073 56.3854C117.311 56.8742 114.826 56.9902 111.748 56.9902H110.222V49.8736H115.728V47.1148H110.205V45.1431H118.213V51.8288H112.707V54.9438V54.9356ZM123.419 43.6436V60.9999H120.99V43.6436H123.419Z" fill="#221E1F"/>
<path d="M135.259 51.0252C135.259 54.8362 133.367 57.2222 130.801 57.2222C128.234 57.2222 126.342 54.8362 126.342 51.0252C126.342 47.2143 128.218 44.8614 130.801 44.8614C133.383 44.8614 135.259 47.2308 135.259 51.0252ZM132.92 51.0252C132.92 48.4735 132.051 47.0983 130.801 47.0983C129.55 47.0983 128.681 48.4735 128.681 51.0252C128.681 53.5769 129.526 54.9687 130.801 54.9687C132.076 54.9687 132.92 53.5935 132.92 51.0252ZM142 52.2265H139.531V60.9585H137.103V43.6602H139.531V50.1802H142V52.2265Z" fill="#221E1F"/>
</g>
<defs>
<clipPath id="clip0_214_4486">
<rect width="142" height="61" fill="white"/>
</clipPath>
</defs>
</svg>
