<svg width="212" height="61" viewBox="0 0 212 61" fill="none" xmlns="http://www.w3.org/2000/svg">
<path fill-rule="evenodd" clip-rule="evenodd" d="M127.875 23.4473C128.743 23.0897 128.701 22.3744 127.577 22.3233C121.744 22.0253 113.595 25.0568 109.013 29.8168C109.669 25.9509 113.118 21.608 117.827 19.1641C118.61 18.7639 118.201 18.2019 117.827 18.2019C117.673 18.2019 117.495 18.2274 117.273 18.2956C112.522 19.8368 104.347 26.8705 104.866 31.7158C104.986 32.8824 106.927 33.7935 109.371 32.2522C111.806 30.7024 113.186 28.6161 118.832 25.8827C123.157 23.7879 127.5 23.6006 127.875 23.4388V23.4473Z" fill="#221E1F"/>
<path d="M145.877 25.4655C145.323 25.5677 138.46 28.3266 132.371 30.0893C130.098 30.7535 126.121 31.4092 123.328 31.043C120.892 30.728 119.598 29.2549 119.275 27.6795C119.096 26.8365 116.507 27.7051 116.882 29.604C117.571 33.1464 124.06 33.2996 126.819 32.9164C130.345 32.4311 133.742 31.2134 137.089 30.0723C140.503 28.9142 143.867 27.6284 147.043 25.8998C147.401 25.7039 146.813 25.2952 145.877 25.457V25.4655Z" fill="#221E1F"/>
<path fill-rule="evenodd" clip-rule="evenodd" d="M125.388 11.1256L125.286 10.8957H125.048C111.815 13.0926 98.054 23.3877 97.7305 23.5495C99.1951 16.4221 113.262 2.63581 113.433 2.38886C113.859 1.77576 113.961 1.18819 113.722 0.728358C113.484 0.26853 112.93 -0.0720552 112.164 0.0130983C99.0333 1.59695 71.5458 14.0975 63.6861 32.3033C61.7787 36.7313 68.1396 35.0197 69.4084 33.3506C77.2766 23.03 90.6798 11.6706 100.668 10.0697C93.2599 18.2019 90.6372 26.7257 90.1944 30.2426C89.9049 32.5162 91.9656 33.8105 95.5335 31.1963C95.9082 30.9238 102.55 23.6347 110.606 18.5765C117.75 14.089 124.954 11.7472 125.201 11.5599L125.439 11.364L125.363 11.1341L125.388 11.1256Z" fill="#EC1B23"/>
<path d="M0 42.9561H2.91225L7.05923 50.407L8.4898 53.4299H8.58347C8.43019 51.9738 8.21732 50.1175 8.21732 48.5336V42.9561H10.9167V56.9553H8.02145L3.89152 49.4617L2.44391 46.4558H2.35024C2.48649 47.9716 2.69936 49.7257 2.69936 51.3351V56.9553H0V42.9561Z" fill="#221E1F"/>
<path d="M13.0723 51.6757C13.0723 48.2355 15.5247 46.0981 18.1133 46.0981C21.0852 46.0981 22.635 48.2355 22.635 51.1647C22.635 51.6757 22.5754 52.1866 22.4987 52.4336H15.8398C16.0697 54.1707 17.2277 55.0818 18.8286 55.0818C19.7142 55.0818 20.4891 54.8179 21.264 54.341L22.2263 56.0441C21.1618 56.7594 19.7909 57.2192 18.4454 57.2192C15.431 57.2192 13.0808 55.1585 13.0808 51.6757H13.0723ZM20.1996 50.6027C20.1996 49.1637 19.5439 48.261 18.1559 48.261C17.0149 48.261 16.0101 49.053 15.7972 50.6027H20.1996Z" fill="#221E1F"/>
<path d="M24.66 53.2511V48.5592H23.1357V46.4985L24.7962 46.3622L25.1283 43.5266H27.5041V46.3622H30.1694V48.5592H27.5041V53.2511C27.5041 54.4603 28.0065 55.0309 28.9688 55.0309C29.3179 55.0309 29.7437 54.9201 30.0332 54.8009L30.493 56.8276C29.914 57.0149 29.1646 57.2278 28.2109 57.2278C25.6393 57.2278 24.66 55.6354 24.66 53.2511Z" fill="#221E1F"/>
<path d="M30.8777 46.3621H33.7133L34.8884 51.599C35.1013 52.6208 35.2375 53.6426 35.4334 54.6815H35.51C35.7229 53.6426 35.9187 52.6038 36.1827 51.599L37.4771 46.3621H40.0061L41.3601 51.599C41.607 52.6208 41.8028 53.6426 42.0328 54.6815H42.1264C42.3223 53.6426 42.4585 52.6208 42.6714 51.599L43.8465 46.3621H46.4693L43.804 56.9552H40.4659L39.3249 52.3398C39.095 51.335 38.9161 50.3728 38.7033 49.2572H38.6096C38.3967 50.3728 38.2434 51.3605 38.0135 52.3398L36.915 56.9552H33.6707L30.8691 46.3621H30.8777Z" fill="#221E1F"/>
<path d="M47.2354 51.6757C47.2354 48.1333 49.7218 46.0981 52.4297 46.0981C55.1376 46.0981 57.6241 48.1418 57.6241 51.6757C57.6241 55.2096 55.1376 57.2192 52.4297 57.2192C49.7218 57.2192 47.2354 55.1755 47.2354 51.6757ZM54.7289 51.6757C54.7289 49.6661 53.8944 48.3632 52.4297 48.3632C50.9651 48.3632 50.1306 49.6661 50.1306 51.6757C50.1306 53.6853 50.9651 54.9455 52.4297 54.9455C53.8944 54.9455 54.7289 53.6598 54.7289 51.6757Z" fill="#221E1F"/>
<path d="M59.5146 46.3621H61.8308L62.0267 48.2355H62.1033C62.8952 46.856 64.0533 46.0981 65.1688 46.0981C65.7649 46.0981 66.114 46.1918 66.4461 46.328L65.9437 48.7294C65.5776 48.6187 65.271 48.559 64.8197 48.559C63.9682 48.559 62.9463 49.104 62.3332 50.6368V56.9552H59.5146V46.3621Z" fill="#221E1F"/>
<path d="M67.4502 41.8574H70.2092V50.9348H70.2858L74.0326 46.3535H77.1236L73.3769 50.6878L77.4727 56.9466H74.3987L71.776 52.5612L70.2092 54.2984V56.9466H67.4502V41.8489V41.8574Z" fill="#221E1F"/>
<path d="M82.7871 42.9558H85.6483V49.0272H85.7079L90.4424 42.9558H93.5931L89.2332 48.4567L94.368 56.955H91.2173L87.5301 50.6707L85.6568 53.0124V56.9465H82.7956V42.9473L82.7871 42.9558Z" fill="#221E1F"/>
<path d="M94.333 51.6757C94.333 48.1333 96.8195 46.0981 99.5273 46.0981C102.235 46.0981 104.722 48.1418 104.722 51.6757C104.722 55.2096 102.235 57.2192 99.5273 57.2192C96.8195 57.2192 94.333 55.1755 94.333 51.6757ZM101.827 51.6757C101.827 49.6661 100.992 48.3632 99.5273 48.3632C98.0627 48.3632 97.2282 49.6661 97.2282 51.6757C97.2282 53.6853 98.0627 54.9455 99.5273 54.9455C100.992 54.9455 101.827 53.6598 101.827 51.6757Z" fill="#221E1F"/>
<path d="M106.613 46.3621H108.929L109.125 48.2355H109.202C109.994 46.856 111.152 46.0981 112.267 46.0981C112.864 46.0981 113.213 46.1918 113.545 46.328L113.042 48.7294C112.676 48.6187 112.37 48.559 111.918 48.559C111.067 48.559 110.045 49.104 109.432 50.6368V56.9552H106.613V46.3621Z" fill="#221E1F"/>
<path d="M113.638 51.6757C113.638 48.2355 116.09 46.0981 118.679 46.0981C121.651 46.0981 123.2 48.2355 123.2 51.1647C123.2 51.6757 123.141 52.1866 123.064 52.4336H116.405C116.635 54.1707 117.793 55.0818 119.394 55.0818C120.28 55.0818 121.055 54.8179 121.829 54.341L122.792 56.0441C121.727 56.7594 120.356 57.2192 119.011 57.2192C115.996 57.2192 113.646 55.1585 113.646 51.6757H113.638ZM120.765 50.6027C120.765 49.1637 120.109 48.261 118.721 48.261C117.58 48.261 116.576 49.053 116.363 50.6027H120.765Z" fill="#221E1F"/>
<path d="M124.239 54.0855C124.239 51.8119 126.113 50.6198 130.455 50.1685C130.413 49.1296 129.953 48.3292 128.625 48.3292C127.62 48.3292 126.658 48.7634 125.653 49.334L124.631 47.4946C125.908 46.7197 127.45 46.0981 129.153 46.0981C131.895 46.0981 133.3 47.7075 133.3 50.7731V56.9552H130.983L130.771 55.8227H130.711C129.766 56.6146 128.684 57.2192 127.45 57.2192C125.517 57.2192 124.248 55.8738 124.248 54.077L124.239 54.0855ZM130.464 54.0089V51.8715C127.841 52.2121 126.947 52.9104 126.947 53.8556C126.947 54.6901 127.543 55.0477 128.378 55.0477C129.212 55.0477 129.791 54.6731 130.464 54.0089Z" fill="#221E1F"/>
<path d="M139.133 50.0151C139.133 45.3998 142.164 42.6919 145.775 42.6919C147.589 42.6919 149.036 43.5434 149.964 44.4886L148.457 46.2683C147.742 45.5871 146.916 45.0932 145.834 45.0932C143.671 45.0932 142.054 46.907 142.054 49.9129C142.054 52.9188 143.518 54.7922 145.783 54.7922C147.001 54.7922 147.963 54.2216 148.738 53.4127L150.245 55.1498C149.07 56.4953 147.546 57.2105 145.69 57.2105C142.079 57.2105 139.141 54.673 139.141 50.0065L139.133 50.0151Z" fill="#221E1F"/>
<path d="M151.139 51.6757C151.139 48.1333 153.625 46.0981 156.333 46.0981C159.041 46.0981 161.527 48.1418 161.527 51.6757C161.527 55.2096 159.041 57.2192 156.333 57.2192C153.625 57.2192 151.139 55.1755 151.139 51.6757ZM158.632 51.6757C158.632 49.6661 157.798 48.3632 156.333 48.3632C154.868 48.3632 154.034 49.6661 154.034 51.6757C154.034 53.6853 154.868 54.9455 156.333 54.9455C157.798 54.9455 158.632 53.6598 158.632 51.6757Z" fill="#221E1F"/>
<path d="M163.035 55.4053C163.035 54.3835 163.785 53.5916 164.789 53.5916C165.794 53.5916 166.569 54.3835 166.569 55.4053C166.569 56.4272 165.82 57.2191 164.789 57.2191C163.759 57.2191 163.035 56.4272 163.035 55.4053Z" fill="#221E1F"/>
<path d="M168.485 59.4757C169.975 58.9307 170.801 57.977 170.801 56.887H170.631C169.703 56.887 168.851 56.2995 168.851 55.2436C168.851 54.2387 169.677 53.6001 170.682 53.6001C171.993 53.6001 172.726 54.6219 172.726 56.342C172.726 58.556 171.397 60.2421 169.073 60.9999L168.477 59.4842L168.485 59.4757Z" fill="#221E1F"/>
<path d="M178.908 42.9561H181.769V54.6136H187.56V56.9553H178.908V42.9561Z" fill="#221E1F"/>
<path d="M189.185 53.2511V48.5592H187.661V46.4985L189.322 46.3622L189.654 43.5266H192.03V46.3622H194.695V48.5592H192.03V53.2511C192.03 54.4603 192.532 55.0309 193.494 55.0309C193.843 55.0309 194.269 54.9201 194.559 54.8009L195.018 56.8276C194.439 57.0149 193.69 57.2278 192.736 57.2278C190.165 57.2278 189.185 55.6354 189.185 53.2511Z" fill="#221E1F"/>
<path d="M195.419 51.6756C195.419 48.2099 197.616 46.0981 199.958 46.0981C201.175 46.0981 201.925 46.5494 202.7 47.2476L202.58 45.5786V41.8489H205.416V56.9466H203.117L202.887 55.8481H202.827C202.035 56.606 200.954 57.2106 199.838 57.2106C197.156 57.2106 195.419 55.1328 195.419 51.6671V51.6756ZM202.58 53.8385V49.1892C201.925 48.6016 201.252 48.3972 200.571 48.3972C199.353 48.3972 198.331 49.5297 198.331 51.65C198.331 53.7704 199.14 54.9455 200.571 54.9455C201.32 54.9455 201.959 54.6389 202.58 53.847V53.8385Z" fill="#221E1F"/>
<path d="M207.834 55.4053C207.834 54.3835 208.583 53.5916 209.588 53.5916C210.593 53.5916 211.368 54.3835 211.368 55.4053C211.368 56.4272 210.619 57.2191 209.588 57.2191C208.558 57.2191 207.834 56.4272 207.834 55.4053Z" fill="#221E1F"/>
</svg>
