<svg width="125" height="53" viewBox="0 0 125 53" fill="none" xmlns="http://www.w3.org/2000/svg">
<g clip-path="url(#clip0_214_3476)">
<path fill-rule="evenodd" clip-rule="evenodd" d="M81.1553 19.8169C81.8845 19.5146 81.8487 18.9099 80.9051 18.8667C76.008 18.6148 69.1664 21.1773 65.3203 25.2011C65.8707 21.9331 68.7661 18.2621 72.7195 16.1962C73.3772 15.8579 73.034 15.3828 72.7195 15.3828C72.5908 15.3828 72.4407 15.4044 72.2548 15.462C68.2657 16.7649 61.4026 22.7105 61.8387 26.8063C61.9388 27.7924 63.5688 28.5626 65.6205 27.2598C67.6651 25.9497 68.8233 24.1862 73.5631 21.8755C77.1947 20.1048 80.8407 19.9464 81.1553 19.8097V19.8169Z" fill="white"/>
<path d="M96.2754 21.5229C95.8107 21.6093 90.0486 23.9415 84.9371 25.4315C83.0283 25.9929 79.6897 26.5472 77.3449 26.2377C75.3003 25.9714 74.2136 24.7261 73.942 23.3944C73.7918 22.6818 71.6185 23.416 71.9331 25.0212C72.5122 28.0156 77.9597 28.1452 80.276 27.8213C83.2285 27.411 86.0881 26.3816 88.8976 25.4171C91.7644 24.4381 94.5882 23.3512 97.2548 21.89C97.555 21.7244 97.0618 21.3789 96.2754 21.5157V21.5229Z" fill="white"/>
<path fill-rule="evenodd" clip-rule="evenodd" d="M79.0678 9.40857L78.982 9.21422H78.7818C67.6723 11.0713 56.1195 19.7739 55.8479 19.9107C57.0775 13.8858 68.8876 2.23201 69.0306 2.02326C69.388 1.505 69.4738 1.00832 69.2737 0.619623C69.0735 0.230922 68.6088 -0.0570038 67.9654 0.0149777C56.9417 1.35383 33.8647 11.9207 27.2662 27.3104C25.6649 31.0462 31.0051 29.6066 32.0703 28.1957C38.676 19.4716 49.9285 9.86925 58.3143 8.516C52.0947 15.3902 49.8928 22.5956 49.521 25.5684C49.2779 27.4903 51.008 28.5844 54.0034 26.3746C54.318 26.1443 59.8942 19.9827 66.6571 15.707C72.6551 11.9135 78.7032 9.93403 78.9105 9.77567L79.1107 9.61012L79.0463 9.41577L79.0678 9.40857Z" fill="white"/>
<path d="M0 45.3344C0 42.6927 0.722047 40.5189 1.96597 38.4746L3.1813 38.9929C2.07321 40.9292 1.57278 43.175 1.57278 45.3344C1.57278 47.4939 2.07321 49.7541 3.1813 51.6904L1.96597 52.2087C0.729196 50.15 0 48.005 0 45.3344Z" fill="white"/>
<path d="M15.3989 46.593H10.7449V50.6959H9.00772V46.593H4.43237V45.1966H15.3989V46.593ZM4.95425 43.1307C7.4278 42.8284 8.72176 41.6335 8.89334 40.4674H5.40464V39.0781H14.4052V40.4674H10.9665C11.1381 41.6335 12.4178 42.8284 14.877 43.1307L14.2551 44.4983C12.1318 44.2032 10.6448 43.289 9.92279 42.0438C9.20075 43.289 7.70661 44.2032 5.59051 44.4983L4.9614 43.1307H4.95425Z" fill="white"/>
<path d="M16.6643 51.6904C17.7724 49.7541 18.2728 47.5227 18.2728 45.3344C18.2728 43.1462 17.7724 40.9292 16.6643 38.9929L17.8653 38.4746C19.1164 40.5189 19.8456 42.6927 19.8456 45.3344C19.8456 47.9762 19.1235 50.15 17.8653 52.2087L16.6643 51.6904Z" fill="white"/>
<path d="M24.328 47.5367C25.672 47.5079 26.9231 47.4071 28.2957 47.148L28.553 48.9403C26.7729 49.3146 25.1501 49.3794 23.2699 49.3794H22.2333V39.3739H24.328V47.5367ZM29.3037 38.1863H31.2982V52.3018H29.3037V44.4199H26.3726V42.6707H29.3037V38.1791V38.1863ZM34.4938 37.9199V52.9497H32.4707V37.9199H34.4938Z" fill="white"/>
<path d="M50.0858 49.4954V51.2446H36.5671V49.4954H50.0858ZM48.6417 47.3864H38.1541V39.0293H48.5273V40.7569H40.3274V42.3404H48.1913V44.0032H40.3274V45.6876H48.6417V47.3864Z" fill="white"/>
<path d="M60.3517 46.6879C59.0363 46.9326 57.7281 47.0622 56.4269 47.163V52.5328H54.2894V47.2781C53.0741 47.3285 51.9088 47.3285 50.865 47.3285L50.622 45.5794C53.3958 45.5794 57.0418 45.565 60.2159 45.1259L60.3446 46.6951L60.3517 46.6879ZM51.6586 41.642C51.6586 39.828 53.2456 38.554 55.4547 38.554C57.6637 38.554 59.2293 39.828 59.2293 41.642C59.2293 43.4559 57.6423 44.73 55.4547 44.73C53.2671 44.73 51.6586 43.4703 51.6586 41.642ZM53.6531 41.642C53.6531 42.5705 54.3966 43.096 55.4547 43.096C56.5127 43.096 57.2205 42.5705 57.2205 41.642C57.2205 40.7134 56.5056 40.188 55.4547 40.188C54.4038 40.188 53.6531 40.7278 53.6531 41.642ZM63.3186 37.9349V52.9503H61.181V49.6679H58.1784V48.0339H61.181V37.9277H63.3186V37.9349Z" fill="white"/>
<path d="M79.4967 49.4294V51.193H66.0066V49.4294H79.4967ZM75.9937 43.3902C76.0223 42.5552 76.0223 41.7778 76.0223 41.0076V40.9788H67.515V39.2656H78.1313V41.0148C78.1313 43.203 78.1313 45.2761 77.4378 48.5368L75.3289 48.3281C75.622 47.1044 75.7792 46.0103 75.8793 45.0026L67.3506 45.4416L67.0932 43.6925L75.9937 43.3974V43.3902Z" fill="white"/>
<path d="M94.817 49.4939V51.2431H81.3125V49.4939H86.0952V45.902H88.2328V49.4939H94.817ZM91.3497 42.814C91.3998 42.1302 91.3998 41.4896 91.3998 40.9065H82.8424V39.1934H93.5087V40.5178C93.5087 42.3318 93.523 44.4336 92.8296 47.7304L90.7206 47.4712C90.978 46.3627 91.1424 45.3694 91.221 44.4696L82.6637 44.9231L82.3849 43.1092L91.3497 42.814Z" fill="white"/>
<path d="M99.2136 47.731C101.48 47.7166 103.36 47.6014 105.469 47.2415L105.698 48.9907C103.267 49.4154 101.079 49.5161 98.37 49.5161H97.026V43.3329H101.873V40.9359H97.0117V39.2228H104.061V45.0317H99.2136V47.7382V47.731ZM108.643 37.9199V53.0001H106.506V37.9199H108.643Z" fill="white"/>
<path d="M119.066 44.3328C119.066 47.6439 117.401 49.717 115.142 49.717C112.882 49.717 111.217 47.6439 111.217 44.3328C111.217 41.0216 112.868 38.9773 115.142 38.9773C117.415 38.9773 119.066 41.036 119.066 44.3328ZM117.007 44.3328C117.007 42.1157 116.242 40.9208 115.142 40.9208C114.041 40.9208 113.276 42.1157 113.276 44.3328C113.276 46.5498 114.019 47.7591 115.142 47.7591C116.264 47.7591 117.007 46.5642 117.007 44.3328ZM125 45.3765H122.827V52.9633H120.689V37.9336H122.827V43.5985H125V45.3765Z" fill="white"/>
</g>
<defs>
<clipPath id="clip0_214_3476">
<rect width="125" height="53" fill="white"/>
</clipPath>
</defs>
</svg>
