<svg width="184" height="53" viewBox="0 0 184 53" fill="none" xmlns="http://www.w3.org/2000/svg">
<path fill-rule="evenodd" clip-rule="evenodd" d="M111.104 20.3722C111.859 20.0615 111.822 19.44 110.846 19.3956C105.778 19.1366 98.6971 21.7706 94.7166 25.9064C95.2863 22.5474 98.2828 18.7741 102.374 16.6507C103.055 16.303 102.7 15.8147 102.374 15.8147C102.241 15.8147 102.086 15.8369 101.893 15.8961C97.7649 17.2352 90.6622 23.3464 91.1135 27.5562C91.2171 28.5698 92.904 29.3615 95.0274 28.0224C97.1434 26.6758 98.3419 24.8631 103.247 22.4882C107.006 20.6681 110.779 20.5054 111.104 20.3648V20.3722Z" fill="white"/>
<path d="M126.745 22.1257C126.264 22.2144 120.301 24.6116 115.011 26.1431C113.036 26.7202 109.58 27.2899 107.154 26.9717C105.038 26.698 103.913 25.4181 103.632 24.0493C103.477 23.3169 101.227 24.0715 101.553 25.7214C102.152 28.7992 107.79 28.9324 110.187 28.5994C113.25 28.1777 116.202 27.1197 119.11 26.1283C122.077 25.1221 124.999 24.0049 127.759 22.503C128.069 22.3328 127.559 21.9777 126.745 22.1183V22.1257Z" fill="white"/>
<path fill-rule="evenodd" clip-rule="evenodd" d="M108.944 9.66652L108.855 9.46674H108.648C97.1508 11.3756 85.1947 20.3204 84.9135 20.461C86.1861 14.2684 98.4085 2.29013 98.5565 2.07557C98.9264 1.54287 99.0152 1.03236 98.8081 0.632836C98.6009 0.233313 98.12 -0.0626053 97.4541 0.0113805C86.0455 1.38752 62.1629 12.2486 55.334 28.0668C53.6767 31.914 59.2035 30.4269 60.3059 28.9768C67.1421 20.0097 78.7875 10.14 87.466 8.7491C81.0293 15.8147 78.7505 23.2207 78.3658 26.2763C78.1142 28.2518 79.9047 29.3763 83.0047 27.105C83.3302 26.8682 89.1011 20.535 96.1002 16.1403C102.308 12.2412 108.567 10.2066 108.781 10.0439L108.989 9.87365L108.922 9.67392L108.944 9.66652Z" fill="white"/>
<path d="M0 37.3224H2.53031L6.13343 43.7961L7.37638 46.4226H7.45777C7.32459 45.1575 7.13964 43.5446 7.13964 42.1684V37.3224H9.48498V49.4857H6.96946L3.38116 42.9749L2.1234 40.3632H2.04201C2.16039 41.6801 2.34535 43.2042 2.34535 44.6026V49.4857H0V37.3224Z" fill="white"/>
<path d="M11.3569 44.8986C11.3569 41.9095 13.4877 40.0525 15.7369 40.0525C18.319 40.0525 19.6655 41.9095 19.6655 44.4546C19.6655 44.8985 19.6137 45.3425 19.5472 45.557H13.7615C13.9612 47.0663 14.9674 47.858 16.3584 47.858C17.1278 47.858 17.8011 47.6286 18.4744 47.2143L19.3104 48.694C18.3856 49.3155 17.1944 49.715 16.0254 49.715C13.4063 49.715 11.3643 47.9246 11.3643 44.8986H11.3569ZM17.5495 43.9663C17.5495 42.716 16.9799 41.9317 15.7739 41.9317C14.7825 41.9317 13.9094 42.6198 13.7245 43.9663H17.5495Z" fill="white"/>
<path d="M21.4264 46.2673V42.1907H20.1021V40.4002L21.5448 40.2819L21.8333 37.8181H23.8975V40.2819H26.2133V42.1907H23.8975V46.2673C23.8975 47.3179 24.334 47.8136 25.1701 47.8136C25.4734 47.8136 25.8434 47.7174 26.0949 47.6138L26.4944 49.3747C25.9913 49.5375 25.3402 49.7224 24.5116 49.7224C22.2772 49.7224 21.4264 48.3389 21.4264 46.2673Z" fill="white"/>
<path d="M26.8272 40.2819H29.291L30.312 44.832C30.4969 45.7198 30.6153 46.6076 30.7855 47.5102H30.852C31.037 46.6076 31.2072 45.705 31.4365 44.832L32.5611 40.2819H34.7585L35.9349 44.832C36.1494 45.7198 36.3196 46.6076 36.5194 47.5102H36.6007C36.7709 46.6076 36.8893 45.7198 37.0743 44.832L38.0953 40.2819H40.374L38.0583 49.4857H35.158L34.1666 45.4756C33.9669 44.6026 33.8115 43.7666 33.6265 42.7974H33.5451C33.3602 43.7666 33.227 44.6248 33.0272 45.4756L32.0728 49.4857H29.254L26.8198 40.2819H26.8272Z" fill="white"/>
<path d="M41.04 44.8986C41.04 41.8207 43.2004 40.0525 45.5532 40.0525C47.9059 40.0525 50.0663 41.8281 50.0663 44.8986C50.0663 47.969 47.9059 49.715 45.5532 49.715C43.2004 49.715 41.04 47.9394 41.04 44.8986ZM47.5508 44.8986C47.5508 43.1525 46.8257 42.0205 45.5532 42.0205C44.2806 42.0205 43.5556 43.1525 43.5556 44.8986C43.5556 46.6446 44.2806 47.7396 45.5532 47.7396C46.8257 47.7396 47.5508 46.6224 47.5508 44.8986Z" fill="white"/>
<path d="M51.7087 40.2818H53.7212L53.8913 41.9095H53.9579C54.646 40.7109 55.6522 40.0525 56.6214 40.0525C57.1393 40.0525 57.4426 40.1338 57.7312 40.2522L57.2947 42.3386C56.9765 42.2424 56.7102 42.1906 56.3181 42.1906C55.5782 42.1906 54.6904 42.6642 54.1577 43.9959V49.4857H51.7087V40.2818Z" fill="white"/>
<path d="M58.6042 36.368H61.0014V44.2549H61.068L64.3234 40.2745H67.009L63.7537 44.0403L67.3124 49.4783H64.6415L62.3627 45.668L61.0014 47.1774V49.4783H58.6042V36.3606V36.368Z" fill="white"/>
<path d="M71.9292 37.3223H74.4151V42.5975H74.4669L78.5805 37.3223H81.318L77.5299 42.1018L81.9912 49.4856H79.2538L76.0502 44.0255L74.4225 46.0601V49.4782H71.9366V37.3149L71.9292 37.3223Z" fill="white"/>
<path d="M81.9614 44.8986C81.9614 41.8207 84.1218 40.0525 86.4745 40.0525C88.8273 40.0525 90.9877 41.8281 90.9877 44.8986C90.9877 47.969 88.8273 49.715 86.4745 49.715C84.1218 49.715 81.9614 47.9394 81.9614 44.8986ZM88.4722 44.8986C88.4722 43.1525 87.7471 42.0205 86.4745 42.0205C85.202 42.0205 84.4769 43.1525 84.4769 44.8986C84.4769 46.6446 85.202 47.7396 86.4745 47.7396C87.7471 47.7396 88.4722 46.6224 88.4722 44.8986Z" fill="white"/>
<path d="M92.6304 40.2818H94.6428L94.813 41.9095H94.8795C95.5676 40.7109 96.5738 40.0525 97.543 40.0525C98.0609 40.0525 98.3643 40.1338 98.6528 40.2522L98.2163 42.3386C97.8982 42.2424 97.6318 42.1906 97.2397 42.1906C96.4998 42.1906 95.612 42.6642 95.0793 43.9959V49.4857H92.6304V40.2818Z" fill="white"/>
<path d="M98.7344 44.8986C98.7344 41.9095 100.865 40.0525 103.114 40.0525C105.696 40.0525 107.043 41.9095 107.043 44.4546C107.043 44.8985 106.991 45.3425 106.925 45.557H101.139C101.339 47.0663 102.345 47.858 103.736 47.858C104.505 47.858 105.179 47.6286 105.852 47.2143L106.688 48.694C105.763 49.3155 104.572 49.715 103.403 49.715C100.784 49.715 98.7418 47.9246 98.7418 44.8986H98.7344ZM104.927 43.9663C104.927 42.716 104.357 41.9317 103.151 41.9317C102.16 41.9317 101.287 42.6198 101.102 43.9663H104.927Z" fill="white"/>
<path d="M107.945 46.9924C107.945 45.0169 109.573 43.9811 113.346 43.589C113.309 42.6864 112.91 41.9909 111.756 41.9909C110.883 41.9909 110.047 42.3682 109.173 42.8639L108.286 41.2658C109.395 40.5926 110.735 40.0525 112.214 40.0525C114.597 40.0525 115.817 41.4508 115.817 44.1143V49.4857H113.805L113.62 48.5017H113.568C112.747 49.1897 111.807 49.715 110.735 49.715C109.055 49.715 107.953 48.5461 107.953 46.985L107.945 46.9924ZM113.354 46.9258V45.0687C111.075 45.3646 110.298 45.9713 110.298 46.7926C110.298 47.5176 110.816 47.8284 111.541 47.8284C112.266 47.8284 112.769 47.5028 113.354 46.9258Z" fill="white"/>
<path d="M120.885 43.4558C120.885 39.4457 123.519 37.093 126.656 37.093C128.232 37.093 129.49 37.8329 130.296 38.6541L128.987 40.2004C128.365 39.6085 127.648 39.1794 126.708 39.1794C124.829 39.1794 123.423 40.7553 123.423 43.367C123.423 45.9787 124.696 47.6064 126.664 47.6064C127.722 47.6064 128.558 47.1107 129.231 46.4078L130.541 47.9171C129.52 49.0861 128.195 49.7076 126.582 49.7076C123.445 49.7076 120.893 47.5028 120.893 43.4484L120.885 43.4558Z" fill="white"/>
<path d="M131.318 44.8986C131.318 41.8207 133.478 40.0525 135.831 40.0525C138.184 40.0525 140.344 41.8281 140.344 44.8986C140.344 47.969 138.184 49.715 135.831 49.715C133.478 49.715 131.318 47.9394 131.318 44.8986ZM137.828 44.8986C137.828 43.1525 137.103 42.0205 135.831 42.0205C134.558 42.0205 133.833 43.1525 133.833 44.8986C133.833 46.6446 134.558 47.7396 135.831 47.7396C137.103 47.7396 137.828 46.6224 137.828 44.8986Z" fill="white"/>
<path d="M141.653 48.1391C141.653 47.2513 142.304 46.5632 143.177 46.5632C144.05 46.5632 144.724 47.2513 144.724 48.1391C144.724 49.027 144.073 49.715 143.177 49.715C142.282 49.715 141.653 49.027 141.653 48.1391Z" fill="white"/>
<path d="M146.389 51.6757C147.683 51.2022 148.401 50.3735 148.401 49.4265H148.253C147.446 49.4265 146.707 48.916 146.707 47.9986C146.707 47.1256 147.424 46.5707 148.297 46.5707C149.437 46.5707 150.073 47.4585 150.073 48.953C150.073 50.8766 148.919 52.3416 146.899 53L146.381 51.6831L146.389 51.6757Z" fill="white"/>
<path d="M155.444 37.3224H157.93V47.451H162.961V49.4857H155.444V37.3224Z" fill="white"/>
<path d="M164.374 46.2673V42.1907H163.05V40.4002L164.493 40.2819L164.781 37.8181H166.845V40.2819H169.161V42.1907H166.845V46.2673C166.845 47.3179 167.282 47.8136 168.118 47.8136C168.421 47.8136 168.791 47.7174 169.043 47.6138L169.442 49.3747C168.939 49.5375 168.288 49.7224 167.459 49.7224C165.225 49.7224 164.374 48.3389 164.374 46.2673Z" fill="white"/>
<path d="M169.79 44.8986C169.79 41.8874 171.699 40.0525 173.734 40.0525C174.792 40.0525 175.443 40.4446 176.116 41.0513L176.012 39.6012V36.3606H178.476V49.4783H176.479L176.279 48.5239H176.227C175.539 49.1823 174.599 49.7077 173.63 49.7077C171.3 49.7077 169.79 47.9024 169.79 44.8912V44.8986ZM176.012 46.7778V42.7382C175.443 42.2277 174.858 42.0501 174.266 42.0501C173.208 42.0501 172.321 43.0341 172.321 44.8764C172.321 46.7186 173.023 47.7396 174.266 47.7396C174.917 47.7396 175.472 47.4733 176.012 46.7852V46.7778Z" fill="white"/>
<path d="M180.577 48.1391C180.577 47.2513 181.228 46.5632 182.101 46.5632C182.974 46.5632 183.648 47.2513 183.648 48.1391C183.648 49.027 182.996 49.715 182.101 49.715C181.206 49.715 180.577 49.027 180.577 48.1391Z" fill="white"/>
</svg>
