<svg width="184" height="53" viewBox="0 0 184 53" fill="none" xmlns="http://www.w3.org/2000/svg">
<path fill-rule="evenodd" clip-rule="evenodd" d="M111.104 20.3722C111.859 20.0615 111.822 19.44 110.845 19.3956C105.777 19.1366 98.6968 21.7706 94.7164 25.9064C95.2861 22.5474 98.2825 18.7741 102.374 16.6507C103.055 16.303 102.699 15.8147 102.374 15.8147C102.241 15.8147 102.085 15.8369 101.893 15.8961C97.7646 17.2352 90.662 23.3464 91.1133 27.5562C91.2169 28.5698 92.9037 29.3615 95.0271 28.0224C97.1431 26.6758 98.3417 24.8631 103.247 22.4882C107.005 20.6681 110.779 20.5054 111.104 20.3648V20.3722Z" fill="#221E1F"/>
<path d="M126.745 22.1258C126.264 22.2146 120.301 24.6117 115.011 26.1432C113.035 26.7203 109.58 27.29 107.153 26.9718C105.037 26.6981 103.913 25.4182 103.632 24.0494C103.476 23.317 101.227 24.0716 101.553 25.7215C102.152 28.7993 107.79 28.9325 110.187 28.5995C113.25 28.1778 116.202 27.1198 119.11 26.1284C122.076 25.1222 124.999 24.005 127.758 22.5031C128.069 22.3329 127.559 21.9778 126.745 22.1184V22.1258Z" fill="#221E1F"/>
<path fill-rule="evenodd" clip-rule="evenodd" d="M108.944 9.66652L108.855 9.46674H108.648C97.1508 11.3756 85.1947 20.3204 84.9135 20.461C86.1861 14.2684 98.4085 2.29013 98.5565 2.07557C98.9264 1.54287 99.0152 1.03236 98.8081 0.632836C98.6009 0.233313 98.12 -0.0626053 97.4541 0.0113805C86.0455 1.38752 62.1629 12.2486 55.334 28.0668C53.6767 31.914 59.2035 30.4269 60.3059 28.9768C67.1421 20.0097 78.7875 10.14 87.466 8.7491C81.0293 15.8147 78.7505 23.2207 78.3658 26.2763C78.1142 28.2518 79.9047 29.3763 83.0047 27.105C83.3302 26.8682 89.1011 20.535 96.1002 16.1403C102.308 12.2412 108.567 10.2066 108.781 10.0439L108.989 9.87365L108.922 9.67392L108.944 9.66652Z" fill="#EC1B23"/>
<path d="M0 37.3225H2.53031L6.13343 43.7963L7.37638 46.4228H7.45777C7.32459 45.1576 7.13964 43.5447 7.13964 42.1686V37.3225H9.48498V49.4858H6.96946L3.38116 42.975L2.1234 40.3633H2.04201C2.16039 41.6803 2.34535 43.2044 2.34535 44.6027V49.4858H0V37.3225Z" fill="#221E1F"/>
<path d="M11.3569 44.8986C11.3569 41.9095 13.4877 40.0525 15.7369 40.0525C18.319 40.0525 19.6655 41.9095 19.6655 44.4546C19.6655 44.8985 19.6137 45.3425 19.5472 45.557H13.7615C13.9612 47.0663 14.9674 47.858 16.3584 47.858C17.1278 47.858 17.8011 47.6286 18.4744 47.2143L19.3104 48.694C18.3856 49.3155 17.1944 49.715 16.0254 49.715C13.4063 49.715 11.3643 47.9246 11.3643 44.8986H11.3569ZM17.5495 43.9663C17.5495 42.716 16.9799 41.9317 15.7739 41.9317C14.7825 41.9317 13.9094 42.6198 13.7245 43.9663H17.5495Z" fill="#221E1F"/>
<path d="M21.4264 46.2673V42.1907H20.1021V40.4002L21.5448 40.2819L21.8333 37.8181H23.8975V40.2819H26.2133V42.1907H23.8975V46.2673C23.8975 47.3179 24.334 47.8136 25.1701 47.8136C25.4734 47.8136 25.8434 47.7174 26.0949 47.6138L26.4944 49.3747C25.9913 49.5375 25.3402 49.7224 24.5116 49.7224C22.2772 49.7224 21.4264 48.3389 21.4264 46.2673Z" fill="#221E1F"/>
<path d="M26.8272 40.2817H29.291L30.312 44.8318C30.4969 45.7197 30.6153 46.6075 30.7855 47.5101H30.852C31.037 46.6075 31.2072 45.7049 31.4365 44.8318L32.5611 40.2817H34.7585L35.9349 44.8318C36.1494 45.7197 36.3196 46.6075 36.5194 47.5101H36.6007C36.7709 46.6075 36.8893 45.7197 37.0743 44.8318L38.0953 40.2817H40.374L38.0583 49.4856H35.158L34.1666 45.4755C33.9669 44.6025 33.8115 43.7664 33.6265 42.7972H33.5451C33.3602 43.7664 33.227 44.6247 33.0272 45.4755L32.0728 49.4856H29.254L26.8198 40.2817H26.8272Z" fill="#221E1F"/>
<path d="M41.04 44.8986C41.04 41.8207 43.2004 40.0525 45.5532 40.0525C47.9059 40.0525 50.0663 41.8281 50.0663 44.8986C50.0663 47.969 47.9059 49.715 45.5532 49.715C43.2004 49.715 41.04 47.9394 41.04 44.8986ZM47.5508 44.8986C47.5508 43.1525 46.8257 42.0205 45.5532 42.0205C44.2806 42.0205 43.5556 43.1525 43.5556 44.8986C43.5556 46.6446 44.2806 47.7396 45.5532 47.7396C46.8257 47.7396 47.5508 46.6224 47.5508 44.8986Z" fill="#221E1F"/>
<path d="M51.709 40.2818H53.7214L53.8916 41.9095H53.9582C54.6462 40.7109 55.6524 40.0525 56.6216 40.0525C57.1395 40.0525 57.4429 40.1338 57.7314 40.2522L57.2949 42.3386C56.9768 42.2424 56.7104 42.1906 56.3183 42.1906C55.5784 42.1906 54.6906 42.6642 54.1579 43.9959V49.4857H51.709V40.2818Z" fill="#221E1F"/>
<path d="M58.604 36.368H61.0011V44.2549H61.0677L64.3231 40.2745H67.0088L63.7534 44.0403L67.3121 49.4783H64.6412L62.3625 45.668L61.0011 47.1774V49.4783H58.604V36.3606V36.368Z" fill="#221E1F"/>
<path d="M71.9292 37.3223H74.4151V42.5975H74.4669L78.5805 37.3223H81.318L77.5299 42.1018L81.9912 49.4856H79.2538L76.0502 44.0255L74.4225 46.0601V49.4782H71.9366V37.3149L71.9292 37.3223Z" fill="#221E1F"/>
<path d="M81.9614 44.8986C81.9614 41.8207 84.1218 40.0525 86.4745 40.0525C88.8273 40.0525 90.9877 41.8281 90.9877 44.8986C90.9877 47.969 88.8273 49.715 86.4745 49.715C84.1218 49.715 81.9614 47.9394 81.9614 44.8986ZM88.4722 44.8986C88.4722 43.1525 87.7471 42.0205 86.4745 42.0205C85.202 42.0205 84.4769 43.1525 84.4769 44.8986C84.4769 46.6446 85.202 47.7396 86.4745 47.7396C87.7471 47.7396 88.4722 46.6224 88.4722 44.8986Z" fill="#221E1F"/>
<path d="M92.6304 40.2818H94.6428L94.813 41.9095H94.8795C95.5676 40.7109 96.5738 40.0525 97.543 40.0525C98.0609 40.0525 98.3643 40.1338 98.6528 40.2522L98.2163 42.3386C97.8982 42.2424 97.6318 42.1906 97.2397 42.1906C96.4998 42.1906 95.612 42.6642 95.0793 43.9959V49.4857H92.6304V40.2818Z" fill="#221E1F"/>
<path d="M98.7344 44.8986C98.7344 41.9095 100.865 40.0525 103.114 40.0525C105.696 40.0525 107.043 41.9095 107.043 44.4546C107.043 44.8985 106.991 45.3425 106.925 45.557H101.139C101.339 47.0663 102.345 47.858 103.736 47.858C104.505 47.858 105.179 47.6286 105.852 47.2143L106.688 48.694C105.763 49.3155 104.572 49.715 103.403 49.715C100.784 49.715 98.7418 47.9246 98.7418 44.8986H98.7344ZM104.927 43.9663C104.927 42.716 104.357 41.9317 103.151 41.9317C102.16 41.9317 101.287 42.6198 101.102 43.9663H104.927Z" fill="#221E1F"/>
<path d="M107.945 46.9924C107.945 45.0169 109.573 43.9811 113.346 43.589C113.309 42.6864 112.91 41.9909 111.756 41.9909C110.883 41.9909 110.047 42.3682 109.173 42.8639L108.286 41.2658C109.395 40.5926 110.735 40.0525 112.214 40.0525C114.597 40.0525 115.817 41.4508 115.817 44.1143V49.4857H113.805L113.62 48.5017H113.568C112.747 49.1897 111.807 49.715 110.735 49.715C109.055 49.715 107.953 48.5461 107.953 46.985L107.945 46.9924ZM113.354 46.9258V45.0687C111.075 45.3646 110.298 45.9713 110.298 46.7926C110.298 47.5176 110.816 47.8284 111.541 47.8284C112.266 47.8284 112.769 47.5028 113.354 46.9258Z" fill="#221E1F"/>
<path d="M120.886 43.4558C120.886 39.4457 123.52 37.093 126.657 37.093C128.233 37.093 129.49 37.8329 130.297 38.6541L128.987 40.2004C128.366 39.6085 127.648 39.1794 126.708 39.1794C124.829 39.1794 123.423 40.7553 123.423 43.367C123.423 45.9787 124.696 47.6064 126.664 47.6064C127.722 47.6064 128.558 47.1107 129.231 46.4078L130.541 47.9171C129.52 49.0861 128.196 49.7076 126.583 49.7076C123.446 49.7076 120.893 47.5028 120.893 43.4484L120.886 43.4558Z" fill="#221E1F"/>
<path d="M131.318 44.8986C131.318 41.8207 133.478 40.0525 135.831 40.0525C138.184 40.0525 140.344 41.8281 140.344 44.8986C140.344 47.969 138.184 49.715 135.831 49.715C133.478 49.715 131.318 47.9394 131.318 44.8986ZM137.829 44.8986C137.829 43.1525 137.104 42.0205 135.831 42.0205C134.558 42.0205 133.833 43.1525 133.833 44.8986C133.833 46.6446 134.558 47.7396 135.831 47.7396C137.104 47.7396 137.829 46.6224 137.829 44.8986Z" fill="#221E1F"/>
<path d="M141.653 48.1391C141.653 47.2513 142.304 46.5632 143.177 46.5632C144.05 46.5632 144.724 47.2513 144.724 48.1391C144.724 49.027 144.073 49.715 143.177 49.715C142.282 49.715 141.653 49.027 141.653 48.1391Z" fill="#221E1F"/>
<path d="M146.388 51.6755C147.683 51.202 148.401 50.3734 148.401 49.4264H148.253C147.446 49.4264 146.706 48.9159 146.706 47.9985C146.706 47.1254 147.424 46.5706 148.297 46.5706C149.436 46.5706 150.073 47.4584 150.073 48.9529C150.073 50.8765 148.919 52.3415 146.899 52.9999L146.381 51.683L146.388 51.6755Z" fill="#221E1F"/>
<path d="M155.444 37.3225H157.93V47.4512H162.961V49.4858H155.444V37.3225Z" fill="#221E1F"/>
<path d="M164.374 46.2673V42.1907H163.05V40.4002L164.493 40.2819L164.781 37.8181H166.845V40.2819H169.161V42.1907H166.845V46.2673C166.845 47.3179 167.282 47.8136 168.118 47.8136C168.421 47.8136 168.791 47.7174 169.043 47.6138L169.442 49.3747C168.939 49.5375 168.288 49.7224 167.459 49.7224C165.225 49.7224 164.374 48.3389 164.374 46.2673Z" fill="#221E1F"/>
<path d="M169.79 44.8986C169.79 41.8874 171.699 40.0525 173.733 40.0525C174.791 40.0525 175.443 40.4446 176.116 41.0513L176.012 39.6012V36.3606H178.476V49.4783H176.478L176.279 48.5239H176.227C175.539 49.1823 174.599 49.7077 173.63 49.7077C171.299 49.7077 169.79 47.9024 169.79 44.8912V44.8986ZM176.012 46.7778V42.7382C175.443 42.2277 174.858 42.0501 174.266 42.0501C173.208 42.0501 172.32 43.0341 172.32 44.8764C172.32 46.7186 173.023 47.7396 174.266 47.7396C174.917 47.7396 175.472 47.4733 176.012 46.7852V46.7778Z" fill="#221E1F"/>
<path d="M180.577 48.1391C180.577 47.2513 181.228 46.5632 182.101 46.5632C182.974 46.5632 183.648 47.2513 183.648 48.1391C183.648 49.027 182.996 49.715 182.101 49.715C181.206 49.715 180.577 49.027 180.577 48.1391Z" fill="#221E1F"/>
</svg>
