<svg width="125" height="53" viewBox="0 0 125 53" fill="none" xmlns="http://www.w3.org/2000/svg">
<g clip-path="url(#clip0_214_3505)">
<path fill-rule="evenodd" clip-rule="evenodd" d="M81.1552 19.8169C81.8844 19.5146 81.8487 18.9099 80.905 18.8667C76.008 18.6148 69.1664 21.1773 65.3202 25.2011C65.8707 21.9331 68.766 18.2621 72.7194 16.1962C73.3771 15.8579 73.034 15.3828 72.7194 15.3828C72.5907 15.3828 72.4406 15.4044 72.2547 15.462C68.2656 16.7649 61.4026 22.7105 61.8387 26.8063C61.9388 27.7924 63.5687 28.5626 65.6205 27.2598C67.6651 25.9497 68.8232 24.1862 73.563 21.8755C77.1947 20.1048 80.8407 19.9464 81.1552 19.8097V19.8169Z" fill="#221E1F"/>
<path d="M96.2752 21.5229C95.8105 21.6093 90.0485 23.9415 84.9369 25.4315C83.0282 25.9929 79.6896 26.5472 77.3447 26.2377C75.3001 25.9714 74.2135 24.7261 73.9418 23.3944C73.7917 22.6818 71.6184 23.416 71.9329 25.0212C72.512 28.0156 77.9595 28.1452 80.2758 27.8213C83.2283 27.411 86.0879 26.3816 88.8975 25.4171C91.7642 24.4381 94.5881 23.3512 97.2546 21.89C97.5549 21.7244 97.0616 21.3789 96.2752 21.5157V21.5229Z" fill="#221E1F"/>
<path fill-rule="evenodd" clip-rule="evenodd" d="M79.0676 9.40857L78.9818 9.21422H78.7816C67.6721 11.0713 56.1193 19.7739 55.8477 19.9107C57.0773 13.8858 68.8874 2.23201 69.0304 2.02326C69.3878 1.505 69.4736 1.00832 69.2734 0.619623C69.0733 0.230922 68.6086 -0.0570038 67.9652 0.0149777C56.9414 1.35383 33.8645 11.9207 27.266 27.3104C25.6646 31.0462 31.0049 29.6066 32.0701 28.1957C38.6758 19.4716 49.9283 9.86925 58.3141 8.516C52.0944 15.3902 49.8925 22.5956 49.5208 25.5684C49.2777 27.4903 51.0078 28.5844 54.0032 26.3746C54.3178 26.1443 59.894 19.9827 66.6569 15.707C72.6549 11.9135 78.703 9.93403 78.9103 9.77567L79.1105 9.61012L79.0461 9.41577L79.0676 9.40857Z" fill="#EC1B23"/>
<path d="M0 45.3344C0 42.6927 0.722047 40.5189 1.96597 38.4746L3.1813 38.9929C2.07321 40.9292 1.57278 43.175 1.57278 45.3344C1.57278 47.4939 2.07321 49.7541 3.1813 51.6904L1.96597 52.2087C0.729196 50.15 0 48.005 0 45.3344Z" fill="#221E1F"/>
<path d="M15.3987 46.593H10.7447V50.6959H9.00748V46.593H4.43213V45.1966H15.3987V46.593ZM4.954 43.1307C7.42755 42.8284 8.72152 41.6335 8.8931 40.4674H5.40439V39.0781H14.405V40.4674H10.9663C11.1379 41.6335 12.4175 42.8284 14.8768 43.1307L14.2548 44.4983C12.1316 44.2032 10.6446 43.289 9.92255 42.0438C9.2005 43.289 7.70636 44.2032 5.59026 44.4983L4.96115 43.1307H4.954Z" fill="#221E1F"/>
<path d="M16.6641 51.6904C17.7722 49.7541 18.2726 47.5227 18.2726 45.3344C18.2726 43.1462 17.7722 40.9292 16.6641 38.9929L17.8651 38.4746C19.1162 40.5189 19.8454 42.6927 19.8454 45.3344C19.8454 47.9762 19.1233 50.15 17.8651 52.2087L16.6641 51.6904Z" fill="#221E1F"/>
<path d="M24.328 47.5367C25.6721 47.5079 26.9231 47.4071 28.2957 47.148L28.5531 48.9403C26.773 49.3146 25.1502 49.3794 23.27 49.3794H22.2334V39.3739H24.328V47.5367ZM29.3037 38.1863H31.2983V52.3018H29.3037V44.4199H26.3727V42.6707H29.3037V38.1791V38.1863ZM34.4939 37.9199V52.9497H32.4707V37.9199H34.4939Z" fill="#221E1F"/>
<path d="M50.0856 49.4954V51.2446H36.5669V49.4954H50.0856ZM48.6415 47.3864H38.154V39.0293H48.5271V40.7569H40.3273V42.3404H48.1911V44.0032H40.3273V45.6876H48.6415V47.3864Z" fill="#221E1F"/>
<path d="M60.3518 46.6879C59.0364 46.9326 57.7282 47.0622 56.427 47.163V52.5328H54.2895V47.2781C53.0742 47.3285 51.9089 47.3285 50.8651 47.3285L50.6221 45.5794C53.3959 45.5794 57.0419 45.565 60.216 45.1259L60.3447 46.6951L60.3518 46.6879ZM51.6587 41.642C51.6587 39.828 53.2457 38.554 55.4548 38.554C57.6638 38.554 59.2294 39.828 59.2294 41.642C59.2294 43.4559 57.6424 44.73 55.4548 44.73C53.2672 44.73 51.6587 43.4703 51.6587 41.642ZM53.6532 41.642C53.6532 42.5705 54.3967 43.096 55.4548 43.096C56.5128 43.096 57.2206 42.5705 57.2206 41.642C57.2206 40.7134 56.5057 40.188 55.4548 40.188C54.4039 40.188 53.6532 40.7278 53.6532 41.642ZM63.3187 37.9349V52.9503H61.1811V49.6679H58.1785V48.0339H61.1811V37.9277H63.3187V37.9349Z" fill="#221E1F"/>
<path d="M79.4965 49.4294V51.193H66.0063V49.4294H79.4965ZM75.9935 43.3902C76.0221 42.5552 76.0221 41.7778 76.0221 41.0076V40.9788H67.5148V39.2656H78.131V41.0148C78.131 43.203 78.131 45.2761 77.4376 48.5368L75.3286 48.3281C75.6217 47.1044 75.779 46.0103 75.8791 45.0026L67.3504 45.4416L67.093 43.6925L75.9935 43.3974V43.3902Z" fill="#221E1F"/>
<path d="M94.8169 49.4939V51.2431H81.3125V49.4939H86.0952V45.902H88.2327V49.4939H94.8169ZM91.3497 42.814C91.3997 42.1302 91.3997 41.4896 91.3997 40.9065H82.8424V39.1934H93.5087V40.5178C93.5087 42.3318 93.523 44.4336 92.8295 47.7304L90.7206 47.4712C90.9779 46.3627 91.1424 45.3694 91.221 44.4696L82.6637 44.9231L82.3848 43.1092L91.3497 42.814Z" fill="#221E1F"/>
<path d="M99.2136 47.731C101.48 47.7166 103.36 47.6014 105.469 47.2415L105.698 48.9907C103.267 49.4154 101.079 49.5161 98.37 49.5161H97.026V43.3329H101.873V40.9359H97.0117V39.2228H104.061V45.0317H99.2136V47.7382V47.731ZM108.643 37.9199V53.0001H106.506V37.9199H108.643Z" fill="#221E1F"/>
<path d="M119.066 44.3328C119.066 47.6439 117.401 49.717 115.142 49.717C112.883 49.717 111.217 47.6439 111.217 44.3328C111.217 41.0216 112.868 38.9773 115.142 38.9773C117.415 38.9773 119.066 41.036 119.066 44.3328ZM117.007 44.3328C117.007 42.1157 116.243 40.9208 115.142 40.9208C114.041 40.9208 113.276 42.1157 113.276 44.3328C113.276 46.5498 114.019 47.7591 115.142 47.7591C116.264 47.7591 117.007 46.5642 117.007 44.3328ZM125 45.3765H122.827V52.9633H120.689V37.9336H122.827V43.5985H125V45.3765Z" fill="#221E1F"/>
</g>
<defs>
<clipPath id="clip0_214_3505">
<rect width="125" height="53" fill="white"/>
</clipPath>
</defs>
</svg>
