<svg width="36" height="35" viewBox="0 0 36 35" fill="none" xmlns="http://www.w3.org/2000/svg">
<g clip-path="url(#clip0_214_4502)">
<path d="M28.6727 0H7.32725C3.28052 0 0 3.1894 0 7.12372V27.8763C0 31.8106 3.28052 35 7.32725 35H28.6727C32.7195 35 36 31.8106 36 27.8763V7.12372C36 3.1894 32.7195 0 28.6727 0Z" fill="white"/>
<path d="M15.6725 12.9871C14.245 12.9871 12.919 13.4192 11.8217 14.1562V8.51172H8.4762V26.191H11.8217V25.316C12.9172 26.0548 14.2432 26.4869 15.6725 26.4869C19.4532 26.4869 22.5166 23.4638 22.5166 19.7361C22.5166 16.0084 19.4532 12.9853 15.6725 12.9853V12.9871ZM15.3 23.5571C13.2879 23.5571 11.6557 21.8357 11.6557 19.7128C11.6557 17.5898 13.2879 15.8685 15.3 15.8685C17.3121 15.8685 18.9461 17.5916 18.9461 19.7128C18.9461 21.834 17.3139 23.5571 15.3 23.5571Z" fill="#2EB34A"/>
<path d="M27.9664 7.1543H26.4652V27.6343H27.9664V7.1543Z" fill="#2EB34A"/>
</g>
<defs>
<clipPath id="clip0_214_4502">
<rect width="36" height="35" fill="white"/>
</clipPath>
</defs>
</svg>
