<svg width="26" height="25" viewBox="0 0 26 25" fill="none" xmlns="http://www.w3.org/2000/svg">
<path d="M22.5627 0.0118274C22.6755 -0.00817341 22.7781 -0.00778878 22.879 0.0525984L22.9085 0.0710607C23.0863 0.181162 24.2042 1.27188 24.3385 1.4667L24.3502 1.4841C24.695 1.98403 24.134 2.3977 23.8273 2.74319C23.5885 3.01224 23.3596 3.286 23.1277 3.56073C23.3546 3.89699 23.591 4.25133 23.4076 4.67404L23.3974 4.69751C23.2626 5.01925 22.213 6.07843 21.8356 6.39229L18.6414 3.16725C18.5132 3.03811 18.3914 2.90378 18.2404 2.80108C18.8755 2.16336 19.7247 1.04312 20.6614 1.52458C21.1072 1.18688 22.1303 0.172988 22.5628 0.011539L22.5627 0.0118274Z" fill="white"/>
<path d="M1.00252 23.7158C1.65725 23.6728 2.32213 23.7078 2.9784 23.7077H22.6675C23.0279 23.7077 24.5288 23.6731 24.8316 23.7513C25.3202 23.8777 25.4521 24.6504 24.9762 24.884L24.9414 24.8997C24.803 24.9653 24.6773 24.9632 24.5275 24.9687C24.0931 24.9846 23.6565 24.9783 23.2219 24.9784H2.76612C2.37123 24.9784 0.877905 25.0673 0.561687 24.884L0.487131 24.8364C0.222212 24.6353 0.210536 24.1763 0.410756 23.9289C0.563123 23.7407 0.782006 23.7303 1.00252 23.7158Z" fill="white"/>
<path d="M17.7517 3.21289C17.8817 3.40107 18.065 3.56541 18.2255 3.72743C19.1372 4.64805 20.0358 5.58136 20.948 6.5012C21.0829 6.63736 21.2152 6.78641 21.3663 6.90439C20.9334 7.32018 20.5199 7.75577 20.0967 8.18166C16.1502 12.1532 9.03343 19.3278 7.63323 20.6929C7.26915 21.0478 7.12186 21.1719 6.63461 21.3629C5.92542 21.6408 2.47621 23.0583 2.47621 23.0583C2.12879 23.186 1.93259 23.0277 1.81726 22.6975C1.8854 22.4286 1.98542 22.1733 2.07529 21.9117C2.45333 20.8112 2.84306 19.7152 3.21115 18.6111C3.51885 17.6882 3.42668 17.5445 4.11673 16.8606C9.35922 11.6647 17.2856 3.7582 17.7517 3.21289Z" fill="white"/>
</svg>
