<svg width="138" height="110" viewBox="0 0 138 110" fill="none" xmlns="http://www.w3.org/2000/svg">
<path d="M68.9235 95.849C34.547 95.8397 25.4117 97.2572 23.8869 93.1046C22.2451 88.6338 30.304 85.3673 35.9998 73.0872C44.8367 54.0345 34.8776 41.553 43.0153 27.9824C45.1571 24.4112 49.2501 19.1771 55.8029 15.7573C64.0457 11.4558 73.8014 11.4558 82.0442 15.7573C88.5969 19.1771 92.6899 24.4112 94.8318 27.9824C102.969 41.553 93.0103 54.0345 101.847 73.0872C107.543 85.3673 115.601 88.6338 113.96 93.1046C112.435 97.2572 103.3 95.8389 68.9235 95.849Z" fill="url(#paint0_linear_356_4257)"/>
<path d="M63.3912 11.1383L62.7227 6.73446C62.1796 3.18035 65.1102 0 68.9239 0C72.4323 0 75.1893 2.69261 75.1893 5.8872C75.1893 6.16627 75.1688 6.45036 75.1252 6.7353L74.4531 11.1392" fill="url(#paint1_linear_356_4257)"/>
<path opacity="0.5" d="M57.0881 97.4684C57.1151 104.394 62.4034 110 68.9235 110C75.4437 110 80.7319 104.394 80.7589 97.4684" fill="#00B7DD"/>
<path opacity="0.5" d="M14.3043 24.2252C15.2181 23.446 16.646 23.4954 17.4935 24.3356C18.341 25.1758 18.2873 26.4886 17.3735 27.2678C14.2953 29.8928 4.29813 39.6331 4.51702 54.7904L4.51999 54.9689C4.79788 69.1067 13.5989 78.1206 17.3782 81.3401C18.2925 82.1189 18.3469 83.4317 17.4998 84.2723C16.6528 85.1129 15.2249 85.1631 14.3107 84.3842C10.1187 80.8132 0.317186 70.8038 0.00738366 55.044L0.0039655 54.8448C-0.240414 37.9377 10.8792 27.1461 14.3043 24.2252Z" fill="#00B7DD"/>
<path opacity="0.5" d="M20.053 31.179C20.9246 30.4096 22.2862 30.4587 23.0942 31.2886C23.9023 32.1184 23.8507 33.4149 22.9791 34.1842C20.8331 36.0784 13.8471 43.1329 14.0554 54.0847V54.0848C14.2484 64.2328 20.3561 70.7129 22.9816 73.0299C23.8533 73.7991 23.905 75.0955 23.0971 75.9255C22.2891 76.7555 20.9275 76.8047 20.0558 76.0354C17.0385 73.3728 9.9755 65.9096 9.75207 54.159C9.51064 41.466 17.5751 33.3661 20.053 31.179Z" fill="#00B7DD"/>
<path opacity="0.5" d="M27.3042 38.1508C28.1067 37.3661 29.3604 37.4161 30.1044 38.2626C30.8483 39.1091 30.8009 40.4314 29.9984 41.2161C29.2893 41.9095 24.7961 46.4738 24.8493 53.7399L24.8514 53.912V53.9122C24.9713 60.9274 29.2489 65.2636 29.9979 65.9955C30.8006 66.78 30.8485 68.1023 30.1048 68.949C29.361 69.7957 28.1074 69.8463 27.3046 69.0618C26.3601 68.1388 21.0395 62.7793 20.8892 53.9876L20.8865 53.7718C20.8191 44.6611 26.4068 39.0283 27.3042 38.1508Z" fill="#00B7DD"/>
<path opacity="0.5" d="M120.354 24.3356C121.201 23.4954 122.629 23.446 123.543 24.2252C126.981 27.1576 138.175 38.0225 137.84 55.044C137.53 70.8038 127.728 80.8132 123.536 84.3842C122.622 85.1631 121.194 85.1129 120.347 84.2723C119.5 83.4317 119.555 82.1189 120.469 81.3401C124.248 78.1206 133.049 69.1067 133.327 54.9689L133.33 54.7904C133.549 39.6331 123.552 29.8928 120.474 27.2678C119.56 26.4886 119.506 25.1758 120.354 24.3356Z" fill="#00B7DD"/>
<path opacity="0.5" d="M114.753 31.2886C115.561 30.4587 116.923 30.4096 117.794 31.179C120.272 33.3661 128.336 41.466 128.095 54.159C127.872 65.9096 120.809 73.3728 117.791 76.0354C116.92 76.8047 115.558 76.7555 114.75 75.9255C113.942 75.0955 113.994 73.7991 114.866 73.0299C117.491 70.7129 123.599 64.2327 123.792 54.0848V54.0847C124 43.1329 117.014 36.0784 114.868 34.1842C113.996 33.4149 113.945 32.1185 114.753 31.2886Z" fill="#00B7DD"/>
<path opacity="0.5" d="M107.743 38.2626C108.487 37.4161 109.74 37.3661 110.543 38.1508C111.447 39.0352 117.116 44.75 116.958 53.9876C116.808 62.7793 111.487 68.1388 110.542 69.0618C109.74 69.8463 108.486 69.7957 107.742 68.949C106.999 68.1023 107.047 66.78 107.849 65.9955C108.598 65.2636 112.876 60.9273 112.996 53.9122V53.912C113.122 46.5459 108.564 41.915 107.849 41.2161C107.046 40.4314 106.999 39.1091 107.743 38.2626Z" fill="#00B7DD"/>
<defs>
<linearGradient id="paint0_linear_356_4257" x1="68.9235" y1="26.4304" x2="68.9235" y2="124.876" gradientUnits="userSpaceOnUse">
<stop stop-color="#E4F7FF"/>
<stop offset="1" stop-color="#00B7DD"/>
</linearGradient>
<linearGradient id="paint1_linear_356_4257" x1="62.6568" y1="5.56875" x2="75.1884" y2="5.56875" gradientUnits="userSpaceOnUse">
<stop stop-color="#E4F9FF"/>
<stop offset="1" stop-color="#00B7DD"/>
</linearGradient>
</defs>
</svg>
