<svg width="129" height="110" viewBox="0 0 129 110" fill="none" xmlns="http://www.w3.org/2000/svg">
<path d="M120.226 0H8.10247C3.62513 0 0 3.63169 0 8.10247V86.6296C0 91.1069 3.62513 94.7321 8.10247 94.7321H120.226C124.703 94.7321 128.328 91.1069 128.328 86.6296V8.10247C128.328 3.63169 124.703 0 120.226 0ZM97.1445 13.3927L99.0717 11.3343C99.7142 10.6525 100.789 10.6197 101.464 11.2622C102.146 11.898 102.179 12.9731 101.543 13.6549L99.6093 15.7067C99.275 16.0607 98.8292 16.2443 98.3769 16.2443C97.9573 16.2443 97.5443 16.0935 97.2166 15.7854C96.5414 15.143 96.5086 14.0679 97.1445 13.3927ZM88.2619 22.8456L90.1892 20.7937C90.8251 20.112 91.9001 20.0792 92.5819 20.7151C93.2637 21.3575 93.2964 22.4326 92.654 23.1143L90.7267 25.1662C90.3924 25.5202 89.9401 25.7037 89.4877 25.7037C89.0748 25.7037 88.6552 25.5529 88.334 25.2383C87.6522 24.6024 87.6195 23.5273 88.2619 22.8456ZM78.4157 30.0827C79.222 29.7222 80.0218 29.3157 80.7887 28.8831C81.6082 28.4242 82.6308 28.7126 83.0962 29.5255C83.5551 30.3449 83.2667 31.3676 82.4538 31.833C81.5885 32.3181 80.697 32.7704 79.7989 33.1769C79.576 33.2752 79.34 33.3211 79.1105 33.3211C78.4616 33.3211 77.8454 32.9474 77.5635 32.3247C77.1767 31.4659 77.5635 30.4695 78.4157 30.0827ZM66.5045 32.6066H66.6029C67.4551 32.6066 68.3204 32.5672 69.1726 32.4951C70.0969 32.4164 70.9294 33.0982 71.0146 34.0291C71.0933 34.9599 70.4115 35.7794 69.4807 35.8646C68.5301 35.9498 67.5599 35.9957 66.6094 35.9957H66.5111C65.5802 35.9957 64.8198 35.2418 64.8198 34.3044C64.8198 33.367 65.5802 32.6131 66.5111 32.6131L66.5045 32.6066ZM53.6953 31.0857C54.6851 31.1185 55.6816 31.1971 56.6649 31.3151C57.5957 31.4331 58.2513 32.2788 58.1398 33.2031C58.0349 34.0619 57.3073 34.6846 56.4616 34.6846C56.3895 34.6846 56.3174 34.6846 56.2453 34.6715C55.3669 34.5601 54.4754 34.488 53.5904 34.4617C52.6595 34.4355 51.9253 33.6489 51.9515 32.718C51.9778 31.7806 52.7841 31.0529 53.6953 31.0791V31.0857ZM40.3288 33.5309C41.24 33.1441 42.1774 32.8098 43.128 32.5148C44.0195 32.2395 44.97 32.7377 45.2454 33.6292C45.5207 34.5207 45.0225 35.4713 44.1309 35.7466C43.2919 36.0088 42.4462 36.3169 41.6268 36.6578C41.417 36.743 41.2007 36.7889 40.9844 36.7889C40.3157 36.7889 39.6864 36.3956 39.4176 35.7466C39.0636 34.8813 39.4701 33.8914 40.3354 33.5374L40.3288 33.5309ZM29.1453 41.2662C29.8205 40.5517 30.5416 39.8503 31.2824 39.1882C31.9838 38.572 33.0458 38.6375 33.6685 39.3324C34.2913 40.0338 34.2257 41.0958 33.5243 41.7186C32.8557 42.3085 32.2198 42.9313 31.6101 43.5803C31.2758 43.9343 30.8235 44.1178 30.3712 44.1178C29.9582 44.1178 29.5386 43.9671 29.2174 43.6524C28.5357 43.0165 28.5029 41.9414 29.1387 41.2597L29.1453 41.2662ZM23.075 8.38435C23.7043 7.75504 24.8384 7.75504 25.4677 8.38435C25.7824 8.69901 25.9659 9.13167 25.9659 9.57744C25.9659 9.68888 25.9528 9.80032 25.9332 9.91176C25.9135 10.0166 25.8742 10.1281 25.8348 10.2264C25.7955 10.3248 25.7365 10.4231 25.6775 10.5214C25.6185 10.6132 25.5464 10.6984 25.4677 10.7771C25.1531 11.0917 24.7204 11.2753 24.2746 11.2753C23.8289 11.2753 23.3962 11.0917 23.0816 10.7771C23.0029 10.6984 22.9308 10.6132 22.8718 10.5214C22.8128 10.4231 22.7538 10.3313 22.7145 10.2264C22.6751 10.1215 22.6423 10.0166 22.6161 9.91176C22.5965 9.80032 22.5833 9.68888 22.5833 9.57744C22.5833 9.13167 22.7669 8.69901 23.0816 8.38435H23.075ZM21.4558 52.0433L23.016 49.6965C23.5273 48.9164 24.5827 48.7066 25.3628 49.2245C26.1429 49.7358 26.3527 50.7847 25.8348 51.5648L24.2746 53.9182C23.9469 54.4098 23.4028 54.672 22.8587 54.672C22.5375 54.672 22.2162 54.5802 21.9278 54.3901C21.1477 53.8788 20.9379 52.83 21.4558 52.0433ZM9.92487 10.7771C9.61022 11.0917 9.17756 11.2753 8.73179 11.2753C8.28602 11.2753 7.85337 11.0917 7.53871 10.7771C7.22405 10.4624 7.0405 10.0298 7.0405 9.58399C7.0405 9.13823 7.22405 8.70557 7.53871 8.39091C8.16803 7.76159 9.30211 7.76159 9.93143 8.39091C10.2461 8.70557 10.4296 9.13823 10.4296 9.58399C10.4296 10.0298 10.2461 10.4624 9.93143 10.7771H9.92487ZM18.1585 9.91176C18.1388 10.0166 18.106 10.1281 18.0601 10.2264C18.0208 10.3248 17.9618 10.4231 17.9093 10.5214C17.8504 10.6132 17.7717 10.6984 17.693 10.7771C17.3784 11.0917 16.9457 11.2753 16.4999 11.2753C16.0542 11.2753 15.6215 11.0917 15.3069 10.7771C15.2282 10.6984 15.1626 10.6132 15.0971 10.5214C15.0381 10.4231 14.9856 10.3313 14.9398 10.2264C14.9004 10.1281 14.8676 10.0166 14.8414 9.91176C14.8218 9.80032 14.8086 9.68888 14.8086 9.57744C14.8086 9.466 14.8218 9.35455 14.8414 9.24311C14.8611 9.13823 14.9004 9.02678 14.9398 8.92845C14.9856 8.83012 15.0381 8.73179 15.0971 8.64002C15.1561 8.54168 15.2282 8.45646 15.3069 8.3778C15.9362 7.74848 17.0703 7.74848 17.6996 8.3778C18.0142 8.69246 18.1978 9.12512 18.1978 9.57088C18.1978 9.68232 18.1847 9.79377 18.165 9.90521L18.1585 9.91176ZM101.989 55.2555C99.2422 56.8746 95.7613 56.1535 93.8733 53.6822C93.7881 53.7412 93.6898 53.7805 93.5914 53.8198L80.6183 58.3562C80.5003 58.3955 80.3823 58.4217 80.2643 58.4414C80.2381 61.1094 78.4747 63.548 75.787 64.3412C72.483 65.3049 69.0152 63.4169 68.045 60.1065C67.9402 59.7393 67.8615 59.3722 67.8287 59.0051C67.75 59.0051 67.6779 58.9855 67.5993 58.9789L51.7811 56.3043C51.7024 56.2912 51.6303 56.2715 51.5582 56.2453C50.824 57.8055 49.4539 59.051 47.6709 59.5755C45.8878 60.0999 44.0588 59.7918 42.597 58.8675C42.5511 58.9265 42.4986 58.9855 42.4397 59.0379L30.5613 69.8347C30.5023 69.8871 30.4433 69.933 30.3777 69.9789C30.5482 70.3066 30.6793 70.6541 30.7907 71.0212C31.7609 74.3251 29.8664 77.7995 26.5559 78.7631C23.252 79.7333 19.7842 77.8388 18.8205 74.5283C17.8503 71.2244 19.7449 67.7566 23.0553 66.7864C24.8318 66.2685 26.6608 66.5766 28.1227 67.4944C28.1751 67.4354 28.221 67.3829 28.28 67.3305L40.1584 56.5338C40.2174 56.4813 40.2829 56.4354 40.3419 56.3895C40.1715 56.0552 40.0338 55.7078 39.9224 55.3407C38.9587 52.0368 40.8467 48.569 44.1572 47.5988C47.4611 46.6351 50.9289 48.5231 51.8991 51.8335C52.004 52.2006 52.0826 52.5743 52.1154 52.9414C52.1941 52.9414 52.2662 52.9545 52.3449 52.9611L68.163 55.6422C68.2417 55.6553 68.3138 55.6684 68.3859 55.7012C69.1201 54.141 70.4902 52.889 72.2733 52.3645C75.079 51.5385 77.9961 52.7775 79.4121 55.1899C79.4383 55.1702 79.4711 55.1637 79.5039 55.1506L92.477 50.6142C92.5229 50.5946 92.5753 50.588 92.6212 50.5749C92.359 48.2084 93.4669 45.796 95.6498 44.5112C98.6194 42.7609 102.441 43.7507 104.192 46.7138C105.942 49.6834 104.952 53.5052 101.989 55.2555Z" fill="url(#paint0_linear_356_4278)"/>
<path d="M77.0718 94.7319H51.2501V108.308H77.0718V94.7319Z" fill="url(#paint1_linear_356_4278)"/>
<path d="M80.7428 110H47.5791C46.6417 110 45.8878 109.24 45.8878 108.309C45.8878 107.378 46.6482 106.617 47.5791 106.617H80.7428C81.6803 106.617 82.4341 107.378 82.4341 108.309C82.4341 109.24 81.6737 110 80.7428 110Z" fill="url(#paint2_linear_356_4278)"/>
<defs>
<linearGradient id="paint0_linear_356_4278" x1="64.1642" y1="-9.30867" x2="64.1642" y2="163" gradientUnits="userSpaceOnUse">
<stop stop-color="#E4FDFF"/>
<stop offset="1" stop-color="#3BE4AF"/>
</linearGradient>
<linearGradient id="paint1_linear_356_4278" x1="64.1642" y1="87.9995" x2="64.1642" y2="111.5" gradientUnits="userSpaceOnUse">
<stop stop-color="#3BE4AF"/>
<stop offset="1" stop-color="#DDFDFC"/>
</linearGradient>
<linearGradient id="paint2_linear_356_4278" x1="97.2842" y1="108.309" x2="45.8878" y2="108.309" gradientUnits="userSpaceOnUse">
<stop stop-color="#3BE4AF"/>
<stop offset="1" stop-color="#FBFFFC"/>
</linearGradient>
</defs>
</svg>
