<svg width="147" height="115" viewBox="0 0 147 115" fill="none" xmlns="http://www.w3.org/2000/svg">
<path d="M134.185 25.1254C135.478 23.4747 136.7 21.7941 137.856 20.0777L144.227 22.6999L146.098 0L132.195 11.8714H126.456V4.91663H113.452V11.8714H0V92.8497H134.185V25.1254ZM129.394 14.9883L131.074 16.1802V22.3721C129.602 24.2613 128.065 26.0849 126.456 27.8311V14.9883H129.394ZM3.11088 89.7448V14.9883H113.452V39.631C110.943 41.544 108.362 43.3497 105.728 45.0422V17.3244H92.7246V52.3904C90.156 53.6657 87.5755 54.8576 85.001 55.9661V29.2435H71.9973V60.9602C69.3751 61.8541 66.7946 62.6706 64.2737 63.4096V43.4928H51.27V66.8006C48.6359 67.4025 46.0554 67.9507 43.5464 68.4394V52.301H30.5427V70.6266C27.7953 71.014 25.2148 71.3358 22.8191 71.6039V63.7016H9.81537V72.7065C7.06802 72.8554 5.50066 72.8793 5.43511 72.8793L5.48278 77.0271C5.54834 77.0271 7.09782 77.0033 9.81537 76.8603V86.2048H22.8191V75.7816C25.2089 75.5194 27.7953 75.1975 30.5427 74.8161V86.2048H43.5464V72.6647C46.0554 72.182 48.6359 71.6516 51.27 71.0557V86.2048H64.2737V67.7243C66.9019 66.9674 69.4764 66.1748 71.9973 65.3405V86.2048H85.001V60.4894C87.647 59.3809 90.2216 58.2248 92.7246 57.0209V86.2048H105.728V49.947C108.41 48.2962 110.985 46.5798 113.452 44.7979V86.2048H126.456V33.8025C128.071 32.1994 129.602 30.5486 131.074 28.868V89.7448H3.11088Z" fill="url(#paint0_linear_367_6019)"/>
<path d="M69.6848 93.492C57.8074 93.492 48.1768 103.123 48.1768 115H91.1928C91.1928 103.123 81.5621 93.492 69.6848 93.492Z" fill="url(#paint1_linear_367_6019)"/>
<defs>
<linearGradient id="paint0_linear_367_6019" x1="0" y1="46.4308" x2="146.104" y2="46.4308" gradientUnits="userSpaceOnUse">
<stop stop-color="#E4FDFF"/>
<stop offset="1" stop-color="#3BE4AF"/>
</linearGradient>
<linearGradient id="paint1_linear_367_6019" x1="69.6848" y1="124.577" x2="69.6848" y2="85.6612" gradientUnits="userSpaceOnUse">
<stop stop-color="#E4FDFF"/>
<stop offset="1" stop-color="#3BE4AF"/>
</linearGradient>
</defs>
</svg>
