<svg width="138" height="134" viewBox="0 0 138 134" fill="none" xmlns="http://www.w3.org/2000/svg">
<path d="M61.5359 18.9603L63.8267 8.67468H86.1189L88.4211 18.9603L102.508 24.7955L111.403 19.1427L127.17 34.9045L121.518 43.8111L127.353 57.8976L137.644 60.1884V82.4806L127.353 84.7828L121.518 98.8693L127.17 107.765L111.409 123.526L102.508 117.879L88.4211 123.714L86.1246 134H63.8324L61.5302 123.714L47.4494 117.879L38.5485 123.532L22.7867 107.77L28.4338 98.8636L22.6043 84.7771L12.313 82.4863V60.1941L22.6043 57.8919L28.4395 43.8054L22.781 34.9102L38.5485 19.1484L47.4494 24.7955L61.5359 18.9603Z" fill="url(#paint0_linear_356_5609)"/>
<path d="M103.021 99.8242C102.599 99.8242 102.172 99.6703 101.841 99.3512C101.157 98.7016 101.135 97.6189 101.784 96.9351L102.046 96.6616C102.69 95.972 103.773 95.9322 104.463 96.5761C105.152 97.22 105.192 98.3027 104.542 98.9922L104.257 99.2942C103.921 99.6475 103.471 99.8242 103.021 99.8242Z" fill="white"/>
<path d="M74.9786 111.82C52.6579 111.82 34.4971 93.6589 34.4971 71.3325C34.4971 49.0061 52.6579 30.851 74.9786 30.851C97.2994 30.851 115.46 49.0118 115.46 71.3325C115.46 77.9769 113.813 84.5643 110.702 90.388C110.258 91.22 109.22 91.5334 108.388 91.089C107.557 90.6445 107.243 89.6074 107.688 88.7754C110.537 83.4474 112.041 77.4127 112.041 71.3325C112.041 50.8923 95.4132 34.27 74.9786 34.27C54.5441 34.27 37.9161 50.898 37.9161 71.3325C37.9161 91.7671 54.5441 108.401 74.9786 108.401C81.0418 108.401 87.0593 106.902 92.3759 104.07C93.2079 103.625 94.245 103.945 94.6895 104.777C95.134 105.609 94.8205 106.646 93.9829 107.09C88.1762 110.184 81.6002 111.82 74.9786 111.82Z" fill="white"/>
<path d="M9.80008 31.911C9.48667 31.911 9.17325 31.8255 8.88833 31.6488C8.09055 31.1474 7.85122 30.0875 8.35268 29.2897C16.3305 16.6335 27.6874 6.56439 41.2041 0.165067C42.0588 -0.239521 43.0789 0.125178 43.4834 0.979941C43.888 1.8347 43.5233 2.85472 42.6686 3.25931C29.7445 9.37941 18.8777 19.0097 11.2532 31.1189C10.9284 31.6374 10.3756 31.9167 9.80578 31.9167L9.80008 31.911ZM3.33237 47.9691C3.74836 46.6927 4.20993 45.4105 4.69429 44.1512C5.0362 43.2679 4.59742 42.2821 3.71986 41.9402C2.83661 41.5983 1.85078 42.0371 1.50888 42.9146C1.00172 44.2309 0.523051 45.5701 0.0842723 46.9035C-0.206347 47.7982 0.278019 48.7669 1.17837 49.0575C1.35502 49.1145 1.53167 49.143 1.70832 49.143C2.42632 49.143 3.09874 48.6871 3.33237 47.9634V47.9691Z" fill="url(#paint1_linear_356_5609)"/>
<path d="M67.81 91.3854H53.752C52.8061 91.3854 52.0425 90.6219 52.0425 89.6759V73.3386C52.0425 72.3926 52.8061 71.629 53.752 71.629H60.7782C61.7241 71.629 62.4877 72.3926 62.4877 73.3386C62.4877 74.2845 61.7241 75.0481 60.7782 75.0481H55.4615V87.9664H67.81C68.7559 87.9664 69.5195 88.73 69.5195 89.6759C69.5195 90.6219 68.7559 91.3854 67.81 91.3854Z" fill="white"/>
<path d="M82.0046 91.3849H67.8099C66.8639 91.3849 66.1003 90.6213 66.1003 89.6754V65.9471C66.1003 65.0012 66.8639 64.2376 67.8099 64.2376H75.2634C76.2093 64.2376 76.9729 65.0012 76.9729 65.9471C76.9729 66.8931 76.2093 67.6567 75.2634 67.6567H69.5194V87.9658H82.0046C82.9506 87.9658 83.7142 88.7294 83.7142 89.6754C83.7142 90.6213 82.9506 91.3849 82.0046 91.3849Z" fill="white"/>
<path d="M95.0657 91.3846H82.0049C81.059 91.3846 80.2954 90.621 80.2954 89.6751V55.2737C80.2954 54.3278 81.059 53.5642 82.0049 53.5642H95.0657C96.0117 53.5642 96.7752 54.3278 96.7752 55.2737C96.7752 56.2197 96.0117 56.9833 95.0657 56.9833H83.7145V87.9656H93.3562V63.5934C93.3562 62.6475 94.1198 61.8839 95.0657 61.8839C96.0117 61.8839 96.7752 62.6475 96.7752 63.5934V89.6751C96.7752 90.621 96.0117 91.3846 95.0657 91.3846Z" fill="white"/>
<defs>
<linearGradient id="paint0_linear_356_5609" x1="32.6355" y1="39.5009" x2="155.833" y2="71.3402" gradientUnits="userSpaceOnUse">
<stop stop-color="#E4F2FF"/>
<stop offset="1" stop-color="#0088FF"/>
</linearGradient>
<linearGradient id="paint1_linear_356_5609" x1="-9.8645" y1="62.5" x2="59.6355" y2="-10" gradientUnits="userSpaceOnUse">
<stop stop-color="#E4F2FF"/>
<stop offset="1" stop-color="#0088FF"/>
</linearGradient>
</defs>
</svg>
