<svg width="121" height="117" viewBox="0 0 121 117" fill="none" xmlns="http://www.w3.org/2000/svg">
<path d="M88.1878 67.6646C88.1119 67.6646 88.0512 67.7253 88.0512 67.7936V93.7209H79.4821C79.4366 93.7209 79.3911 93.7513 79.3759 93.7816C79.3455 93.85 79.3531 93.9031 79.3835 93.941L86.3207 101.827C98.0472 94.0169 106.639 81.8654 109.789 67.6646H88.1878ZM55.5586 0C24.8723 0 0 24.8799 0 55.5586C0 86.2372 24.8723 111.117 55.5586 111.117C65.3572 111.117 74.5563 108.582 82.5485 104.127L76.1198 96.8176C74.9585 95.5046 74.6777 93.6147 75.4063 92.0056C76.1122 90.4117 77.7137 89.3719 79.4821 89.3719H83.7022V67.7936C83.7022 65.3193 85.7135 63.3079 88.1878 63.3079H110.578C110.935 60.7729 111.117 58.1847 111.117 55.5586C111.117 24.8799 86.2372 0 55.5586 0ZM63.2093 66.7082L59.3763 72.2641L47.3083 89.7438L49.3348 59.9987L37.2136 60.0139L39.8549 55.5586L43.1186 50.0407L60.105 21.3809L59.2169 51.2399H73.8959L63.2093 66.7082Z" fill="url(#paint0_linear_356_4270)"/>
<path d="M120.073 93.9417L99.831 116.947C99.7855 117 99.7399 117 99.7247 117C99.6792 117 99.6488 116.97 99.6337 116.947L86.3209 101.828L79.3836 93.9417C79.3836 93.9417 79.3457 93.8506 79.376 93.7823C79.3912 93.7519 79.4368 93.7216 79.4823 93.7216H88.0514V67.7943C88.0514 67.7259 88.1121 67.6652 88.188 67.6652H111.277C111.345 67.6652 111.406 67.7184 111.406 67.7943V93.7216H119.967C120.028 93.7216 120.066 93.7519 120.089 93.7975C120.111 93.8506 120.111 93.9037 120.073 93.9417Z" fill="url(#paint1_linear_356_4270)"/>
<defs>
<linearGradient id="paint0_linear_356_4270" x1="9" y1="55.5586" x2="146" y2="55.5586" gradientUnits="userSpaceOnUse">
<stop stop-color="#E4F2FF"/>
<stop offset="1" stop-color="#0088FF"/>
</linearGradient>
<linearGradient id="paint1_linear_356_4270" x1="67.5" y1="92.3326" x2="120.104" y2="92.3326" gradientUnits="userSpaceOnUse">
<stop stop-color="#0088FF"/>
<stop offset="1" stop-color="#E4F2FF"/>
</linearGradient>
</defs>
</svg>
