<svg width="138" height="136" viewBox="0 0 138 136" fill="none" xmlns="http://www.w3.org/2000/svg">
<path d="M122.34 61.173C122.34 69.3161 120.752 77.085 117.861 84.1959C114.468 82.3668 110.581 81.3225 106.452 81.3225C93.172 81.3225 82.4031 92.0915 82.4031 105.372C82.4031 109.706 83.55 113.774 85.5601 117.287C78.087 120.541 69.8353 122.346 61.167 122.346C27.3872 122.34 0 94.9528 0 61.173C0 27.3932 27.3872 0 61.173 0C94.9588 0 122.346 27.3872 122.346 61.173H122.34Z" fill="url(#paint0_linear_367_6024)"/>
<path d="M90.5284 56.2114C89.4418 51.7445 87.6611 47.0844 85.2405 42.3639C81.1297 34.3415 76.5058 28.8182 76.4575 28.7638C76.21 28.4681 75.7754 28.4017 75.4554 28.6129C75.1295 28.8242 75.0148 29.2407 75.1838 29.5908C78.8419 37.1605 78.1597 44.3378 73.1676 50.9175C70.8738 53.9357 68.1514 56.139 66.3525 57.4127C67.928 53.0483 68.6041 48.684 68.3506 44.4042C68.1152 40.39 67.0709 36.4482 65.2479 32.6936C62.1512 26.307 57.9197 22.7033 57.7386 22.5524C57.5756 22.4196 57.3703 22.3532 57.1651 22.3773C56.9599 22.4015 56.7667 22.5041 56.6399 22.6731C52.1971 28.4439 48.7986 34.2751 46.5531 40.0036C44.7482 44.6034 43.6677 49.1548 43.3538 53.5252C42.9675 58.8191 43.7884 62.5376 44.3317 64.3364C39.8527 63.2499 36.3757 56.1511 36.3395 56.0786C36.2067 55.807 35.935 55.638 35.6332 55.644C35.3314 55.644 35.0658 55.8251 34.9451 56.1028C29.6391 68.079 29.126 77.7855 33.4058 84.9689C35.9713 89.2668 40.3356 92.6351 46.04 94.7177C50.3198 96.2751 53.8028 96.5648 53.9477 96.5769C54.2857 96.6071 54.5996 96.4079 54.7204 96.094C54.8411 95.7801 54.7445 95.4179 54.4789 95.2127C54.4487 95.1885 51.6961 92.9973 49.5954 89.6592C47.0843 85.6751 46.5289 81.8541 47.9475 78.2745C49.692 80.0251 53.4044 83.4839 55.5473 83.4839C55.8069 83.4839 56.0423 83.3572 56.1872 83.1398C56.3321 82.9286 56.3562 82.6569 56.2536 82.4155C56.2355 82.3732 54.4729 78.1357 53.6036 72.5761C52.8611 67.8013 52.6499 61.0949 55.6439 55.5414C58.1249 59.1874 66.4129 72.2622 63.111 79.8802C62.9782 80.182 63.0566 80.5321 63.2981 80.7555C63.5396 80.9788 63.8957 81.0211 64.1855 80.8581C64.282 80.8038 66.5215 79.5603 68.2781 77.2543C69.4975 75.6547 70.6444 73.3126 70.3003 70.3789C71.4714 71.8699 72.89 73.9464 73.9886 76.4153C77.0068 83.1881 76.3005 89.5565 71.8879 95.3334C71.6646 95.6231 71.6827 96.0336 71.9241 96.3113C72.075 96.4803 72.2863 96.5709 72.4976 96.5709C72.6304 96.5709 72.7692 96.5346 72.89 96.4622C83.4476 90.2025 89.6591 81.9809 91.3433 72.0328C92.1703 67.1434 91.8986 61.8192 90.5344 56.2054L90.5284 56.2114Z" fill="white"/>
<path d="M134.641 127.741L114.567 107.667C113.131 106.232 110.803 106.232 109.368 107.667L109.364 107.671C107.928 109.107 107.928 111.435 109.364 112.87L129.438 132.945C130.873 134.38 133.201 134.38 134.637 132.945L134.641 132.94C136.077 131.505 136.077 129.177 134.641 127.741Z" fill="url(#paint1_linear_367_6024)"/>
<path d="M106.459 126.36C118.054 126.36 127.453 116.96 127.453 105.365C127.453 93.7703 118.054 84.3707 106.459 84.3707C94.8635 84.3707 85.4639 93.7703 85.4639 105.365C85.4639 116.96 94.8635 126.36 106.459 126.36Z" fill="url(#paint2_linear_367_6024)"/>
<path d="M94.0594 111.746C93.3652 111.746 92.6891 111.384 92.3269 110.732C89.0793 104.943 91.1438 97.5908 96.9327 94.3372C97.8865 93.7999 99.0998 94.1379 99.637 95.0977C100.174 96.0515 99.8362 97.2648 98.8764 97.8021C94.995 99.9812 93.6127 104.907 95.7918 108.788C96.3291 109.742 95.991 110.955 95.0312 111.493C94.7234 111.668 94.3914 111.746 94.0594 111.746Z" fill="white"/>
<defs>
<linearGradient id="paint0_linear_367_6024" x1="0" y1="61.173" x2="122.34" y2="61.173" gradientUnits="userSpaceOnUse">
<stop stop-color="#E4F2FF"/>
<stop offset="1" stop-color="#0088FF"/>
</linearGradient>
<linearGradient id="paint1_linear_367_6024" x1="108.29" y1="120.307" x2="135.72" y2="120.307" gradientUnits="userSpaceOnUse">
<stop stop-color="#E4F2FF"/>
<stop offset="1" stop-color="#0088FF"/>
</linearGradient>
<linearGradient id="paint2_linear_367_6024" x1="85.4578" y1="105.365" x2="127.453" y2="105.365" gradientUnits="userSpaceOnUse">
<stop stop-color="#E4F2FF"/>
<stop offset="1" stop-color="#0088FF"/>
</linearGradient>
</defs>
</svg>
