<svg width="154" height="130" viewBox="0 0 154 130" fill="none" xmlns="http://www.w3.org/2000/svg">
<path d="M91.2721 17.7198H139.533V8.95897C139.533 4.01296 135.534 0 130.606 0H8.92646C3.99428 0 0 4.01296 0 8.95897V17.7198H64.2171C65.2413 17.7198 66.0682 18.5537 66.0682 19.5776C66.0682 20.6015 65.2413 21.4355 64.2171 21.4355H0V103.73C0 108.676 3.99428 112.685 8.92646 112.685H121.77V91.1214C121.77 89.8209 122.527 88.6442 123.708 88.1117C124.144 87.9135 124.604 87.8185 125.061 87.8185C125.847 87.8185 126.624 88.0993 127.237 88.6443L139.533 99.5189V21.4355H91.2721C90.2519 21.4355 89.421 20.6056 89.421 19.5776C89.421 18.5496 90.2519 17.7198 91.2721 17.7198ZM11.9582 10.4246C11.9376 10.5402 11.9006 10.6599 11.8553 10.7714C11.8101 10.8829 11.7525 10.9902 11.6826 11.0934C11.6167 11.1925 11.5386 11.2875 11.4522 11.3742C11.3699 11.4609 11.2753 11.5393 11.1725 11.6054C11.0738 11.6714 10.9668 11.7292 10.8516 11.7746C10.7406 11.8242 10.6254 11.8572 10.5061 11.882C10.3868 11.9068 10.2675 11.9191 10.1441 11.9191C10.0207 11.9191 9.90138 11.9068 9.78209 11.882C9.66691 11.8572 9.54761 11.8242 9.43655 11.7746C9.32548 11.7292 9.21853 11.6714 9.1198 11.6054C9.01696 11.5393 8.92235 11.4609 8.83596 11.3742C8.74958 11.2875 8.67142 11.1925 8.6056 11.0934C8.53979 10.9902 8.4822 10.8829 8.43695 10.7714C8.3917 10.6599 8.35468 10.5402 8.32999 10.4246C8.30531 10.3049 8.29297 10.181 8.29297 10.0613C8.29297 9.94157 8.30531 9.81771 8.32999 9.69798C8.35468 9.57825 8.3917 9.46265 8.43695 9.35118C8.4822 9.23558 8.53979 9.12824 8.6056 9.02915C8.67142 8.92594 8.74958 8.83098 8.83596 8.74841C8.92235 8.66171 9.01696 8.58327 9.1198 8.51721C9.21853 8.44703 9.32548 8.38923 9.43655 8.34381C9.54761 8.2984 9.66691 8.26124 9.78209 8.2406C10.0207 8.19106 10.2675 8.19106 10.5061 8.2406C10.6254 8.26124 10.7406 8.2984 10.8516 8.34381C10.9668 8.38923 11.0738 8.44703 11.1725 8.51721C11.2753 8.58327 11.3699 8.66171 11.4522 8.74841C11.5386 8.83098 11.6167 8.92594 11.6867 9.02915C11.7525 9.12824 11.8101 9.23558 11.8553 9.35118C11.9006 9.46265 11.9376 9.57825 11.9582 9.69798C11.9829 9.81771 11.9952 9.93744 11.9952 10.0613C11.9952 10.1852 11.9829 10.3049 11.9582 10.4246ZM21.1602 10.4246C21.1397 10.5402 21.1027 10.6599 21.0574 10.7714C21.0122 10.8829 20.9546 10.9902 20.8846 11.0934C20.8188 11.1925 20.7407 11.2875 20.6543 11.3742C20.572 11.4609 20.4774 11.5352 20.3745 11.6054C20.2758 11.6714 20.1689 11.7292 20.0537 11.7746C19.9426 11.8242 19.8274 11.8572 19.7082 11.882C19.5889 11.9068 19.4696 11.9191 19.3462 11.9191C19.2227 11.9191 19.1035 11.9068 18.9842 11.882C18.869 11.8572 18.7497 11.8242 18.6386 11.7746C18.5276 11.7292 18.4206 11.6714 18.3219 11.6054C18.219 11.5352 18.1244 11.4609 18.038 11.3742C17.9517 11.2875 17.8776 11.1925 17.8077 11.0934C17.7419 10.9902 17.6843 10.8829 17.639 10.7714C17.5938 10.6599 17.5567 10.5402 17.5321 10.4246C17.5074 10.3049 17.495 10.181 17.495 10.0613C17.495 9.94157 17.5074 9.81771 17.5321 9.69798C17.5567 9.57825 17.5897 9.46265 17.639 9.35118C17.6843 9.23971 17.7419 9.12824 17.8077 9.02915C17.8735 8.92594 17.9517 8.83098 18.038 8.74841C18.1244 8.66171 18.219 8.58327 18.3178 8.51721C18.4206 8.44703 18.5276 8.39336 18.6386 8.34381C18.7497 8.2984 18.869 8.26537 18.9842 8.2406C19.2227 8.19106 19.4696 8.19106 19.7082 8.2406C19.8274 8.26537 19.9426 8.2984 20.0537 8.34381C20.1689 8.39336 20.2758 8.44703 20.3745 8.51721C20.4774 8.58327 20.572 8.66171 20.6543 8.74841C20.7407 8.83098 20.8188 8.92594 20.8846 9.02915C20.9546 9.12824 21.0122 9.23971 21.0574 9.35118C21.1027 9.46265 21.1397 9.57825 21.1602 9.69798C21.1849 9.81771 21.1973 9.93744 21.1973 10.0613C21.1973 10.1852 21.1849 10.3049 21.1602 10.4246ZM30.3664 10.4246C30.3417 10.5402 30.3047 10.6599 30.2595 10.7714C30.2142 10.8829 30.1566 10.9902 30.0908 11.0934C30.0209 11.1925 29.9427 11.2875 29.8563 11.3742C29.7741 11.4609 29.6795 11.5352 29.5766 11.6054C29.4779 11.6714 29.3709 11.7292 29.2599 11.7746C29.1447 11.8242 29.0295 11.8572 28.9102 11.882C28.7909 11.9068 28.6716 11.9191 28.5523 11.9191C28.4331 11.9191 28.3096 11.9068 28.1862 11.882C28.0711 11.8572 27.9518 11.8242 27.8407 11.7746C27.7296 11.7292 27.6227 11.6714 27.5239 11.6054C27.4211 11.5352 27.3265 11.4609 27.2401 11.3742C27.1537 11.2875 27.0797 11.1925 27.0098 11.0934C26.9439 10.9902 26.8863 10.8829 26.8411 10.7714C26.7958 10.6599 26.7588 10.5402 26.7341 10.4246C26.7095 10.3049 26.6971 10.181 26.6971 10.0613C26.6971 9.57 26.8946 9.09108 27.2401 8.74841C27.3265 8.66171 27.4211 8.58327 27.5239 8.51721C27.6227 8.44703 27.7296 8.38923 27.8407 8.34381C27.9518 8.2984 28.0711 8.26124 28.1862 8.23647C28.4289 8.19106 28.6716 8.19106 28.9102 8.23647C29.0295 8.26124 29.1447 8.2984 29.2599 8.34381C29.3709 8.38923 29.4779 8.44703 29.5766 8.51721C29.6795 8.58327 29.7741 8.66171 29.8605 8.74841C30.206 9.09108 30.4035 9.57 30.4035 10.0613C30.4035 10.181 30.3911 10.3049 30.3664 10.4246ZM127.299 81.9973L128.525 77.8894C128.817 76.9068 129.849 76.3494 130.828 76.6425C131.807 76.9398 132.363 77.9761 132.071 78.9587L130.845 83.0624C130.602 83.8675 129.87 84.3877 129.072 84.3877C128.895 84.3877 128.718 84.3629 128.541 84.3093C127.562 84.0161 127.003 82.9799 127.299 81.9973ZM50.6505 42.6769C62.7403 40.4227 72.909 32.1532 77.6479 20.8657L73.8881 22.8928C72.9872 23.3759 71.8683 23.0373 71.3829 22.1332C70.8975 21.229 71.2389 20.1019 72.1357 19.6189L80.1983 15.2715C80.1983 15.2715 80.2106 15.2633 80.2189 15.2633C80.2559 15.2426 80.2929 15.222 80.3341 15.2055C80.3505 15.1972 80.367 15.189 80.3875 15.1848C80.4204 15.1683 80.4575 15.1559 80.4945 15.1435C80.5109 15.1394 80.5274 15.1312 80.548 15.127C80.5809 15.1146 80.6179 15.1064 80.6549 15.0981C80.6673 15.094 80.6837 15.0899 80.7002 15.0899C80.7413 15.0775 80.7866 15.0692 80.8277 15.0651C80.8441 15.0651 80.8606 15.061 80.8729 15.061C80.9388 15.0527 81.0087 15.0486 81.0745 15.0486C81.202 15.0486 81.3337 15.061 81.4612 15.0899C81.5064 15.0981 81.5517 15.1105 81.5969 15.127H81.6052C81.6627 15.1435 81.7203 15.1642 81.7738 15.189C81.8396 15.2137 81.9013 15.2426 81.9589 15.2757H81.963C82.0206 15.3128 82.0782 15.3458 82.1317 15.383C82.1975 15.4284 82.2592 15.478 82.3168 15.5275C82.3621 15.5688 82.3991 15.6101 82.4402 15.6514C82.4855 15.7009 82.5307 15.7546 82.5677 15.8082C82.6048 15.8578 82.6377 15.9073 82.6706 15.961C82.6747 15.9734 82.6829 15.9858 82.687 15.9982C82.7199 16.0518 82.7446 16.1055 82.7693 16.1592C82.8022 16.2335 82.831 16.3078 82.8516 16.3821L85.5789 25.1181C85.8833 26.0966 85.3403 27.137 84.3654 27.4466C84.1803 27.5044 83.9951 27.5292 83.81 27.5292C83.0243 27.5292 82.2921 27.0214 82.0453 26.2287L80.9264 22.6327C75.6446 34.8946 64.5256 43.87 51.3292 46.3307C51.214 46.3513 51.0989 46.3596 50.9878 46.3596C50.1116 46.3596 49.3341 45.7362 49.1696 44.8444C48.9845 43.8329 49.6468 42.8627 50.6505 42.6769ZM118.771 77.4393C119.705 77.0141 120.799 77.4352 121.219 78.3724L122.971 82.278C123.387 83.2152 122.971 84.3175 122.042 84.7345C121.795 84.846 121.536 84.8997 121.281 84.8997C120.577 84.8997 119.903 84.4909 119.594 83.8015L117.842 79.8917C117.422 78.9587 117.842 77.8563 118.771 77.4393ZM110.174 85.9566C110.606 85.0276 111.704 84.623 112.634 85.0565L116.505 86.8607C117.434 87.2942 117.838 88.4007 117.406 89.3296C117.093 90.0067 116.422 90.403 115.723 90.403C115.464 90.403 115.201 90.3493 114.946 90.2296L111.075 88.4254C110.145 87.9919 109.742 86.8896 110.174 85.9566ZM98.224 40.9264C99.2442 40.9264 100.075 41.7604 100.075 42.7842C100.075 43.8081 99.2442 44.6421 98.224 44.6421H82.0823V88.4874H96.3729V51.1817C96.3729 50.1578 97.1997 49.3239 98.224 49.3239C99.2483 49.3239 100.075 50.1578 100.075 51.1817V90.3452C100.075 91.3732 99.2442 92.2031 98.224 92.2031H41.3085C40.2843 92.2031 39.4574 91.3732 39.4574 90.3452V67.7579C39.4574 66.734 40.2843 65.9 41.3085 65.9H50.9919C52.0121 65.9 52.843 66.734 52.843 67.7579C52.843 68.7818 52.0121 69.6157 50.9919 69.6157H43.1597V88.4874H58.8242V57.5397C58.8242 56.5117 59.651 55.6818 60.6753 55.6818H70.9428C71.967 55.6818 72.7939 56.5117 72.7939 57.5397C72.7939 58.5677 71.967 59.3975 70.9428 59.3975H62.5264V88.4874H78.3801V42.7842C78.3801 41.7604 79.211 40.9264 80.2312 40.9264H98.224Z" fill="url(#paint0_linear_356_4336)"/>
<path d="M154 116.714L135.983 114.757L125.061 130V91.1213L139.528 103.916L154 116.714Z" fill="url(#paint1_linear_356_4336)"/>
<path d="M81.7738 15.1889C81.7203 15.1641 81.6627 15.1435 81.6051 15.127C81.6339 15.1352 81.6627 15.1476 81.6915 15.1559C81.7203 15.1641 81.7491 15.1765 81.7738 15.1889Z" fill="white"/>
<defs>
<linearGradient id="paint0_linear_356_4336" x1="-13.6941" y1="119.163" x2="121.057" y2="11.6498" gradientUnits="userSpaceOnUse">
<stop stop-color="#E4F2FF"/>
<stop offset="1" stop-color="#0088FF"/>
</linearGradient>
<linearGradient id="paint1_linear_356_4336" x1="115.764" y1="103.561" x2="146.606" y2="126.61" gradientUnits="userSpaceOnUse">
<stop stop-color="#E4F2FF"/>
<stop offset="1" stop-color="#0088FF"/>
</linearGradient>
</defs>
</svg>
