<svg width="167" height="152" viewBox="0 0 167 152" fill="none" xmlns="http://www.w3.org/2000/svg">
<path fill-rule="evenodd" clip-rule="evenodd" d="M46.2188 47.4478V78.6437C46.2188 89.1115 51.5932 98.7092 58.8885 106.259C66.117 113.735 75.2596 119.203 83.1773 121.452C91.0951 119.203 100.238 113.728 107.466 106.259C114.761 98.7092 120.129 89.1115 120.129 78.6437V47.4478C116.863 46.8521 112.6 45.3395 108.115 43.4052C97.9688 39.0414 86.564 32.5827 83.1773 30.6216C79.784 32.5827 68.3792 39.0414 58.2326 43.4052C53.7417 45.3328 49.4916 46.8454 46.2188 47.4478Z" fill="url(#paint0_linear_367_6413)"/>
<path fill-rule="evenodd" clip-rule="evenodd" d="M62.215 75.5512L76.4442 89.7738C77.495 90.8313 79.2151 90.8313 80.2659 89.7738L104.14 65.9C105.197 64.8492 105.197 63.1291 104.14 62.0783C103.089 61.0208 101.369 61.0208 100.318 62.0783L80.2659 82.1237C79.2084 83.1812 77.5017 83.1812 76.4442 82.1237L66.0434 71.7228C64.9859 70.6654 63.2725 70.6654 62.215 71.7228C61.1575 72.7803 61.1575 74.4937 62.215 75.5512Z" fill="white"/>
<path fill-rule="evenodd" clip-rule="evenodd" d="M159.658 76.1277C159.558 109.552 137.21 140.133 103.397 149.195C68.4931 158.545 32.6991 141.926 16.5757 111.199C15.9733 110.048 16.4151 108.622 17.5662 108.02C18.7174 107.411 20.143 107.859 20.7521 109.01C35.8715 137.824 69.4435 153.411 102.179 144.637C134.272 136.036 155.354 106.768 154.933 74.9832L150.756 77.9683C149.699 78.7246 148.226 78.4836 147.47 77.4262C146.714 76.362 146.955 74.8895 148.012 74.1332L155.656 68.6717C156.559 68.0225 157.784 68.0962 158.607 68.8391L165.581 75.1305C166.552 76.0005 166.625 77.4931 165.755 78.4569C164.885 79.4274 163.393 79.501 162.429 78.6309C162.429 78.6309 161.043 77.3793 159.658 76.1277ZM12.6134 78.1088L17.9277 74.1332C18.9651 73.3568 20.4442 73.571 21.2273 74.6084C22.0037 75.6525 21.7962 77.1317 20.7521 77.9081L12.0245 84.4404C11.1343 85.103 9.90949 85.0628 9.07287 84.34L0.820434 77.2187C-0.170126 76.3687 -0.277214 74.8761 0.572794 73.8923C1.4228 72.9084 2.91533 72.7946 3.8992 73.6446L7.87483 77.0781C7.3327 43.1113 29.8278 11.7882 64.1226 2.59874C99.0264 -6.75135 134.82 9.8673 150.944 40.5947C151.546 41.7459 151.104 43.1715 149.953 43.7739C148.802 44.383 147.376 43.9345 146.767 42.7833C131.648 13.9701 98.076 -1.61784 65.3407 7.15665C32.8061 15.8709 11.5894 45.8286 12.6134 78.1088Z" fill="url(#paint1_linear_367_6413)"/>
<defs>
<linearGradient id="paint0_linear_367_6413" x1="46.2188" y1="76.0401" x2="120.136" y2="76.0401" gradientUnits="userSpaceOnUse">
<stop stop-color="#E4F2FF"/>
<stop offset="1" stop-color="#0088FF"/>
</linearGradient>
<linearGradient id="paint1_linear_367_6413" x1="-0.00280177" y1="75.9002" x2="166.358" y2="75.9002" gradientUnits="userSpaceOnUse">
<stop stop-color="#0088FF"/>
<stop offset="1" stop-color="#E4F2FF"/>
</linearGradient>
</defs>
</svg>
