<svg width="141" height="117" viewBox="0 0 141 117" fill="none" xmlns="http://www.w3.org/2000/svg">
<path d="M139.435 91.1372L123.039 77.7452C122.561 77.3544 121.966 77.1444 121.348 77.1444H74.9361L62.6231 96.7717C60.0917 100.814 56.9187 103.188 54.0198 104.978V106.606C54.0198 108.087 55.2155 109.283 56.697 109.283H121.348C121.966 109.283 122.561 109.073 123.039 108.682L139.435 95.2902C140.059 94.7769 140.421 94.0186 140.421 93.2137C140.421 92.4088 140.059 91.6447 139.435 91.1372ZM91.2213 13.9928L74.8253 0.600777C74.347 0.20998 73.7462 0 73.1338 0H56.697C55.2155 0 54.0198 1.19572 54.0198 2.67725V5.66946C54.1831 5.66363 54.3406 5.6578 54.4981 5.6578C56.872 5.6578 59.1935 6.32857 61.1999 7.58845C64.3905 9.58909 66.4611 12.8146 67.0385 16.6701C67.5343 20.0823 66.7644 23.6286 64.8688 26.65L61.4216 32.1386H73.1338C73.7462 32.1386 74.347 31.9286 74.8253 31.5379L91.2213 18.1458C91.8454 17.6325 92.2012 16.8742 92.2012 16.0693C92.2012 15.2644 91.8454 14.5061 91.2213 13.9928ZM115.328 52.565L98.9322 39.173C98.4539 38.7822 97.859 38.5722 97.2407 38.5722H66.8752C65.4754 38.5722 64.3263 39.6454 64.2096 41.0161C64.2388 41.1269 64.268 41.2319 64.2971 41.3428C65.2654 41.6519 66.187 42.0835 67.0444 42.6201C70.1708 44.5858 72.2239 47.8463 72.8247 51.5268C73.4954 51.8009 74.1429 52.1276 74.7612 52.5184C80.6698 56.228 82.4313 64.2189 78.9258 70.7108H97.2407C97.859 70.7108 98.4539 70.5008 98.9322 70.11L115.328 56.718C115.952 56.2047 116.314 55.4464 116.314 54.6415C116.314 53.8366 115.952 53.0783 115.328 52.565Z" fill="url(#paint0_linear_356_5600)"/>
<path d="M74.4695 69.1012L73.4604 70.711L69.4241 77.1446L58.6685 94.293C57.3094 96.4628 55.6937 98.0551 54.0197 99.3325C52.4857 100.511 50.8992 101.421 49.4118 102.284C46.6004 103.911 44.1682 105.311 42.4533 108.041L37.6238 115.746C37.1163 116.557 36.2472 117 35.3548 117C34.8707 117 34.3749 116.866 33.9316 116.592L1.25638 96.0953C0.00232696 95.3079 -0.376804 93.6572 0.410622 92.4031L4.75604 85.4738C5.29266 84.6164 5.65429 81.4375 5.64263 79.1219L6.20258 43.2036C6.30173 37.9833 10.1864 33.807 14.8876 33.807H15.0392C17.419 33.8537 19.618 34.9386 21.2278 36.8575C22.756 38.6715 23.5668 41.028 23.5201 43.5011L23.3743 51.7545L46.3904 15.0663C47.7028 12.9723 49.651 11.4383 51.8791 10.7383C52.5907 10.5167 53.3081 10.3825 54.0197 10.3359C54.1772 10.3301 54.3405 10.3242 54.498 10.3242C55.9912 10.3242 57.4377 10.7383 58.721 11.5433C60.7391 12.809 62.0515 14.8738 62.4189 17.3469C62.7572 19.6567 62.2265 22.0831 60.9141 24.1712L55.9154 32.1388L53.2031 36.4667C54.288 36.6184 55.3379 36.9917 56.2887 37.5925C58.9251 39.2432 60.2433 42.2587 60.045 45.3967C60.15 45.3909 60.2608 45.3909 60.3658 45.3909C61.6898 45.3909 63.0022 45.7 64.1979 46.3591C64.3204 46.4291 64.4429 46.4991 64.5654 46.575C67.4468 48.3831 68.7533 51.8186 68.2284 55.26C69.6633 55.295 71.0456 55.6974 72.2763 56.4674C76.2776 58.9813 77.2634 64.6449 74.4695 69.1012Z" fill="url(#paint1_linear_356_5600)"/>
<defs>
<linearGradient id="paint0_linear_356_5600" x1="97.2232" y1="-4.90537" x2="97.2232" y2="163.06" gradientUnits="userSpaceOnUse">
<stop stop-color="#E4FDFF"/>
<stop offset="1" stop-color="#3BE4AF"/>
</linearGradient>
<linearGradient id="paint1_linear_356_5600" x1="14.211" y1="106.606" x2="61.6548" y2="12.9898" gradientUnits="userSpaceOnUse">
<stop stop-color="#E4FDFF"/>
<stop offset="1" stop-color="#3BE4AF"/>
</linearGradient>
</defs>
</svg>
