<svg width="148" height="126" viewBox="0 0 148 126" fill="none" xmlns="http://www.w3.org/2000/svg">
<path fill-rule="evenodd" clip-rule="evenodd" d="M72.9732 42.2505H21.5361C22.8127 55.3213 33.855 65.557 47.2547 65.557C60.6543 65.557 71.6967 55.3291 72.9732 42.2505Z" fill="#92D0FF"/>
<path fill-rule="evenodd" clip-rule="evenodd" d="M21.3642 29.1722H31.3493V21.2938C31.3493 20.0955 32.3283 19.1166 33.5265 19.1166C34.7247 19.1166 35.7036 20.0955 35.7036 21.2938V29.1722H58.8221V21.2938C58.8221 20.0955 59.801 19.1166 60.9992 19.1166C62.1975 19.1166 63.1764 20.0955 63.1764 21.2938V29.1722H73.1615C72.7464 18.4118 65.7608 9.32727 56.1046 5.81878L54.7732 15.3732C54.6088 16.5635 53.5045 17.3937 52.3142 17.2292C51.1238 17.0648 50.2936 15.9605 50.4581 14.7701L52.3768 1.06508C51.3587 0.595191 49.6123 0 47.2707 0C44.9291 0 43.1827 0.595191 42.1646 1.06508L44.0833 14.7701C44.2477 15.9605 43.4176 17.0648 42.2272 17.2292C41.0368 17.3937 39.9326 16.5635 39.7682 15.3732L38.4368 5.81878C28.7806 9.32727 21.7949 18.4118 21.3799 29.1722H21.3642ZM74.6103 32.759H19.8997C19.1244 32.759 18.3648 33.0723 17.8166 33.6205C17.2605 34.1765 16.9473 34.9283 16.9473 35.7115C16.9473 36.4946 17.2527 37.2464 17.8166 37.8025C18.3648 38.3585 19.1244 38.6639 19.8997 38.6639H74.6103C75.3935 38.6639 76.1453 38.3507 76.7013 37.8025C77.2495 37.2464 77.5628 36.4946 77.5628 35.7115C77.5628 34.9283 77.2574 34.1765 76.7013 33.6205C76.1453 33.0644 75.3935 32.759 74.6103 32.759Z" fill="url(#paint0_linear_367_7218)"/>
<path fill-rule="evenodd" clip-rule="evenodd" d="M102.443 106.195C101.237 106.195 100.266 105.216 100.266 104.017C100.266 102.819 101.237 101.84 102.443 101.84H129.328C130.526 101.84 131.505 102.819 131.505 104.017C131.505 105.216 130.526 106.195 129.328 106.195H102.443Z" fill="#92D0FF"/>
<path fill-rule="evenodd" clip-rule="evenodd" d="M102.443 96.2963C101.237 96.2963 100.266 95.3174 100.266 94.1192C100.266 92.9209 101.237 91.942 102.443 91.942H129.328C130.526 91.942 131.505 92.9209 131.505 94.1192C131.505 95.3174 130.526 96.2963 129.328 96.2963H102.443Z" fill="#92D0FF"/>
<path fill-rule="evenodd" clip-rule="evenodd" d="M102.443 86.397C101.237 86.397 100.266 85.418 100.266 84.2198C100.266 83.0216 101.237 82.0427 102.443 82.0427H129.328C130.526 82.0427 131.505 83.0216 131.505 84.2198C131.505 85.418 130.526 86.397 129.328 86.397H102.443Z" fill="#92D0FF"/>
<path fill-rule="evenodd" clip-rule="evenodd" d="M102.443 66.5994C101.237 66.5994 100.266 65.6205 100.266 64.4223C100.266 63.224 101.237 62.2451 102.443 62.2451H129.328C130.526 62.2451 131.505 63.224 131.505 64.4223C131.505 65.6205 130.526 66.5994 129.328 66.5994H102.443Z" fill="#92D0FF"/>
<path fill-rule="evenodd" clip-rule="evenodd" d="M102.443 76.4976C101.237 76.4976 100.266 75.5187 100.266 74.3205C100.266 73.1222 101.237 72.1433 102.443 72.1433H129.328C130.526 72.1433 131.505 73.1222 131.505 74.3205C131.505 75.5187 130.526 76.4976 129.328 76.4976H102.443Z" fill="#92D0FF"/>
<path d="M141.233 126H90.5475C87.2818 126 84.627 123.345 84.627 120.08V49.4477C84.627 46.182 87.2818 43.5271 90.5475 43.5271H141.233C144.498 43.5271 147.153 46.182 147.153 49.4477V120.072C147.153 123.338 144.498 125.992 141.233 125.992V126ZM90.5475 48.0459C89.7722 48.0459 89.1457 48.6724 89.1457 49.4477V120.072C89.1457 120.847 89.7722 121.474 90.5475 121.474H141.233C142.008 121.474 142.635 120.847 142.635 120.072V49.4477C142.635 48.6724 142.008 48.0459 141.233 48.0459H90.5475Z" fill="url(#paint1_linear_367_7218)"/>
<path fill-rule="evenodd" clip-rule="evenodd" d="M130.464 39.2829H123.729C123.055 35.5708 119.805 32.7515 115.897 32.7515C111.989 32.7515 108.731 35.5708 108.05 39.2829H101.323C100.524 39.2829 99.874 39.9329 99.874 40.7239V50.5602C99.874 51.359 100.524 52.009 101.323 52.009H130.464C131.263 52.009 131.913 51.359 131.913 50.5602V40.7239C131.913 39.9329 131.263 39.2829 130.464 39.2829ZM115.889 42.3137C114.621 42.3137 113.571 41.2799 113.571 40.0034C113.571 38.7269 114.621 37.6775 115.889 37.6775C117.158 37.6775 118.207 38.7269 118.207 40.0034C118.207 41.2799 117.166 42.3137 115.889 42.3137Z" fill="url(#paint2_linear_367_7218)"/>
<path fill-rule="evenodd" clip-rule="evenodd" d="M71.7832 69.1447H62.0722L48.7665 81.9883C47.9207 82.8027 46.5894 82.8027 45.7436 81.9883L32.3753 69.1447H22.7191C16.6889 69.1447 10.9171 71.5411 6.65674 75.8014C2.3886 80.0617 0 85.8413 0 91.8716V125.664H81.3376V71.2513C78.3773 69.8808 75.1194 69.1447 71.791 69.1447H71.7832Z" fill="url(#paint3_linear_367_7218)"/>
<defs>
<linearGradient id="paint0_linear_367_7218" x1="16.9473" y1="19.3281" x2="77.555" y2="19.3281" gradientUnits="userSpaceOnUse">
<stop stop-color="#E4F2FF"/>
<stop offset="1" stop-color="#0088FF"/>
</linearGradient>
<linearGradient id="paint1_linear_367_7218" x1="115.89" y1="39.024" x2="115.89" y2="132.117" gradientUnits="userSpaceOnUse">
<stop stop-color="#E4F2FF"/>
<stop offset="1" stop-color="#0088FF"/>
</linearGradient>
<linearGradient id="paint2_linear_367_7218" x1="99.3806" y1="37.6305" x2="131.623" y2="53.0036" gradientUnits="userSpaceOnUse">
<stop stop-color="#0088FF"/>
<stop offset="1" stop-color="#E4F2FF"/>
</linearGradient>
<linearGradient id="paint3_linear_367_7218" x1="40.6688" y1="123" x2="40.6688" y2="69.0001" gradientUnits="userSpaceOnUse">
<stop stop-color="#E4F2FF"/>
<stop offset="1" stop-color="#0088FF"/>
</linearGradient>
</defs>
</svg>
