<svg width="141" height="141" viewBox="0 0 141 141" fill="none" xmlns="http://www.w3.org/2000/svg">
<path d="M42.0519 140.992C40.2794 140.992 38.8438 139.557 38.8438 137.784V3.2082C38.8438 1.43567 40.2794 0 42.0519 0C43.8245 0 45.2601 1.43567 45.2601 3.2082V137.784C45.2601 139.557 43.8245 140.992 42.0519 140.992ZM64.2206 137.784V3.2082C64.2206 1.43567 62.7849 0 61.0124 0C59.2399 0 57.8042 1.43567 57.8042 3.2082V137.784C57.8042 139.557 59.2399 140.992 61.0124 140.992C62.7849 140.992 64.2206 139.557 64.2206 137.784ZM83.189 137.784V3.2082C83.189 1.43567 81.7534 0 79.9808 0C78.2083 0 76.7727 1.43567 76.7727 3.2082V137.784C76.7727 139.557 78.2083 140.992 79.9808 140.992C81.7534 140.992 83.189 139.557 83.189 137.784ZM102.149 137.784V3.2082C102.149 1.43567 100.714 0 98.9413 0C97.1688 0 95.7331 1.43567 95.7331 3.2082V137.784C95.7331 139.557 97.1688 140.992 98.9413 140.992C100.714 140.992 102.149 139.557 102.149 137.784Z" fill="url(#paint0_linear_367_7255)"/>
<path d="M137.784 102.149H3.2082C1.43567 102.149 0 100.713 0 98.9409C0 97.1683 1.43567 95.7327 3.2082 95.7327H137.784C139.557 95.7327 140.992 97.1683 140.992 98.9409C140.992 100.713 139.557 102.149 137.784 102.149ZM140.992 79.9724C140.992 78.1999 139.557 76.7642 137.784 76.7642H3.2082C1.43567 76.7642 0 78.1999 0 79.9724C0 81.7449 1.43567 83.1806 3.2082 83.1806H137.784C139.557 83.1806 140.992 81.7449 140.992 79.9724ZM140.992 61.012C140.992 59.2394 139.557 57.8038 137.784 57.8038H3.2082C1.43567 57.8038 0 59.2394 0 61.012C0 62.7845 1.43567 64.2202 3.2082 64.2202H137.784C139.557 64.2202 140.992 62.7845 140.992 61.012ZM140.992 42.0515C140.992 40.279 139.557 38.8433 137.784 38.8433H3.2082C1.43567 38.8433 0 40.279 0 42.0515C0 43.824 1.43567 45.2597 3.2082 45.2597H137.784C139.557 45.2597 140.992 43.824 140.992 42.0515Z" fill="url(#paint1_linear_367_7255)"/>
<path d="M110.154 21.8235H30.8312C25.8568 21.8235 21.8242 25.8561 21.8242 30.8306V110.153C21.8242 115.128 25.8568 119.16 30.8312 119.16H110.154C115.128 119.16 119.161 115.128 119.161 110.153V30.8306C119.161 25.8561 115.128 21.8235 110.154 21.8235Z" fill="url(#paint2_linear_367_7255)"/>
<path d="M47.875 85.8753L58.3016 55.1167H67.9022L78.3288 85.8753H70.5489L68.4796 79.3145H57.7402L55.6709 85.8753H47.891H47.875ZM66.7071 73.7724L63.2102 62.7362H62.9696L59.4887 73.7724H66.7151H66.7071Z" fill="white"/>
<path d="M88.803 85.8753H81.5605V55.1167H88.803V85.8753Z" fill="white"/>
<defs>
<linearGradient id="paint0_linear_367_7255" x1="119.498" y1="18.022" x2="21.4954" y2="122.97" gradientUnits="userSpaceOnUse">
<stop stop-color="#E4FDFF"/>
<stop offset="1" stop-color="#3BE4AF"/>
</linearGradient>
<linearGradient id="paint1_linear_367_7255" x1="118.214" y1="19.3936" x2="22.7782" y2="121.599" gradientUnits="userSpaceOnUse">
<stop stop-color="#E4FDFF"/>
<stop offset="1" stop-color="#3BE4AF"/>
</linearGradient>
<linearGradient id="paint2_linear_367_7255" x1="168.559" y1="-34.5204" x2="-24.1893" y2="171.887" gradientUnits="userSpaceOnUse">
<stop stop-color="#E4FDFF"/>
<stop offset="1" stop-color="#3BE4AF"/>
</linearGradient>
</defs>
</svg>
