<svg width="138" height="134" viewBox="0 0 138 134" fill="none" xmlns="http://www.w3.org/2000/svg">
<path d="M61.5364 18.9603L63.8272 8.67468H86.1194L88.4216 18.9603L102.508 24.7955L111.403 19.1427L127.171 34.9045L121.518 43.8111L127.353 57.8976L137.645 60.1884V82.4806L127.353 84.7828L121.518 98.8693L127.171 107.765L111.409 123.526L102.508 117.879L88.4216 123.714L86.1251 134H63.8329L61.5307 123.714L47.4499 117.879L38.549 123.532L22.7872 107.77L28.4343 98.8636L22.6048 84.7771L12.3135 82.4863V60.1941L22.6048 57.8919L28.44 43.8054L22.7815 34.9102L38.549 19.1484L47.4499 24.7955L61.5364 18.9603Z" fill="url(#paint0_linear_367_7230)"/>
<path d="M103.021 99.8242C102.599 99.8242 102.172 99.6703 101.841 99.3512C101.158 98.7016 101.135 97.6189 101.784 96.9351L102.047 96.6616C102.691 95.972 103.773 95.9322 104.463 96.5761C105.152 97.22 105.192 98.3027 104.543 98.9922L104.258 99.2942C103.921 99.6475 103.471 99.8242 103.021 99.8242Z" fill="white"/>
<path d="M74.9786 111.82C52.6579 111.82 34.4971 93.6589 34.4971 71.3325C34.4971 49.0061 52.6579 30.851 74.9786 30.851C97.2994 30.851 115.46 49.0118 115.46 71.3325C115.46 77.9769 113.813 84.5643 110.702 90.388C110.258 91.22 109.22 91.5334 108.388 91.089C107.557 90.6445 107.243 89.6074 107.688 88.7754C110.537 83.4474 112.041 77.4127 112.041 71.3325C112.041 50.8923 95.4132 34.27 74.9786 34.27C54.5441 34.27 37.9161 50.898 37.9161 71.3325C37.9161 91.7671 54.5441 108.401 74.9786 108.401C81.0418 108.401 87.0593 106.902 92.3759 104.07C93.2079 103.625 94.245 103.945 94.6895 104.777C95.134 105.609 94.8205 106.646 93.9829 107.09C88.1762 110.184 81.6002 111.82 74.9786 111.82Z" fill="white"/>
<path d="M9.80008 31.911C9.48667 31.911 9.17325 31.8255 8.88833 31.6488C8.09055 31.1474 7.85122 30.0875 8.35268 29.2897C16.3305 16.6335 27.6874 6.56439 41.2041 0.165067C42.0588 -0.239521 43.0789 0.125178 43.4834 0.979941C43.888 1.8347 43.5233 2.85472 42.6686 3.25931C29.7445 9.37941 18.8777 19.0097 11.2532 31.1189C10.9284 31.6374 10.3756 31.9167 9.80578 31.9167L9.80008 31.911ZM3.33237 47.9691C3.74836 46.6927 4.20993 45.4105 4.69429 44.1512C5.0362 43.2679 4.59742 42.2821 3.71986 41.9402C2.83661 41.5983 1.85078 42.0371 1.50888 42.9146C1.00172 44.2309 0.523051 45.5701 0.0842723 46.9035C-0.206347 47.7982 0.278019 48.7669 1.17837 49.0575C1.35502 49.1145 1.53167 49.143 1.70832 49.143C2.42632 49.143 3.09874 48.6871 3.33237 47.9634V47.9691Z" fill="url(#paint1_linear_367_7230)"/>
<path d="M67.8105 90.8211H53.7525C52.8066 90.8211 52.043 90.0575 52.043 89.1115V72.7742C52.043 71.8282 52.8066 71.0646 53.7525 71.0646H60.7786C61.7246 71.0646 62.4882 71.8282 62.4882 72.7742C62.4882 73.7201 61.7246 74.4837 60.7786 74.4837H55.462V87.402H67.8105C68.7564 87.402 69.52 88.1656 69.52 89.1115C69.52 90.0575 68.7564 90.8211 67.8105 90.8211Z" fill="white"/>
<path d="M82.0049 90.8205H67.8101C66.8642 90.8205 66.1006 90.0569 66.1006 89.111V65.3827C66.1006 64.4368 66.8642 63.6732 67.8101 63.6732H75.2636C76.2096 63.6732 76.9732 64.4368 76.9732 65.3827C76.9732 66.3287 76.2096 67.0923 75.2636 67.0923H69.5196V87.4014H82.0049C82.9508 87.4014 83.7144 88.165 83.7144 89.111C83.7144 90.0569 82.9508 90.8205 82.0049 90.8205Z" fill="white"/>
<path d="M95.0662 90.8203H82.0054C81.0595 90.8203 80.2959 90.0567 80.2959 89.1108V54.7094C80.2959 53.7635 81.0595 52.9999 82.0054 52.9999H95.0662C96.0121 52.9999 96.7757 53.7635 96.7757 54.7094C96.7757 55.6553 96.0121 56.4189 95.0662 56.4189H83.715V87.4012H93.3567V63.0291C93.3567 62.0832 94.1203 61.3196 95.0662 61.3196C96.0121 61.3196 96.7757 62.0832 96.7757 63.0291V89.1108C96.7757 90.0567 96.0121 90.8203 95.0662 90.8203Z" fill="white"/>
<defs>
<linearGradient id="paint0_linear_367_7230" x1="32.636" y1="39.5009" x2="155.834" y2="71.3402" gradientUnits="userSpaceOnUse">
<stop stop-color="#E4F2FF"/>
<stop offset="1" stop-color="#00B7DD"/>
</linearGradient>
<linearGradient id="paint1_linear_367_7230" x1="-9.8645" y1="62.5" x2="59.6355" y2="-10" gradientUnits="userSpaceOnUse">
<stop stop-color="#E4F2FF"/>
<stop offset="1" stop-color="#00B7DD"/>
</linearGradient>
</defs>
</svg>
