<svg width="192" height="131" viewBox="0 0 192 131" fill="none" xmlns="http://www.w3.org/2000/svg">
<path d="M146.029 128.335C146.029 129.679 144.942 130.76 143.605 130.76H2.42482C1.0877 130.76 0 129.679 0 128.335V2.42482C0 1.08078 1.0877 0 2.42482 0H7.47537C8.81248 0 9.90018 1.08078 9.90018 2.42482C9.90018 3.76886 8.81248 4.84963 7.47537 4.84963H4.84964V31.4741H7.47537C8.81248 31.4741 9.90018 32.5618 9.90018 33.8989C9.90018 35.2361 8.81248 36.3238 7.47537 36.3238H4.84964V62.9552H7.47537C8.81248 62.9552 9.90018 64.0429 9.90018 65.38C9.90018 66.7171 8.81248 67.8048 7.47537 67.8048H4.84964V94.4362H7.47537C8.81248 94.4362 9.90018 95.517 9.90018 96.8611C9.90018 98.2051 8.81248 99.2859 7.47537 99.2859H4.84964V125.91H31.4811V123.292C31.4811 121.948 32.5688 120.867 33.9059 120.867C35.243 120.867 36.3307 121.948 36.3307 123.292V125.91H62.9621V123.292C62.9621 121.948 64.0429 120.867 65.3869 120.867C66.731 120.867 67.8118 121.948 67.8118 123.292V125.91H94.4362V123.292C94.4362 121.948 95.5239 120.867 96.8611 120.867C98.1982 120.867 99.2859 121.948 99.2859 123.292V125.91H125.917V123.292C125.917 121.948 127.005 120.867 128.342 120.867C129.679 120.867 130.767 121.948 130.767 123.292V125.91H143.605C144.942 125.91 146.029 126.998 146.029 128.335Z" fill="url(#paint0_linear_367_7239)"/>
<path d="M36.3251 82.6571C37.0026 78.4837 34.1685 74.5514 29.9952 73.8739C25.8218 73.1965 21.8894 76.0305 21.212 80.2039C20.5345 84.3773 23.3685 88.3097 27.5419 88.9871C31.7153 89.6645 35.6477 86.8305 36.3251 82.6571Z" fill="#AFE0E0"/>
<path d="M60.2532 104.391C64.4812 104.391 67.9086 100.964 67.9086 96.736C67.9086 92.508 64.4812 89.0805 60.2532 89.0805C56.0251 89.0805 52.5977 92.508 52.5977 96.736C52.5977 100.964 56.0251 104.391 60.2532 104.391Z" fill="#AFE0E0"/>
<path d="M37.7949 40.8202C38.4723 36.6468 35.6383 32.7144 31.4649 32.037C27.2915 31.3596 23.3591 34.1936 22.6817 38.367C22.0042 42.5404 24.8383 46.4728 29.0117 47.1502C33.1851 47.8276 37.1174 44.9936 37.7949 40.8202Z" fill="#AFE0E0"/>
<path d="M69.1679 45.3206C70.1391 41.2057 67.5906 37.0825 63.4757 36.1113C59.3607 35.1401 55.2376 37.6886 54.2664 41.8036C53.2951 45.9185 55.8436 50.0417 59.9586 51.0129C64.0735 51.9841 68.1967 49.4356 69.1679 45.3206Z" fill="#AFE0E0"/>
<path d="M100.643 13.844C101.614 9.72906 99.0652 5.60591 94.9503 4.63469C90.8353 3.66347 86.7122 6.21198 85.741 10.3269C84.7697 14.4419 87.3183 18.565 91.4332 19.5363C95.5482 20.5075 99.6713 17.959 100.643 13.844Z" fill="#AFE0E0"/>
<path d="M54.1291 45.0317C54.0251 45.0317 53.9281 45.0317 53.8242 45.0109L37.5294 42.9602C36.1993 42.7939 35.257 41.5815 35.4233 40.2513C35.5896 38.9211 36.802 37.9789 38.1322 38.1452L54.427 40.1959C55.7571 40.3622 56.6994 41.5746 56.5331 42.9048C56.3807 44.131 55.3345 45.0247 54.1291 45.0247V45.0317Z" fill="#AFE0E0"/>
<path d="M67.133 40.5835C66.5095 40.5835 65.8929 40.348 65.4218 39.8699C64.4727 38.9208 64.4727 37.3897 65.4218 36.4405L86.0743 15.788C87.0235 14.8389 88.5546 14.8389 89.5037 15.788C90.4529 16.7372 90.4529 18.2683 89.5037 19.2174L68.8512 39.8699C68.3801 40.341 67.7566 40.5835 67.133 40.5835Z" fill="#AFE0E0"/>
<path d="M53.3667 95.8143C53.0134 95.8143 52.6462 95.7381 52.3067 95.5718L34.5986 86.9603C33.3931 86.3714 32.8943 84.9234 33.4763 83.7179C34.0652 82.5125 35.5131 82.0137 36.7186 82.5956L54.4267 91.2072C55.6322 91.7961 56.131 93.244 55.549 94.4495C55.1264 95.3155 54.2674 95.8143 53.3667 95.8143Z" fill="#AFE0E0"/>
<path d="M67.1392 95.8144C66.2385 95.8144 65.3795 95.3155 64.9568 94.4495C64.368 93.2441 64.8737 91.7961 66.0792 91.2072L72.9033 87.8887C74.1088 87.2998 75.5568 87.8055 76.1456 89.011C76.7345 90.2165 76.2288 91.6645 75.0233 92.2533L68.1992 95.5719C67.8597 95.7381 67.4994 95.8144 67.1392 95.8144Z" fill="#AFE0E0"/>
<path d="M186.499 114.12L144.021 71.6416C140.983 68.6032 136.056 68.6032 133.018 71.6416L133.013 71.6465C129.975 74.6848 129.975 79.611 133.013 82.6493L175.491 125.127C178.53 128.166 183.456 128.166 186.494 125.127L186.499 125.123C189.537 122.084 189.537 117.158 186.499 114.12Z" fill="url(#paint1_linear_367_7239)"/>
<path d="M129.527 105.66C150.242 105.66 167.035 88.8672 167.035 68.1519C167.035 47.4365 150.242 30.6434 129.527 30.6434C108.812 30.6434 92.0186 47.4365 92.0186 68.1519C92.0186 88.8672 108.812 105.66 129.527 105.66Z" fill="url(#paint2_linear_367_7239)"/>
<path d="M107.386 79.5482C106.145 79.5482 104.94 78.897 104.289 77.74C98.483 67.3964 102.169 54.2608 112.512 48.4551C114.224 47.4991 116.385 48.1018 117.341 49.813C118.297 51.5243 117.694 53.6858 115.983 54.6419C109.055 58.5354 106.582 67.341 110.469 74.269C111.425 75.9803 110.822 78.1418 109.111 79.0979C108.563 79.4097 107.967 79.5551 107.379 79.5551L107.386 79.5482Z" fill="white"/>
<defs>
<linearGradient id="paint0_linear_367_7239" x1="117.881" y1="17.334" x2="-32.0284" y2="177.871" gradientUnits="userSpaceOnUse">
<stop stop-color="#E4FFFB"/>
<stop offset="1" stop-color="#28C7C8"/>
</linearGradient>
<linearGradient id="paint1_linear_367_7239" x1="130.743" y1="98.3788" x2="188.779" y2="98.3788" gradientUnits="userSpaceOnUse">
<stop stop-color="#E4FFFB"/>
<stop offset="1" stop-color="#28C7C8"/>
</linearGradient>
<linearGradient id="paint2_linear_367_7239" x1="92.0186" y1="68.1519" x2="167.035" y2="68.1519" gradientUnits="userSpaceOnUse">
<stop stop-color="#E4FFFB"/>
<stop offset="1" stop-color="#28C7C8"/>
</linearGradient>
</defs>
</svg>
