<svg width="178" height="134" viewBox="0 0 178 134" fill="none" xmlns="http://www.w3.org/2000/svg">
<path d="M79.7723 0H109.231L98.2146 35.7082H109.585L87.192 89.2371L86.196 47.8872L77.0918 47.9006L79.7723 0Z" fill="url(#paint0_linear_367_6822)"/>
<path d="M72.1651 133.054H71.4966C65.4539 133.054 60.5342 128.134 60.5342 122.092V71.7112C60.5342 68.2353 57.7067 65.4078 54.2241 65.4078C50.7415 65.4078 47.914 68.2353 47.914 71.7112C47.914 80.2339 47.914 113.576 47.914 122.098C47.914 128.141 42.9942 133.054 36.9515 133.054H36.8713C30.8286 133.054 25.9088 128.134 25.9088 122.092V84.425C25.9088 80.9491 23.0813 78.1149 19.5987 78.1149C16.1162 78.1149 13.2886 80.9424 13.2886 84.425V122.092C13.2886 128.134 8.3689 133.054 2.32618 133.054C1.04277 133.054 0 132.011 0 130.728C0 129.445 1.04277 128.402 2.32618 128.402C5.80208 128.402 8.63628 125.574 8.63628 122.092V84.425C8.63628 78.3823 13.556 73.4625 19.5987 73.4625C25.6415 73.4625 30.5612 78.3823 30.5612 84.425V122.092C30.5612 125.568 33.3887 128.402 36.8713 128.402H36.9515C40.4274 128.402 43.2616 125.574 43.2616 122.098C43.2616 113.576 43.2616 80.2339 43.2616 71.7112C43.2616 65.6685 48.1814 60.7554 54.2241 60.7554C60.2668 60.7554 65.1865 65.6752 65.1865 71.7179V122.098C65.1865 125.574 68.0207 128.409 71.4966 128.409H72.1651C75.641 128.409 78.4752 125.581 78.4752 122.098V119.993C78.4752 118.709 79.518 117.667 80.8014 117.667C82.0848 117.667 83.1275 118.709 83.1275 119.993V122.098C83.1275 128.141 78.2078 133.061 72.1651 133.061V133.054Z" fill="url(#paint1_linear_367_6822)"/>
<path d="M175.226 133.054C169.183 133.054 164.263 128.134 164.263 122.091V119.631C164.263 116.156 161.436 113.321 157.953 113.321C154.471 113.321 151.643 116.149 151.643 119.625V122.265C151.643 122.265 151.643 122.285 151.643 122.292V122.399C151.643 122.399 151.643 122.459 151.643 122.492C151.429 128.348 146.596 133.047 140.687 133.047H140.607C134.564 133.047 129.645 128.127 129.645 122.085V93.0542C129.645 89.5783 126.817 86.7441 123.335 86.7441C119.852 86.7441 117.025 89.5716 117.025 93.0542V122.412C117.025 128.281 112.252 133.054 106.383 133.054C100.514 133.054 95.7413 128.281 95.7413 122.412V109.498C95.7413 106.022 92.9138 103.188 89.4312 103.188C85.9486 103.188 83.1211 106.015 83.1211 109.498V111.483C83.1211 112.767 82.0783 113.809 80.7949 113.809C79.5115 113.809 78.4688 112.767 78.4688 111.483V109.498C78.4688 103.455 83.3885 98.5354 89.4312 98.5354C95.4739 98.5354 100.394 103.455 100.394 109.498V122.412C100.394 125.714 103.081 128.395 106.376 128.395C109.672 128.395 112.359 125.708 112.359 122.412V93.0542C112.359 87.0115 117.279 82.0917 123.321 82.0917C129.364 82.0917 134.284 87.0115 134.284 93.0542V122.085C134.284 125.561 137.111 128.395 140.594 128.395H140.674C144.15 128.395 146.984 125.567 146.984 122.091V119.451C146.984 119.451 146.984 119.438 146.984 119.431V119.311C146.984 119.311 146.984 119.244 146.984 119.21C147.198 113.355 152.031 108.662 157.94 108.662C163.849 108.662 168.902 113.582 168.902 119.625V122.085C168.902 125.561 171.737 128.395 175.212 128.395C176.496 128.395 177.539 129.438 177.539 130.721C177.539 132.004 176.496 133.047 175.212 133.047L175.226 133.054Z" fill="url(#paint2_linear_367_6822)"/>
<defs>
<linearGradient id="paint0_linear_367_6822" x1="93.3416" y1="10.6683" x2="93.3416" y2="59.9259" gradientUnits="userSpaceOnUse">
<stop stop-color="#E4F2FF"/>
<stop offset="1" stop-color="#0088FF"/>
</linearGradient>
<linearGradient id="paint1_linear_367_6822" x1="0.00668443" y1="96.9048" x2="83.1275" y2="96.9048" gradientUnits="userSpaceOnUse">
<stop stop-color="#0088FF"/>
<stop offset="1" stop-color="#E4F2FF"/>
</linearGradient>
<linearGradient id="paint2_linear_367_6822" x1="78.4754" y1="107.579" x2="177.552" y2="107.579" gradientUnits="userSpaceOnUse">
<stop stop-color="#E4F2FF"/>
<stop offset="1" stop-color="#0088FF"/>
</linearGradient>
</defs>
</svg>
