<svg width="121" height="147" viewBox="0 0 121 147" fill="none" xmlns="http://www.w3.org/2000/svg">
<path d="M93.0814 3.25955V10.1547H13.4733C11.6739 10.1547 10.2137 11.6149 10.2137 13.4143V129.91H3.25955C1.46016 129.91 0 128.45 0 126.65V3.25955C0 1.46016 1.46016 0 3.25955 0H89.8145C91.6139 0 93.0741 1.46016 93.0741 3.25955H93.0814Z" fill="url(#paint0_linear_367_6826)"/>
<path d="M105.11 15.2287H44.1004L15.325 44.0041L15.2881 43.9673V138.87C15.2881 140.67 16.7482 142.13 18.5476 142.13H105.103C106.902 142.13 108.362 140.67 108.362 138.87V18.4882C108.362 16.6889 106.902 15.2287 105.103 15.2287H105.11ZM52.1829 99.5271H30.6419C28.9826 99.5271 27.6404 98.1849 27.6404 96.5256C27.6404 94.8663 28.9826 93.5242 30.6419 93.5242H52.1829C53.8422 93.5242 55.1843 94.8663 55.1843 96.5256C55.1843 98.1849 53.8422 99.5271 52.1829 99.5271ZM73.7534 84.7559H30.6345C28.9752 84.7559 27.6331 83.4137 27.6331 81.7544C27.6331 80.0951 28.9752 78.753 30.6345 78.753H73.7534C75.4127 78.753 76.7549 80.0951 76.7549 81.7544C76.7549 83.4137 75.4127 84.7559 73.7534 84.7559ZM93.0231 69.992H30.6419C28.9826 69.992 27.6404 68.6499 27.6404 66.9906C27.6404 65.3313 28.9826 63.9891 30.6419 63.9891H93.0231C94.6824 63.9891 96.0245 65.3313 96.0245 66.9906C96.0245 68.6499 94.6824 69.992 93.0231 69.992ZM93.0231 55.2208H30.6419C28.9826 55.2208 27.6404 53.8787 27.6404 52.2194C27.6404 50.5601 28.9826 49.2179 30.6419 49.2179H93.0231C94.6824 49.2179 96.0245 50.5601 96.0245 52.2194C96.0245 53.8787 94.6824 55.2208 93.0231 55.2208Z" fill="url(#paint1_linear_367_6826)"/>
<path d="M119.232 81.1055H97.6171C96.6722 81.1055 95.9062 81.8715 95.9062 82.8164V144.35C95.9062 145.294 96.6722 146.06 97.6171 146.06H119.232C120.177 146.06 120.943 145.294 120.943 144.35V82.8164C120.943 81.8715 120.177 81.1055 119.232 81.1055Z" fill="#44C1DB"/>
<path d="M90.5005 95.7581H68.8857C67.9408 95.7581 67.1748 96.5241 67.1748 97.469V144.349C67.1748 145.294 67.9408 146.06 68.8857 146.06H90.5005C91.4454 146.06 92.2114 145.294 92.2114 144.349V97.469C92.2114 96.5241 91.4454 95.7581 90.5005 95.7581Z" fill="#44C1DB"/>
<path d="M61.7768 120.448H40.1621C39.2172 120.448 38.4512 121.214 38.4512 122.159V144.349C38.4512 145.294 39.2172 146.06 40.1621 146.06H61.7768C62.7217 146.06 63.4877 145.294 63.4877 144.349V122.159C63.4877 121.214 62.7217 120.448 61.7768 120.448Z" fill="#44C1DB"/>
<defs>
<linearGradient id="paint0_linear_367_6826" x1="-3.5619" y1="14.8523" x2="88.8411" y2="107.255" gradientUnits="userSpaceOnUse">
<stop stop-color="#E4F2FF"/>
<stop offset="1" stop-color="#00B7DD"/>
</linearGradient>
<linearGradient id="paint1_linear_367_6826" x1="103.96" y1="120.817" x2="-10.7883" y2="6.06952" gradientUnits="userSpaceOnUse">
<stop stop-color="#E4F2FF"/>
<stop offset="1" stop-color="#00B7DD"/>
</linearGradient>
</defs>
</svg>
