<svg width="128" height="129" viewBox="0 0 128 129" fill="none" xmlns="http://www.w3.org/2000/svg">
<path d="M36.8585 123.557C28.6194 125.085 19.9572 127.977 17.2951 129L0 74.3659C3.54364 66.0899 17.5713 53.776 22.2609 37.9999C24.635 30.0238 24.1825 20.055 24.1825 20.055C25.7457 18.3857 27.7497 17.6275 29.7301 17.6275C30.688 17.6275 31.6342 17.8038 32.5216 18.1447V114.012C32.5216 117.815 34.2023 121.23 36.8585 123.557Z" fill="url(#paint0_linear_356_5603)"/>
<path d="M99.6921 0H45.2093C40.4727 0 36.6353 3.83232 36.6353 8.56983V114.012C36.6353 118.749 40.4727 122.587 45.2093 122.587H99.4511C104.311 122.587 108.248 118.661 108.266 113.8L104.023 114.405C103.559 114.47 103.077 114.505 102.607 114.505C97.6822 114.505 93.4451 110.826 92.7458 105.941C92.3697 103.308 93.0455 100.681 94.644 98.553C95.3198 97.6537 96.1249 96.8837 97.0299 96.2783C93.6626 95.044 91.0945 92.0287 90.5656 88.3198C90.0073 84.4287 91.7879 80.7315 94.8379 78.6567C91.4765 77.4165 88.9083 74.4011 88.3794 70.6981C87.6037 65.2553 91.3942 60.1945 96.836 59.4186L106.797 57.9962L107.526 57.8904C107.772 57.8551 108.019 57.8316 108.266 57.814V8.56983C108.266 3.83232 104.423 0 99.6921 0ZM68.8512 7.2003H77.819C78.7887 7.2003 79.582 7.98793 79.582 8.96364C79.582 9.93935 78.7887 10.727 77.819 10.727H68.8512C67.8816 10.727 67.0882 9.93935 67.0882 8.96364C67.0882 7.98793 67.8816 7.2003 68.8512 7.2003ZM59.9774 8.61685C60.0009 8.50517 60.0362 8.39349 60.0832 8.28769C60.1243 8.18189 60.1772 8.08197 60.2419 7.98793C60.3065 7.888 60.3829 7.79984 60.4593 7.71755C60.5416 7.63526 60.6356 7.56472 60.7296 7.50007C60.8237 7.43541 60.9295 7.38251 61.0352 7.33549C61.141 7.29434 61.2527 7.25908 61.3643 7.23557C61.9344 7.12389 62.5455 7.3061 62.9569 7.71755C63.2801 8.0467 63.4741 8.49929 63.4741 8.96364C63.4741 9.42799 63.2801 9.88058 62.9569 10.2097C62.6278 10.5389 62.1694 10.727 61.7111 10.727C61.2527 10.727 60.7884 10.5389 60.4593 10.2097C60.3829 10.1274 60.3065 10.0393 60.2419 9.94523C60.1772 9.84531 60.1243 9.74539 60.0832 9.63959C60.0362 9.53379 60.0009 9.42211 59.9774 9.31043C59.9598 9.19287 59.9481 9.0812 59.9481 8.96364C59.9481 8.84608 59.9598 8.73441 59.9774 8.61685ZM91.9936 54.7693V29.63C91.9936 28.6601 92.7811 27.8666 93.7566 27.8666C94.7321 27.8666 95.5196 28.6601 95.5196 29.63V56.5326C95.5196 57.5084 94.7321 58.296 93.7566 58.296H51.1507C50.1751 58.296 49.3877 57.5084 49.3877 56.5326V39.681C49.3877 38.7112 50.1751 37.9177 51.1507 37.9177H58.3966C59.3721 37.9177 60.1596 38.7112 60.1596 39.681C60.1596 40.6508 59.3721 41.4443 58.3966 41.4443H52.9137V54.7693H63.8854V32.0575C63.8854 31.0818 64.6729 30.2942 65.6484 30.2942H73.3351C74.3107 30.2942 75.0981 31.0818 75.0981 32.0575C75.0981 33.0332 74.3107 33.8208 73.3351 33.8208H67.4114V54.7693H78.5242V21.0543C78.5242 20.0786 79.3176 19.2909 80.2872 19.2909H93.7566C94.7321 19.2909 95.5196 20.0786 95.5196 21.0543C95.5196 22.03 94.7321 22.8176 93.7566 22.8176H82.0503V54.7693H91.9936Z" fill="url(#paint1_linear_356_5603)"/>
<path d="M108.266 60.1592V60.1769C108.131 60.1828 107.996 60.2004 107.861 60.218L108.266 60.1592Z" fill="url(#paint2_linear_356_5603)"/>
<path d="M121.453 58.2784L114.201 59.3129C113.631 58.9543 113.02 58.6487 112.38 58.4136C111.304 58.008 110.141 57.7905 108.942 57.7905C108.719 57.7905 108.495 57.7964 108.266 57.814V44.7712L112.38 44.1834L119.297 43.1901C119.661 43.1372 120.025 43.1136 120.378 43.1136C124.11 43.1136 127.383 45.8586 127.924 49.6615C128.517 53.8289 125.614 57.6847 121.453 58.2784ZM115.441 66.7071C115.43 66.6072 115.412 66.5014 115.389 66.4015C115.383 66.3662 115.377 66.3251 115.365 66.2898C115.365 66.2722 115.365 66.2487 115.353 66.231C115.342 66.1546 115.324 66.0782 115.306 66.0077C115.277 65.8901 115.253 65.7784 115.218 65.6668C115.218 65.6315 115.201 65.5962 115.189 65.561C115.183 65.5433 115.177 65.5316 115.171 65.5139C115.154 65.4493 115.136 65.3846 115.112 65.3258C115.095 65.2612 115.071 65.2024 115.042 65.1378C115.042 65.126 115.036 65.1084 115.03 65.0966C114.971 64.932 114.907 64.7733 114.83 64.6146C114.807 64.5558 114.777 64.4971 114.748 64.4383C114.666 64.2737 114.583 64.115 114.489 63.9563C114.425 63.8446 114.354 63.7271 114.284 63.6213C114.26 63.5801 114.231 63.539 114.207 63.5037C114.119 63.3744 114.025 63.251 113.931 63.1275C113.819 62.9865 113.708 62.8454 113.584 62.7102C113.508 62.6221 113.432 62.5398 113.355 62.4634C113.285 62.3928 113.208 62.3164 113.132 62.2459C113.061 62.1753 112.985 62.1048 112.909 62.0402C112.826 61.9696 112.75 61.905 112.668 61.8403C112.585 61.7757 112.503 61.711 112.421 61.6522C112.397 61.6346 112.374 61.617 112.344 61.5934C112.198 61.4876 112.045 61.3877 111.892 61.2937C111.804 61.2408 111.716 61.182 111.622 61.135C111.533 61.0821 111.439 61.035 111.345 60.988C111.216 60.9234 111.081 60.8587 110.952 60.7999C110.887 60.7706 110.828 60.747 110.764 60.7176C110.693 60.6883 110.617 60.6589 110.54 60.6354C110.411 60.5825 110.282 60.5413 110.147 60.5002C110.111 60.4884 110.07 60.4767 110.029 60.4649C109.894 60.4238 109.753 60.3885 109.612 60.3532C109.394 60.3003 109.171 60.2592 108.942 60.2298C108.877 60.2239 108.813 60.2122 108.742 60.2063C108.648 60.1945 108.554 60.1828 108.46 60.1769H108.436C108.395 60.1769 108.36 60.171 108.325 60.171C108.184 60.171 108.049 60.1593 107.908 60.1593C107.796 60.1593 107.684 60.1593 107.573 60.171C107.514 60.171 107.461 60.171 107.402 60.1769C107.349 60.1828 107.291 60.1886 107.232 60.1945C107.097 60.2004 106.961 60.218 106.826 60.2357L105.492 60.4238L96.1366 61.7639C91.97 62.3576 89.0787 66.2193 89.6722 70.3807C89.684 70.4807 89.7016 70.5865 89.7251 70.6864C89.7251 70.7217 89.7369 70.7628 89.7486 70.7981C89.7486 70.8157 89.7545 70.8392 89.7604 70.8568C89.7721 70.9333 89.7898 71.0097 89.8074 71.0802C89.8368 71.1978 89.8603 71.3094 89.8955 71.4211C89.9014 71.4564 89.9132 71.4917 89.9249 71.5269C89.9308 71.5446 89.9367 71.5563 89.9425 71.5739C89.9602 71.6386 89.9778 71.7032 90.0013 71.762C90.0248 71.8267 90.0483 71.8913 90.0718 71.9501C90.0718 71.9619 90.0777 71.9795 90.0836 71.9913C90.2305 72.391 90.4127 72.773 90.6242 73.1316C90.6889 73.2491 90.7594 73.3608 90.8299 73.4725C90.8593 73.5136 90.8828 73.5489 90.9063 73.5841C90.9945 73.7135 91.0885 73.8369 91.1825 73.9603C91.2942 74.1014 91.4058 74.2425 91.5292 74.3776C91.6056 74.4658 91.682 74.5481 91.7584 74.6245C91.8466 74.7127 91.9347 74.8008 92.0288 74.889C92.1169 74.9772 92.2109 75.0595 92.3108 75.1359C92.3755 75.1947 92.446 75.2476 92.5107 75.3063C92.5929 75.371 92.6811 75.4357 92.7692 75.4944C92.8515 75.5591 92.9397 75.6179 93.0278 75.6766C93.0396 75.6825 93.0454 75.6884 93.0572 75.6943C93.1453 75.7531 93.2335 75.806 93.3275 75.8589C93.4215 75.9176 93.5156 75.9705 93.6155 76.0234C93.7154 76.0763 93.8153 76.1292 93.9152 76.1763C94.115 76.2703 94.3207 76.3585 94.5322 76.4408C94.638 76.4819 94.7438 76.5172 94.8496 76.5524C94.9318 76.5818 95.0082 76.6053 95.0905 76.6288C95.1199 76.6347 95.1434 76.6465 95.1728 76.6524C95.2551 76.6759 95.3373 76.6935 95.4196 76.7111C95.5019 76.7346 95.5842 76.7523 95.6664 76.7699C95.7663 76.7934 95.8662 76.8111 95.9661 76.8287C96.1189 76.8522 96.2717 76.8698 96.4245 76.8875C96.5538 76.8992 96.6831 76.911 96.8124 76.9169C96.8712 76.9169 96.9358 76.9169 96.9946 76.9169C97.0592 76.9227 97.1238 76.9227 97.1826 76.9227H97.2002C97.5587 76.9227 97.9231 76.8933 98.2874 76.8463L107.232 75.565L108.977 75.3181C109.4 75.2593 109.812 75.1653 110.205 75.036C110.305 75.0066 110.405 74.9713 110.499 74.936C110.646 74.8831 110.793 74.8244 110.934 74.7656C111.075 74.7068 111.21 74.6422 111.345 74.5716C111.486 74.5011 111.627 74.4247 111.763 74.3483C111.81 74.3189 111.851 74.2895 111.898 74.266C112.015 74.1896 112.133 74.1131 112.25 74.0309C112.368 73.9486 112.485 73.8604 112.603 73.7664C112.65 73.737 112.691 73.7017 112.732 73.6606C112.844 73.5724 112.956 73.4783 113.061 73.3784C113.191 73.2609 113.314 73.1433 113.432 73.014L113.449 72.9964C113.561 72.8788 113.667 72.7554 113.772 72.6261C113.878 72.4968 113.984 72.3674 114.084 72.2264C114.296 71.9266 114.495 71.6092 114.66 71.28C114.736 71.1449 114.801 71.0097 114.86 70.8686C114.895 70.8039 114.918 70.7334 114.948 70.6629C114.977 70.5982 115.001 70.5336 115.03 70.463C115.048 70.416 115.065 70.3631 115.083 70.3161C115.089 70.3043 115.089 70.2926 115.095 70.2808C115.136 70.1515 115.183 70.0222 115.218 69.887C115.248 69.8047 115.271 69.7166 115.289 69.6284C115.312 69.5461 115.33 69.4638 115.347 69.3756C115.389 69.2052 115.418 69.0289 115.441 68.8525C115.441 68.8466 115.447 68.8349 115.447 68.8231C115.471 68.6644 115.483 68.5057 115.5 68.347V68.2941C115.512 68.1237 115.518 67.9591 115.518 67.7886C115.518 67.4301 115.494 67.0657 115.441 66.7012V66.7071ZM106.826 60.2357C106.961 60.218 107.097 60.2004 107.232 60.1945V60.1769L106.826 60.2357ZM117.704 85.4103C117.704 85.5396 117.698 85.6748 117.692 85.8041C117.686 85.9334 117.675 86.0627 117.663 86.192C117.651 86.3448 117.628 86.4977 117.604 86.6505C117.586 86.7504 117.569 86.8503 117.545 86.9502C117.522 87.0796 117.492 87.203 117.457 87.3206C117.44 87.397 117.422 87.4734 117.398 87.5439C117.375 87.6203 117.351 87.6909 117.328 87.7673C117.257 87.9789 117.181 88.1905 117.093 88.3962C117.052 88.4961 117.005 88.6019 116.952 88.7018C116.905 88.8018 116.852 88.9017 116.799 89.0016C116.611 89.3601 116.393 89.7011 116.147 90.0185C116.053 90.1419 115.953 90.2594 115.859 90.377C115.818 90.424 115.776 90.4711 115.735 90.5122C115.63 90.6298 115.518 90.7473 115.4 90.859C115.389 90.8707 115.377 90.8825 115.365 90.8943C115.295 90.9589 115.224 91.0294 115.154 91.0882C115.071 91.1646 114.989 91.2352 114.901 91.3057C114.842 91.3527 114.783 91.3997 114.725 91.4468C114.636 91.5173 114.548 91.582 114.46 91.6407C114.348 91.723 114.237 91.7936 114.119 91.8641C114.002 91.9405 113.884 92.0052 113.767 92.0757C113.673 92.1286 113.579 92.1756 113.485 92.2226C113.361 92.2873 113.232 92.3461 113.097 92.4049C112.944 92.4695 112.791 92.5283 112.632 92.5871C112.544 92.6165 112.45 92.6458 112.356 92.6752C112.192 92.7223 112.027 92.7693 111.863 92.8104H111.857C111.78 92.828 111.698 92.8516 111.616 92.8633C111.533 92.881 111.451 92.8986 111.369 92.9103C111.363 92.9162 111.351 92.9162 111.345 92.9162C111.287 92.928 111.222 92.9397 111.163 92.9456L107.232 93.5099L100.474 94.4738C100.109 94.5267 99.7448 94.5502 99.3864 94.5502H99.3687C99.31 94.5502 99.2453 94.5502 99.1807 94.5444C99.1219 94.5444 99.0573 94.5444 98.9985 94.5385C98.8692 94.5326 98.7399 94.5209 98.6106 94.5091C98.4579 94.4915 98.3051 94.4738 98.1523 94.4503C98.0524 94.4327 97.9525 94.4151 97.8526 94.3915C97.7703 94.3739 97.688 94.3563 97.6057 94.3328C97.5235 94.3151 97.4412 94.2975 97.3589 94.274C97.3295 94.2681 97.306 94.2564 97.2766 94.2505C97.1944 94.227 97.118 94.2035 97.0357 94.1741C96.9299 94.1388 96.8241 94.1035 96.7184 94.0624C96.5068 93.9801 96.3011 93.8919 96.1013 93.7979C96.0014 93.7509 95.9015 93.698 95.8016 93.6451C95.7017 93.5922 95.6077 93.5393 95.5136 93.4805C95.4196 93.4276 95.3315 93.3747 95.2433 93.3159C95.2316 93.31 95.2257 93.3041 95.2139 93.2983C95.1258 93.2395 95.0376 93.1807 94.9554 93.1161C94.8672 93.0573 94.7791 92.9926 94.6968 92.928C94.6321 92.8692 94.5616 92.8163 94.497 92.7575C94.3971 92.6811 94.303 92.5988 94.2149 92.5107C94.1209 92.4225 94.0327 92.3343 93.9446 92.2462C93.8682 92.1697 93.7918 92.0874 93.7154 91.9993C93.592 91.8641 93.4803 91.723 93.3687 91.582C93.2746 91.4585 93.1806 91.3351 93.0924 91.2058C93.0689 91.1705 93.0454 91.1352 93.016 91.0941C92.9455 90.9824 92.875 90.8707 92.8104 90.7532C92.6928 90.5533 92.5812 90.3417 92.4871 90.1301C92.4166 89.9891 92.3579 89.848 92.305 89.7069C92.2991 89.6893 92.2932 89.6775 92.2873 89.6599C92.2227 89.5012 92.1639 89.3366 92.1169 89.1662C92.0699 89.0134 92.0288 88.8605 91.9935 88.7077C91.9759 88.6372 91.9582 88.5608 91.9465 88.4902C91.9406 88.4667 91.9347 88.4491 91.9347 88.4256C91.923 88.3903 91.9171 88.3492 91.9112 88.3139C91.8877 88.214 91.8701 88.1082 91.8583 88.0083C91.2589 83.8409 94.1561 79.9792 98.3227 79.3855L107.232 78.1159L109.007 77.8632C109.195 77.8397 109.377 77.8162 109.559 77.8044C109.741 77.7926 109.923 77.7868 110.1 77.7868H110.27C110.311 77.7868 110.346 77.7927 110.382 77.7927H110.44H110.452C110.552 77.7927 110.646 77.7985 110.74 77.8103C110.875 77.822 111.005 77.8397 111.134 77.8573C111.204 77.8691 111.275 77.8808 111.345 77.8926C111.387 77.8984 111.428 77.9043 111.475 77.9102C111.586 77.9278 111.692 77.9513 111.804 77.9807C111.904 78.0042 112.009 78.0278 112.109 78.0571C112.227 78.0865 112.344 78.1277 112.456 78.1629C112.885 78.2981 113.296 78.4745 113.69 78.692C113.808 78.7566 113.931 78.8213 114.043 78.8977C114.119 78.9388 114.19 78.98 114.26 79.0329C114.39 79.1152 114.513 79.2033 114.63 79.2915C114.689 79.3326 114.748 79.3738 114.801 79.4208C114.883 79.4796 114.96 79.5501 115.042 79.6148C115.048 79.6265 115.059 79.6324 115.065 79.6383C115.118 79.6853 115.177 79.7323 115.23 79.7852C115.253 79.8087 115.283 79.8322 115.306 79.8558C115.389 79.9322 115.471 80.0086 115.547 80.0909C115.665 80.2143 115.782 80.3377 115.888 80.467C116.011 80.6081 116.129 80.7609 116.247 80.9196C116.288 80.9784 116.329 81.0372 116.37 81.096C116.441 81.1959 116.511 81.3017 116.576 81.4134C116.623 81.4898 116.664 81.5603 116.705 81.6367C116.922 82.0129 117.11 82.4126 117.257 82.8358C117.287 82.9063 117.31 82.9769 117.334 83.0533C117.357 83.1297 117.381 83.2061 117.404 83.2884C117.44 83.4001 117.469 83.5117 117.492 83.6293C117.51 83.7116 117.534 83.788 117.545 83.8644C117.545 83.8762 117.551 83.8938 117.551 83.9056C117.563 83.9408 117.569 83.9761 117.575 84.0114C117.598 84.1172 117.616 84.223 117.628 84.3288C117.68 84.6932 117.704 85.0576 117.704 85.4103ZM113.349 110.573L111.345 110.861L107.232 111.443L102.66 112.095C102.295 112.148 101.931 112.172 101.572 112.172C101.414 112.172 101.249 112.166 101.091 112.154C100.991 112.148 100.897 112.142 100.797 112.131H100.773C100.773 112.131 100.732 112.125 100.709 112.125C100.697 112.119 100.685 112.119 100.673 112.119C100.626 112.113 100.585 112.107 100.538 112.101C100.409 112.084 100.28 112.06 100.156 112.037C100.021 112.013 99.88 111.984 99.7448 111.949C99.7213 111.943 99.692 111.937 99.6626 111.925C99.5392 111.896 99.4158 111.86 99.2923 111.819C99.0984 111.76 98.9104 111.69 98.7223 111.613C98.6283 111.578 98.5284 111.537 98.4343 111.49C98.3051 111.431 98.1758 111.367 98.0524 111.302C97.9231 111.237 97.8055 111.167 97.6821 111.096C97.5999 111.049 97.5176 110.996 97.4412 110.943C97.4294 110.938 97.4236 110.932 97.4118 110.926C97.2943 110.849 97.1826 110.767 97.071 110.685C96.9534 110.603 96.8359 110.514 96.7242 110.414C96.7242 110.414 96.7203 110.412 96.7125 110.409C96.6185 110.332 96.5303 110.25 96.4363 110.168C96.3305 110.074 96.2247 109.974 96.1248 109.868C96.0308 109.768 95.9309 109.662 95.8369 109.556C95.7487 109.45 95.6547 109.339 95.5665 109.227C95.5665 109.215 95.5489 109.204 95.543 109.192C95.449 109.074 95.3667 108.957 95.2786 108.833C95.1493 108.645 95.0318 108.457 94.9201 108.257C94.8672 108.157 94.8143 108.057 94.7614 107.952C94.6615 107.752 94.5675 107.54 94.4852 107.329C94.2737 106.794 94.1267 106.224 94.0386 105.63C93.445 101.463 96.3422 97.6008 100.509 97.0072L107.232 96.0491L111.193 95.4848C111.246 95.4789 111.293 95.4731 111.345 95.4672C111.486 95.4495 111.622 95.4378 111.763 95.426C111.939 95.4143 112.109 95.4084 112.28 95.4084C112.409 95.4084 112.544 95.4143 112.674 95.4202C112.803 95.426 112.932 95.4378 113.061 95.4495C113.214 95.4672 113.367 95.4848 113.52 95.5083C113.62 95.526 113.72 95.5436 113.819 95.5671C113.943 95.5906 114.072 95.62 114.19 95.6553C114.266 95.6729 114.343 95.6905 114.413 95.714C114.489 95.7376 114.56 95.7611 114.636 95.7846C114.742 95.8199 114.848 95.8551 114.954 95.8963C115.165 95.9727 115.371 96.0608 115.571 96.1608C115.671 96.2078 115.771 96.2607 115.87 96.3136C115.97 96.3665 116.064 96.4194 116.158 96.4782C116.235 96.5193 116.311 96.5663 116.388 96.6192C116.546 96.7192 116.705 96.8308 116.852 96.9425C116.964 97.0248 117.069 97.113 117.175 97.2011C117.269 97.2775 117.363 97.3598 117.457 97.448C117.551 97.5362 117.639 97.6243 117.727 97.7125C117.81 97.7889 117.886 97.8712 117.957 97.9535C118.086 98.1004 118.209 98.2474 118.327 98.4002C118.415 98.5119 118.497 98.6294 118.58 98.747C118.603 98.7823 118.633 98.8234 118.656 98.8645C118.727 98.9703 118.797 99.0879 118.862 99.1996C118.956 99.3583 119.038 99.517 119.12 99.6816C119.15 99.7403 119.179 99.7991 119.203 99.8579C119.279 100.017 119.344 100.175 119.402 100.34C119.402 100.352 119.414 100.369 119.414 100.381C119.443 100.446 119.467 100.504 119.485 100.569C119.508 100.628 119.526 100.693 119.543 100.757C119.549 100.775 119.555 100.787 119.561 100.804C119.573 100.839 119.585 100.875 119.59 100.91C119.626 101.022 119.649 101.133 119.679 101.251C119.696 101.321 119.714 101.398 119.726 101.474C119.731 101.492 119.737 101.515 119.737 101.533C119.749 101.568 119.755 101.609 119.761 101.645C119.784 101.745 119.802 101.85 119.814 101.95C120.407 106.118 117.51 109.974 113.349 110.573Z" fill="url(#paint3_linear_356_5603)"/>
<defs>
<linearGradient id="paint0_linear_356_5603" x1="-4.29585" y1="73.3137" x2="66.9354" y2="73.3137" gradientUnits="userSpaceOnUse">
<stop stop-color="#E4F4FF"/>
<stop offset="1" stop-color="#00B7DD"/>
</linearGradient>
<linearGradient id="paint1_linear_356_5603" x1="72.4478" y1="116.862" x2="72.4478" y2="-18.1448" gradientUnits="userSpaceOnUse">
<stop stop-color="#E4F4FF"/>
<stop offset="1" stop-color="#00B7DD"/>
</linearGradient>
<linearGradient id="paint2_linear_356_5603" x1="107.861" y1="60.1886" x2="108.266" y2="60.1886" gradientUnits="userSpaceOnUse">
<stop stop-color="#E4F2FF"/>
<stop offset="1" stop-color="#0088FF"/>
</linearGradient>
<linearGradient id="paint3_linear_356_5603" x1="90.5361" y1="77.6398" x2="144.143" y2="77.6398" gradientUnits="userSpaceOnUse">
<stop stop-color="#E4F4FF"/>
<stop offset="1" stop-color="#00B7DD"/>
</linearGradient>
</defs>
</svg>
