<svg width="143" height="159" viewBox="0 0 143 159" fill="none" xmlns="http://www.w3.org/2000/svg">
<path d="M143.004 3.66054V110.002L142.962 109.961L110.456 142.203H41.5534C39.523 142.203 37.8721 140.565 37.8721 138.551V3.66054C37.8721 1.63794 39.523 0 41.5534 0H139.31C141.341 0 143 1.63794 143 3.66054H143.004Z" fill="url(#paint0_linear_356_4313)"/>
<path d="M108.53 140.432V109.274H140.607L108.53 140.432Z" fill="url(#paint1_linear_356_4313)"/>
<path d="M30.8346 91.9438L32.1145 86.24H44.5635L45.8517 91.9438L53.7188 95.1783L58.6884 92.0431L67.4893 100.779L64.3375 105.713L67.5936 113.518L73.3427 114.788V127.143L67.5936 128.417L64.3333 136.222L67.4935 141.152L58.6884 149.888L53.7146 146.757L45.8476 149.991L44.5676 155.691H32.1187L30.8305 149.991L22.9634 146.757L17.9938 149.888L9.18869 141.156L12.3447 136.222L9.08446 128.417L3.33945 127.147V114.792L9.08446 113.518L12.3447 105.709L9.18869 100.783L17.9938 92.0472L22.9634 95.1742L30.8346 91.9438Z" fill="url(#paint2_linear_356_4313)"/>
<path d="M44.5635 86.2399L45.8476 91.9437L53.7146 95.1782L58.6842 92.043L67.4893 100.779L64.3333 105.713L67.5894 113.518L73.3344 114.788V127.143L67.5894 128.417L64.3292 136.222L67.4893 141.152L58.6842 149.888L53.7105 146.757L45.8434 149.991L44.5635 155.691H32.1104L30.8263 149.991L22.9592 146.757L17.9897 149.892L9.18452 141.156L12.3405 136.222L9.08029 128.417L3.33528 127.147V114.792L9.08029 113.518L12.3405 105.713L9.18035 100.783L17.9855 92.0471L22.9592 95.1782L30.8263 91.9437L32.1062 86.2399H44.5593M44.5635 82.9309H32.1104C30.547 82.9309 29.1962 84.0063 28.8543 85.5202L27.9496 89.5406L23.2844 91.4556L19.774 89.2469C19.2237 88.8995 18.6025 88.734 17.9897 88.734C17.1266 88.734 16.272 89.0649 15.6299 89.7019L6.82481 98.4376C5.72 99.5337 5.52822 101.246 6.37038 102.553L8.59668 106.032L6.66222 110.66L2.60569 111.562C1.0798 111.901 0 113.241 0 114.792V127.147C0 128.698 1.08397 130.038 2.60985 130.377L6.66222 131.275L8.59251 135.903L6.36621 139.386C5.52822 140.693 5.72 142.401 6.82481 143.497L15.6299 152.233C16.272 152.87 17.1266 153.201 17.9897 153.201C18.6067 153.201 19.2279 153.031 19.7782 152.684L23.2844 150.475L27.9496 152.394L28.8585 156.419C29.2004 157.929 30.5511 159.004 32.1145 159.004H44.5676C46.1311 159.004 47.4818 157.929 47.8237 156.415L48.7284 152.394L53.3936 150.479L56.904 152.688C57.4543 153.035 58.0755 153.201 58.6884 153.201C59.5514 153.201 60.406 152.87 61.0481 152.233L69.8532 143.497C70.958 142.401 71.1498 140.689 70.3076 139.382L68.0813 135.903L70.0158 131.275L74.0723 130.373C75.5982 130.034 76.678 128.694 76.678 127.143V114.788C76.678 113.237 75.594 111.897 74.0682 111.558L70.0158 110.66L68.0855 106.032L70.3118 102.549C71.1498 101.242 70.958 99.5337 69.8532 98.4376L61.0481 89.7019C60.406 89.0649 59.5514 88.734 58.6884 88.734C58.0713 88.734 57.4501 88.9036 56.8998 89.251L53.3936 91.4598L48.7284 89.5406L47.8195 85.516C47.4777 84.0063 46.1269 82.9309 44.5635 82.9309Z" fill="white"/>
<path d="M51.3258 134.687C50.9589 134.687 50.6087 134.547 50.3418 134.294C50.0667 134.034 49.9083 133.682 49.8999 133.302C49.8916 132.921 50.0292 132.565 50.296 132.288L50.4127 132.164C50.6795 131.883 51.0589 131.718 51.455 131.718C51.8177 131.718 52.1637 131.854 52.4306 132.098C53.0059 132.632 53.0393 133.529 52.5014 134.1L52.368 134.241C52.097 134.522 51.7218 134.683 51.3341 134.683L51.3258 134.687Z" fill="white"/>
<path d="M51.3258 134.055C51.1298 134.055 50.9339 133.984 50.7796 133.839C50.4628 133.542 50.4502 133.041 50.7546 132.731L50.8755 132.603C51.1757 132.284 51.676 132.268 51.9928 132.565C52.3138 132.863 52.3305 133.36 52.0303 133.674L51.8969 133.81C51.7427 133.972 51.5342 134.055 51.3258 134.055Z" fill="white"/>
<path d="M38.339 140.197C27.6536 140.197 18.9569 131.573 18.9569 120.968C18.9569 110.362 27.6494 101.738 38.339 101.738C49.0286 101.738 57.7211 110.362 57.7211 120.968C57.7211 124.123 56.9332 127.255 55.4448 130.018C55.1947 130.481 54.7152 130.766 54.1857 130.766C53.9523 130.766 53.7188 130.708 53.5145 130.597C52.8225 130.228 52.5556 129.368 52.9308 128.677C54.1982 126.32 54.8695 123.652 54.8695 120.963C54.8695 111.922 47.4568 104.567 38.3432 104.567C29.2295 104.567 21.8169 111.922 21.8169 120.963C21.8169 130.005 29.2295 137.359 38.3432 137.359C41.0489 137.359 43.7296 136.698 46.0977 135.444C46.302 135.337 46.5354 135.279 46.7689 135.279C47.2984 135.279 47.782 135.568 48.0322 136.032C48.2114 136.367 48.2489 136.747 48.1364 137.111C48.0238 137.475 47.7778 137.769 47.4401 137.947C44.6594 139.415 41.5117 140.193 38.3432 140.193L38.339 140.197Z" fill="white"/>
<path d="M38.339 139.564C28.0038 139.564 19.5948 131.221 19.5948 120.967C19.5948 110.714 28.0038 102.371 38.339 102.371C48.6742 102.371 57.0833 110.714 57.0833 120.967C57.0833 124.02 56.3203 127.048 54.882 129.72C54.6777 130.1 54.1983 130.245 53.8105 130.042C53.427 129.84 53.2811 129.364 53.4853 128.979C54.8028 126.531 55.499 123.759 55.499 120.967C55.499 111.578 47.7987 103.943 38.339 103.943C28.8793 103.943 21.179 111.582 21.179 120.967C21.179 130.353 28.8793 137.992 38.339 137.992C41.149 137.992 43.9339 137.306 46.3937 136.003C46.7814 135.8 47.2609 135.945 47.4652 136.325C47.6694 136.71 47.5235 137.186 47.14 137.388C44.4509 138.811 41.4075 139.56 38.339 139.56V139.564Z" fill="white"/>
<path d="M126.657 27.9236H54.2149C53.0643 27.9236 52.1304 26.9971 52.1304 25.8555C52.1304 24.7139 53.0643 23.7874 54.2149 23.7874H126.657C127.808 23.7874 128.742 24.7139 128.742 25.8555C128.742 26.9971 127.808 27.9236 126.657 27.9236Z" fill="white"/>
<path d="M126.657 42.8222H54.2149C53.0643 42.8222 52.1304 41.8957 52.1304 40.7541C52.1304 39.6125 53.0643 38.686 54.2149 38.686H126.657C127.808 38.686 128.742 39.6125 128.742 40.7541C128.742 41.8957 127.808 42.8222 126.657 42.8222Z" fill="white"/>
<path d="M126.657 57.7207H54.2149C53.0643 57.7207 52.1304 56.7942 52.1304 55.6526C52.1304 54.511 53.0643 53.5845 54.2149 53.5845H126.657C127.808 53.5845 128.742 54.511 128.742 55.6526C128.742 56.7942 127.808 57.7207 126.657 57.7207Z" fill="white"/>
<path d="M126.657 72.6194H68.8985C67.7478 72.6194 66.8139 71.6929 66.8139 70.5513C66.8139 69.4097 67.7478 68.4832 68.8985 68.4832H126.657C127.808 68.4832 128.742 69.4097 128.742 70.5513C128.742 71.6929 127.808 72.6194 126.657 72.6194Z" fill="white"/>
<path d="M126.657 87.518H90.436C89.2854 87.518 88.3515 86.5915 88.3515 85.4499C88.3515 84.3083 89.2854 83.3818 90.436 83.3818H126.657C127.808 83.3818 128.742 84.3083 128.742 85.4499C128.742 86.5915 127.808 87.518 126.657 87.518Z" fill="white"/>
<defs>
<linearGradient id="paint0_linear_356_4313" x1="29.4005" y1="10.5473" x2="135.478" y2="117.469" gradientUnits="userSpaceOnUse">
<stop stop-color="#E4F2FF"/>
<stop offset="1" stop-color="#0088FF"/>
</linearGradient>
<linearGradient id="paint1_linear_356_4313" x1="111.748" y1="106.379" x2="127.248" y2="129.073" gradientUnits="userSpaceOnUse">
<stop stop-color="#E4F2FF"/>
<stop offset="1" stop-color="#0088FF"/>
</linearGradient>
<linearGradient id="paint2_linear_356_4313" x1="8.53414" y1="120.968" x2="83.5028" y2="120.968" gradientUnits="userSpaceOnUse">
<stop stop-color="#E4F2FF"/>
<stop offset="1" stop-color="#0088FF"/>
</linearGradient>
</defs>
</svg>
