<svg width="150" height="144" viewBox="0 0 150 144" fill="none" xmlns="http://www.w3.org/2000/svg">
<path d="M136.33 47.363H110.543C107.476 47.363 104.687 45.8046 103.078 43.2003C101.47 40.5959 101.328 37.4081 102.701 34.6685L112.165 15.7407C100.495 7.16622 86.0861 2.10693 70.4956 2.10693C31.5583 2.10693 0 33.6652 0 72.6025C0 111.54 31.5583 143.091 70.4956 143.091C109.433 143.091 140.984 111.533 140.984 72.6025C140.984 63.7078 139.34 55.1974 136.33 47.363ZM98.9656 56.8767L104.637 53.6035C105.597 53.0556 106.814 53.3758 107.369 54.3364C107.924 55.2899 107.59 56.5138 106.636 57.0617L100.965 60.335C100.012 60.89 98.7948 60.5627 98.2398 59.6092C97.6848 58.6485 98.0192 57.4246 98.9656 56.8767ZM85.8371 45.1358L89.1103 39.4645C89.6582 38.511 90.8821 38.1837 91.8356 38.7316C92.7963 39.2866 93.1165 40.5105 92.5686 41.4641L89.2953 47.1282C88.7474 48.0888 87.5235 48.409 86.5629 47.8611C85.6094 47.3132 85.2821 46.0893 85.8371 45.1358ZM68.5885 34.9887C68.5885 33.8787 69.4851 32.9821 70.5881 32.9821C71.691 32.9821 72.5876 33.8787 72.5876 34.9887V41.5281C72.5876 42.6381 71.691 43.5276 70.5881 43.5276C69.4851 43.5276 68.5885 42.6381 68.5885 41.5281V34.9887ZM49.312 38.6391C50.2655 38.0841 51.4894 38.4185 52.0445 39.3649L55.3177 45.0362C55.8656 45.9897 55.5383 47.2136 54.5848 47.7686C53.6313 48.3165 52.4074 47.9892 51.8523 47.0357L48.5791 41.3644C48.0312 40.4109 48.3585 39.187 49.312 38.6391ZM47.3552 75.6267C47.3552 69.6352 49.739 63.8857 53.9799 59.6448C58.2138 55.4109 63.9633 53.0271 69.9619 53.0271H71.2214C77.2128 53.0271 82.9623 55.4109 87.2033 59.6448C91.4372 63.8857 93.8209 69.6352 93.8209 75.6267V91.2101H72.5876V77.4697C72.5876 76.3667 71.691 75.4701 70.5881 75.4701C69.4851 75.4701 68.5885 76.3667 68.5885 77.4697V91.2101H47.3552V75.6267ZM33.7072 54.1656C34.2694 53.2121 35.4862 52.8848 36.4468 53.4327L42.1109 56.706C43.0644 57.261 43.3917 58.4849 42.8367 59.4384C42.2888 60.3919 41.072 60.7192 40.1114 60.1713L34.4401 56.891C33.4866 56.343 33.1593 55.1263 33.7072 54.1656ZM36.5108 77.4127H29.9643C28.8614 77.4127 27.9648 76.5162 27.9648 75.4203C27.9648 74.3245 28.8614 73.4137 29.9643 73.4137H36.5108C37.6138 73.4137 38.5103 74.3103 38.5103 75.4203C38.5103 76.5304 37.6138 77.4127 36.5108 77.4127ZM102.018 103.705H39.1579V98.0626C39.1579 97.3083 39.4567 96.5754 39.9975 96.0417C40.5312 95.5009 41.257 95.2021 42.0184 95.2021H99.1648C99.9191 95.2021 100.645 95.5009 101.179 96.0417C101.719 96.5754 102.018 97.3083 102.018 98.0626V103.705ZM111.02 77.612H104.473C103.37 77.612 102.474 76.7154 102.474 75.6125C102.474 74.5095 103.37 73.6058 104.473 73.6058H111.02C112.123 73.6058 113.019 74.5024 113.019 75.6125C113.019 76.7225 112.123 77.612 111.02 77.612Z" fill="url(#paint0_linear_367_6410)"/>
<path fill-rule="evenodd" clip-rule="evenodd" d="M148.505 35.9416L132.167 3.28035C131.164 1.2666 129.115 0 126.873 0C124.632 0 122.582 1.2666 121.579 3.28035L114.463 17.5047L105.241 35.9416C104.323 37.7845 104.423 39.9548 105.497 41.7053C106.579 43.4558 108.486 44.516 110.542 44.516H143.204C145.26 44.516 147.167 43.4558 148.249 41.7053C149.323 39.9548 149.423 37.7845 148.505 35.9416ZM124.945 11.9829C124.945 10.9227 125.806 10.0545 126.873 10.0545C127.94 10.0545 128.809 10.9227 128.809 11.9829V28.3491C128.809 29.4164 127.94 30.2774 126.873 30.2774C125.806 30.2774 124.945 29.4164 124.945 28.3491V11.9829ZM126.873 37.2864C125.507 37.2864 124.397 36.1764 124.397 34.8031C124.397 33.4297 125.507 32.3268 126.873 32.3268C128.239 32.3268 129.356 33.4368 129.356 34.8031C129.356 36.1693 128.239 37.2864 126.873 37.2864Z" fill="url(#paint1_linear_367_6410)"/>
<defs>
<linearGradient id="paint0_linear_367_6410" x1="0" y1="72.5954" x2="140.984" y2="72.5954" gradientUnits="userSpaceOnUse">
<stop stop-color="#E4FDFF"/>
<stop offset="1" stop-color="#3BE4AF"/>
</linearGradient>
<linearGradient id="paint1_linear_367_6410" x1="104.615" y1="22.258" x2="149.131" y2="22.258" gradientUnits="userSpaceOnUse">
<stop stop-color="#E4FDFF"/>
<stop offset="1" stop-color="#3BE4AF"/>
</linearGradient>
</defs>
</svg>
