<svg width="121" height="156" viewBox="0 0 121 156" fill="none" xmlns="http://www.w3.org/2000/svg">
<path d="M111.458 16.8832H32.012C26.8933 16.8832 22.7275 21.049 22.7275 26.1677V120.551C25.0132 120.036 27.3762 119.753 29.81 119.721V26.1677C29.81 24.9508 30.7951 23.9657 32.012 23.9657H111.458C112.675 23.9657 113.66 24.9508 113.66 26.1677V136.873C113.66 138.084 112.675 139.075 111.458 139.075H61.6103C62.7306 141.309 63.6192 143.679 64.2373 146.158H111.458C116.577 146.158 120.743 141.992 120.743 136.873V26.1677C120.743 21.049 116.577 16.8832 111.458 16.8832Z" fill="url(#paint0_linear_367_6832)"/>
<path fill-rule="evenodd" clip-rule="evenodd" d="M88.132 66.2664L75.7505 41.51C74.9908 39.984 73.4391 39.0247 71.7393 39.0247C70.0395 39.0247 68.4878 39.984 67.728 41.51L62.3325 52.2882L55.3401 66.26C54.6448 67.6572 54.722 69.299 55.5333 70.6254C56.351 71.9517 57.7997 72.7565 59.3578 72.7565H84.1143C85.6724 72.7565 87.1211 71.9517 87.9388 70.6254C88.7501 69.299 88.8274 67.6507 88.132 66.26V66.2664ZM70.2777 48.1095C70.2777 47.3047 70.928 46.648 71.7393 46.648C72.5506 46.648 73.2073 47.3047 73.2073 48.1095V60.5103C73.2073 61.3216 72.5506 61.9719 71.7393 61.9719C70.928 61.9719 70.2777 61.3216 70.2777 60.5103V48.1095ZM71.7393 67.2902C70.7027 67.2902 69.8657 66.4467 69.8657 65.4101C69.8657 64.3735 70.7091 63.5365 71.7393 63.5365C72.7695 63.5365 73.6194 64.3799 73.6194 65.4101C73.6194 66.4403 72.7695 67.2902 71.7393 67.2902Z" fill="#BAF2D9"/>
<path fill-rule="evenodd" clip-rule="evenodd" d="M58.778 121.812C57.5225 121.812 56.5116 120.794 56.5116 119.545C56.5116 118.296 57.5225 117.279 58.778 117.279H99.2382C100.494 117.279 101.511 118.296 101.511 119.545C101.511 120.794 100.494 121.812 99.2382 121.812H58.778ZM44.2332 110.37C42.9777 110.37 41.9668 109.353 41.9668 108.104C41.9668 106.855 42.9777 105.837 44.2332 105.837H99.2382C100.494 105.837 101.511 106.855 101.511 108.104C101.511 109.353 100.494 110.37 99.2382 110.37H44.2332ZM44.2332 98.2656C42.9777 98.2656 41.9668 97.2483 41.9668 95.9993C41.9668 94.7502 42.9777 93.7329 44.2332 93.7329H99.2382C100.494 93.7329 101.511 94.7502 101.511 95.9993C101.511 97.2483 100.494 98.2656 99.2382 98.2656H44.2332ZM44.2332 86.1546C42.9777 86.1546 41.9668 85.1373 41.9668 83.8882C41.9668 82.6391 42.9777 81.6218 44.2332 81.6218H99.2382C100.494 81.6218 101.511 82.6391 101.511 83.8882C101.511 85.1373 100.494 86.1546 99.2382 86.1546H44.2332Z" fill="#BAF2D9"/>
<path fill-rule="evenodd" clip-rule="evenodd" d="M13.2056 129.531C10.07 131.675 7.35289 134.398 5.2024 137.534L11.8535 141.371C13.2957 139.376 15.047 137.618 17.0494 136.176L13.2056 129.524V129.531ZM2.92957 141.462C1.31348 144.81 0.289738 148.505 0 152.394H7.68126C7.93237 149.89 8.58911 147.501 9.58065 145.299L2.92957 141.462ZM60.671 152.394C60.3813 148.499 59.3576 144.81 57.7415 141.462L51.0904 145.299C52.0819 147.501 52.7387 149.89 52.9898 152.394H60.671ZM31.2595 152.124C30.9826 151.982 30.6671 151.905 30.3387 151.905C29.1991 151.905 28.2913 152.819 28.2913 153.953C28.2913 155.086 29.1991 156 30.3387 156C31.4784 156 32.3862 155.086 32.3862 153.953C32.3862 153.154 31.9226 152.465 31.2595 152.124ZM21.2217 138.873C18.4595 140.477 16.148 142.782 14.5448 145.55C13.3537 147.611 12.5553 149.928 12.2462 152.394H24.9239C25.8124 150.283 27.8985 148.795 30.3387 148.795C30.4739 148.795 30.6156 148.795 30.7508 148.808L34.3886 141.603C34.9552 140.483 36.3202 140.039 37.4405 140.599C38.5544 141.165 39.0051 142.53 38.4385 143.644L34.8007 150.849C35.1935 151.306 35.5154 151.828 35.7472 152.388H48.4248C48.1157 149.922 47.3174 147.604 46.1262 145.544C44.523 142.775 42.2115 140.47 39.4494 138.867C36.7645 137.315 33.6546 136.427 30.3387 136.427C27.0229 136.427 23.9066 137.315 21.2217 138.867V138.873ZM28.0659 124.335C24.177 124.625 20.4812 125.642 17.1331 127.264L20.977 133.916C23.1726 132.918 25.5613 132.267 28.0659 132.016V124.335ZM55.4686 137.534C53.3246 134.392 50.6011 131.675 47.4654 129.531L43.6216 136.182C45.624 137.624 47.3753 139.376 48.8176 141.371L55.4686 137.528V137.534ZM43.5379 127.258C40.1898 125.642 36.5005 124.618 32.6051 124.328V132.01C35.1097 132.261 37.4985 132.918 39.7005 133.909L43.5379 127.258Z" fill="url(#paint1_linear_367_6832)"/>
<path fill-rule="evenodd" clip-rule="evenodd" d="M96.8427 12.4973V27.9114C96.8427 29.1669 95.8254 30.1778 94.5763 30.1778H48.9008C47.6452 30.1778 46.6279 29.1669 46.6279 27.9114V12.4973C46.6279 11.2483 47.6452 10.231 48.9008 10.231H59.4472C60.5096 4.41045 65.609 0 71.7385 0C77.8681 0 82.961 4.41045 84.0234 10.231H94.5763C95.8254 10.231 96.8427 11.2483 96.8427 12.4973Z" fill="url(#paint2_linear_367_6832)"/>
<path fill-rule="evenodd" clip-rule="evenodd" d="M71.7383 12.5225C69.9741 12.5225 68.5254 11.0867 68.5254 9.31608C68.5254 7.54546 69.9741 6.10321 71.7383 6.10321C73.5024 6.10321 74.9447 7.5519 74.9447 9.31608C74.9447 11.0803 73.5024 12.5225 71.7383 12.5225Z" fill="white"/>
<defs>
<linearGradient id="paint0_linear_367_6832" x1="71.7382" y1="9.82008" x2="71.7382" y2="155.745" gradientUnits="userSpaceOnUse">
<stop stop-color="#E4FDFF"/>
<stop offset="1" stop-color="#3BE4AF"/>
</linearGradient>
<linearGradient id="paint1_linear_367_6832" x1="0" y1="140.167" x2="60.671" y2="140.167" gradientUnits="userSpaceOnUse">
<stop stop-color="#E4FDFF"/>
<stop offset="1" stop-color="#3BE4AF"/>
</linearGradient>
<linearGradient id="paint2_linear_367_6832" x1="45.8617" y1="7.64263" x2="96.3984" y2="31.7424" gradientUnits="userSpaceOnUse">
<stop stop-color="#3BE4AF"/>
<stop offset="1" stop-color="#E4FDFF"/>
</linearGradient>
</defs>
</svg>
