<svg width="108" height="162" viewBox="0 0 108 162" fill="none" xmlns="http://www.w3.org/2000/svg">
<path d="M37.1618 96.8229C36.3658 96.0791 35.7395 95.1657 35.3089 94.1479C34.8848 93.1301 34.6565 92.0145 34.6565 90.8662V65.2194C34.6565 62.5902 32.523 60.4567 29.8938 60.4567C27.2645 60.4567 25.1311 62.5902 25.1311 65.2194V90.6705C25.1311 93.0845 24.2112 95.3288 22.6062 96.8359C20.4597 98.8519 19.2854 101.586 19.2854 104.535C19.2854 107.764 20.7207 110.778 23.2325 112.807C25.7313 114.836 29.0195 115.6 32.249 114.908C36.2419 114.053 39.4714 110.785 40.2869 106.779C41.0307 103.073 39.8693 99.3478 37.1618 96.8229ZM37.1618 96.8229C36.3658 96.0791 35.7395 95.1657 35.3089 94.1479C34.8848 93.1301 34.6565 92.0145 34.6565 90.8662V65.2194C34.6565 62.5902 32.523 60.4567 29.8938 60.4567C27.2645 60.4567 25.1311 62.5902 25.1311 65.2194V90.6705C25.1311 93.0845 24.2112 95.3288 22.6062 96.8359C20.4597 98.8519 19.2854 101.586 19.2854 104.535C19.2854 107.764 20.7207 110.778 23.2325 112.807C25.7313 114.836 29.0195 115.6 32.249 114.908C36.2419 114.053 39.4714 110.785 40.2869 106.779C41.0307 103.073 39.8693 99.3478 37.1618 96.8229ZM37.1618 96.8229C36.3658 96.0791 35.7395 95.1657 35.3089 94.1479C34.8848 93.1301 34.6565 92.0145 34.6565 90.8662V65.2194C34.6565 62.5902 32.523 60.4567 29.8938 60.4567C27.2645 60.4567 25.1311 62.5902 25.1311 65.2194V90.6705C25.1311 93.0845 24.2112 95.3288 22.6062 96.8359C20.4597 98.8519 19.2854 101.586 19.2854 104.535C19.2854 107.764 20.7207 110.778 23.2325 112.807C25.7313 114.836 29.0195 115.6 32.249 114.908C36.2419 114.053 39.4714 110.785 40.2869 106.779C41.0307 103.073 39.8693 99.3478 37.1618 96.8229ZM37.1618 96.8229C36.3658 96.0791 35.7395 95.1657 35.3089 94.1479C34.8848 93.1301 34.6565 92.0145 34.6565 90.8662V65.2194C34.6565 62.5902 32.523 60.4567 29.8938 60.4567C27.2645 60.4567 25.1311 62.5902 25.1311 65.2194V90.6705C25.1311 93.0845 24.2112 95.3288 22.6062 96.8359C20.4597 98.8519 19.2854 101.586 19.2854 104.535C19.2854 107.764 20.7207 110.778 23.2325 112.807C25.7313 114.836 29.0195 115.6 32.249 114.908C36.2419 114.053 39.4714 110.785 40.2869 106.779C41.0307 103.073 39.8693 99.3478 37.1618 96.8229ZM37.1618 96.8229C36.3658 96.0791 35.7395 95.1657 35.3089 94.1479C34.8848 93.1301 34.6565 92.0145 34.6565 90.8662V65.2194C34.6565 62.5902 32.523 60.4567 29.8938 60.4567C27.2645 60.4567 25.1311 62.5902 25.1311 65.2194V90.6705C25.1311 93.0845 24.2112 95.3288 22.6062 96.8359C20.4597 98.8519 19.2854 101.586 19.2854 104.535C19.2854 107.764 20.7207 110.778 23.2325 112.807C25.7313 114.836 29.0195 115.6 32.249 114.908C36.2419 114.053 39.4714 110.785 40.2869 106.779C41.0307 103.073 39.8693 99.3478 37.1618 96.8229ZM37.1618 96.8229C36.3658 96.0791 35.7395 95.1657 35.3089 94.1479C34.8848 93.1301 34.6565 92.0145 34.6565 90.8662V65.2194C34.6565 62.5902 32.523 60.4567 29.8938 60.4567C27.2645 60.4567 25.1311 62.5902 25.1311 65.2194V90.6705C25.1311 93.0845 24.2112 95.3288 22.6062 96.8359C20.4597 98.8519 19.2854 101.586 19.2854 104.535C19.2854 107.764 20.7207 110.778 23.2325 112.807C25.7313 114.836 29.0195 115.6 32.249 114.908C36.2419 114.053 39.4714 110.785 40.2869 106.779C41.0307 103.073 39.8693 99.3478 37.1618 96.8229ZM37.1618 96.8229C36.3658 96.0791 35.7395 95.1657 35.3089 94.1479C34.8848 93.1301 34.6565 92.0145 34.6565 90.8662V65.2194C34.6565 62.5902 32.523 60.4567 29.8938 60.4567C27.2645 60.4567 25.1311 62.5902 25.1311 65.2194V90.6705C25.1311 93.0845 24.2112 95.3288 22.6062 96.8359C20.4597 98.8519 19.2854 101.586 19.2854 104.535C19.2854 107.764 20.7207 110.778 23.2325 112.807C25.7313 114.836 29.0195 115.6 32.249 114.908C36.2419 114.053 39.4714 110.785 40.2869 106.779C41.0307 103.073 39.8693 99.3478 37.1618 96.8229ZM37.1618 96.8229C36.3658 96.0791 35.7395 95.1657 35.3089 94.1479C34.8848 93.1301 34.6565 92.0145 34.6565 90.8662V65.2194C34.6565 62.5902 32.523 60.4567 29.8938 60.4567C27.2645 60.4567 25.1311 62.5902 25.1311 65.2194V90.6705C25.1311 93.0845 24.2112 95.3288 22.6062 96.8359C20.4597 98.8519 19.2854 101.586 19.2854 104.535C19.2854 107.764 20.7207 110.778 23.2325 112.807C25.7313 114.836 29.0195 115.6 32.249 114.908C36.2419 114.053 39.4714 110.785 40.2869 106.779C41.0307 103.073 39.8693 99.3478 37.1618 96.8229ZM71.6032 25.0497H11.117C5.85847 25.0497 1.59814 29.3035 1.59814 34.562V134.924C1.68296 134.911 1.76777 134.905 1.85259 134.905H80.8612C80.9525 134.905 81.0373 134.911 81.1221 134.924V34.562C81.1221 29.3035 76.8553 25.0497 71.6032 25.0497ZM37.364 33.0419H47.32C48.3965 33.0419 49.2773 33.9161 49.2773 34.9991C49.2773 36.0822 48.3965 36.9564 47.32 36.9564H37.364C36.2875 36.9564 35.4068 36.0822 35.4068 34.9991C35.4068 33.9161 36.2875 33.0419 37.364 33.0419ZM27.5124 34.6142C27.5385 34.4903 27.5777 34.3663 27.6299 34.2489C27.6755 34.1314 27.7343 34.0205 27.806 33.9161C27.8778 33.8052 27.9626 33.7073 28.0474 33.616C28.1388 33.5247 28.2431 33.4464 28.3475 33.3746C28.4519 33.3028 28.5694 33.2441 28.6868 33.1919C28.8042 33.1463 28.9282 33.1071 29.0521 33.081C29.685 32.9571 30.3635 33.1593 30.8202 33.616C31.1791 33.9814 31.3944 34.4837 31.3944 34.9991C31.3944 35.5146 31.1791 36.0169 30.8202 36.3823C30.4549 36.7476 29.946 36.9564 29.4371 36.9564C28.9282 36.9564 28.4128 36.7476 28.0474 36.3823C27.9626 36.2909 27.8778 36.1931 27.806 36.0887C27.7343 35.9778 27.6755 35.8669 27.6299 35.7494C27.5777 35.632 27.5385 35.508 27.5124 35.3841C27.4929 35.2536 27.4798 35.1296 27.4798 34.9991C27.4798 34.8687 27.4929 34.7447 27.5124 34.6142ZM43.8035 107.49C42.7139 112.879 38.3753 117.27 32.9993 118.418C31.9685 118.64 30.9311 118.751 29.9068 118.751C26.6643 118.751 23.5196 117.661 20.9686 115.6C17.6152 112.886 15.6905 108.854 15.6905 104.535C15.6905 100.64 17.315 96.8751 20.1466 94.2197C21.0339 93.3911 21.5427 92.0928 21.5427 90.6705V65.2194C21.5427 60.6133 25.2942 56.8684 29.8938 56.8684C34.4934 56.8684 38.2513 60.6133 38.2513 65.2194V90.8662C38.2513 92.1776 38.7472 93.3911 39.6149 94.2001C42.5182 96.9142 44.097 100.64 44.097 104.561C44.097 105.526 43.9992 106.511 43.8035 107.49ZM60.6751 91.3686H47.855C46.8633 91.3686 46.0608 90.5661 46.0608 89.5744C46.0608 88.5828 46.8633 87.7803 47.855 87.7803H60.6751C61.6668 87.7803 62.4693 88.5828 62.4693 89.5744C62.4693 90.5661 61.6668 91.3686 60.6751 91.3686ZM65.3596 82.7044H47.855C46.8633 82.7044 46.0608 81.9019 46.0608 80.9102C46.0608 79.9186 46.8633 79.1161 47.855 79.1161H65.3596C66.3512 79.1161 67.1537 79.9186 67.1537 80.9102C67.1537 81.9019 66.3512 82.7044 65.3596 82.7044ZM46.0608 72.246C46.0608 71.2544 46.8633 70.4519 47.855 70.4519H60.6751C61.6668 70.4519 62.4693 71.2544 62.4693 72.246C62.4693 73.2377 61.6668 74.0402 60.6751 74.0402H47.855C46.8633 74.0402 46.0608 73.2377 46.0608 72.246ZM65.3596 65.376H47.855C46.8633 65.376 46.0608 64.5735 46.0608 63.5819C46.0608 62.5902 46.8633 61.7877 47.855 61.7877H65.3596C66.3512 61.7877 67.1537 62.5902 67.1537 63.5819C67.1537 64.5735 66.3512 65.376 65.3596 65.376ZM37.1618 96.8229C36.3658 96.0791 35.7395 95.1657 35.3089 94.1479C34.8848 93.1301 34.6565 92.0145 34.6565 90.8662V65.2194C34.6565 62.5902 32.523 60.4567 29.8938 60.4567C27.2645 60.4567 25.1311 62.5902 25.1311 65.2194V90.6705C25.1311 93.0845 24.2112 95.3288 22.6062 96.8359C20.4597 98.8519 19.2854 101.586 19.2854 104.535C19.2854 107.764 20.7207 110.778 23.2325 112.807C25.7313 114.836 29.0195 115.6 32.249 114.908C36.2419 114.053 39.4714 110.785 40.2869 106.779C41.0307 103.073 39.8693 99.3478 37.1618 96.8229ZM80.8612 138.611H1.85259C1.76777 138.611 1.68296 138.611 1.59814 138.591V151.6C1.59814 156.859 5.85847 161.119 11.117 161.119H71.3358C76.7313 161.119 81.1025 156.761 81.1221 151.366V138.591C81.0373 138.604 80.9525 138.611 80.8612 138.611ZM47.6658 149.46H35.0545C34.0301 149.46 33.2016 148.632 33.2016 147.608C33.2016 146.583 34.0301 145.761 35.0545 145.761H47.6658C48.6901 145.761 49.5122 146.59 49.5122 147.608C49.5122 148.625 48.6901 149.46 47.6658 149.46ZM37.1618 96.8229C36.3658 96.0791 35.7395 95.1657 35.3089 94.1479C34.8848 93.1301 34.6565 92.0145 34.6565 90.8662V65.2194C34.6565 62.5902 32.523 60.4567 29.8938 60.4567C27.2645 60.4567 25.1311 62.5902 25.1311 65.2194V90.6705C25.1311 93.0845 24.2112 95.3288 22.6062 96.8359C20.4597 98.8519 19.2854 101.586 19.2854 104.535C19.2854 107.764 20.7207 110.778 23.2325 112.807C25.7313 114.836 29.0195 115.6 32.249 114.908C36.2419 114.053 39.4714 110.785 40.2869 106.779C41.0307 103.073 39.8693 99.3478 37.1618 96.8229ZM37.1618 96.8229C36.3658 96.0791 35.7395 95.1657 35.3089 94.1479C34.8848 93.1301 34.6565 92.0145 34.6565 90.8662V65.2194C34.6565 62.5902 32.523 60.4567 29.8938 60.4567C27.2645 60.4567 25.1311 62.5902 25.1311 65.2194V90.6705C25.1311 93.0845 24.2112 95.3288 22.6062 96.8359C20.4597 98.8519 19.2854 101.586 19.2854 104.535C19.2854 107.764 20.7207 110.778 23.2325 112.807C25.7313 114.836 29.0195 115.6 32.249 114.908C36.2419 114.053 39.4714 110.785 40.2869 106.779C41.0307 103.073 39.8693 99.3478 37.1618 96.8229ZM37.1618 96.8229C36.3658 96.0791 35.7395 95.1657 35.3089 94.1479C34.8848 93.1301 34.6565 92.0145 34.6565 90.8662V65.2194C34.6565 62.5902 32.523 60.4567 29.8938 60.4567C27.2645 60.4567 25.1311 62.5902 25.1311 65.2194V90.6705C25.1311 93.0845 24.2112 95.3288 22.6062 96.8359C20.4597 98.8519 19.2854 101.586 19.2854 104.535C19.2854 107.764 20.7207 110.778 23.2325 112.807C25.7313 114.836 29.0195 115.6 32.249 114.908C36.2419 114.053 39.4714 110.785 40.2869 106.779C41.0307 103.073 39.8693 99.3478 37.1618 96.8229ZM37.1618 96.8229C36.3658 96.0791 35.7395 95.1657 35.3089 94.1479C34.8848 93.1301 34.6565 92.0145 34.6565 90.8662V65.2194C34.6565 62.5902 32.523 60.4567 29.8938 60.4567C27.2645 60.4567 25.1311 62.5902 25.1311 65.2194V90.6705C25.1311 93.0845 24.2112 95.3288 22.6062 96.8359C20.4597 98.8519 19.2854 101.586 19.2854 104.535C19.2854 107.764 20.7207 110.778 23.2325 112.807C25.7313 114.836 29.0195 115.6 32.249 114.908C36.2419 114.053 39.4714 110.785 40.2869 106.779C41.0307 103.073 39.8693 99.3478 37.1618 96.8229ZM37.1618 96.8229C36.3658 96.0791 35.7395 95.1657 35.3089 94.1479C34.8848 93.1301 34.6565 92.0145 34.6565 90.8662V65.2194C34.6565 62.5902 32.523 60.4567 29.8938 60.4567C27.2645 60.4567 25.1311 62.5902 25.1311 65.2194V90.6705C25.1311 93.0845 24.2112 95.3288 22.6062 96.8359C20.4597 98.8519 19.2854 101.586 19.2854 104.535C19.2854 107.764 20.7207 110.778 23.2325 112.807C25.7313 114.836 29.0195 115.6 32.249 114.908C36.2419 114.053 39.4714 110.785 40.2869 106.779C41.0307 103.073 39.8693 99.3478 37.1618 96.8229ZM37.1618 96.8229C36.3658 96.0791 35.7395 95.1657 35.3089 94.1479C34.8848 93.1301 34.6565 92.0145 34.6565 90.8662V65.2194C34.6565 62.5902 32.523 60.4567 29.8938 60.4567C27.2645 60.4567 25.1311 62.5902 25.1311 65.2194V90.6705C25.1311 93.0845 24.2112 95.3288 22.6062 96.8359C20.4597 98.8519 19.2854 101.586 19.2854 104.535C19.2854 107.764 20.7207 110.778 23.2325 112.807C25.7313 114.836 29.0195 115.6 32.249 114.908C36.2419 114.053 39.4714 110.785 40.2869 106.779C41.0307 103.073 39.8693 99.3478 37.1618 96.8229ZM37.1618 96.8229C36.3658 96.0791 35.7395 95.1657 35.3089 94.1479C34.8848 93.1301 34.6565 92.0145 34.6565 90.8662V65.2194C34.6565 62.5902 32.523 60.4567 29.8938 60.4567C27.2645 60.4567 25.1311 62.5902 25.1311 65.2194V90.6705C25.1311 93.0845 24.2112 95.3288 22.6062 96.8359C20.4597 98.8519 19.2854 101.586 19.2854 104.535C19.2854 107.764 20.7207 110.778 23.2325 112.807C25.7313 114.836 29.0195 115.6 32.249 114.908C36.2419 114.053 39.4714 110.785 40.2869 106.779C41.0307 103.073 39.8693 99.3478 37.1618 96.8229ZM37.1618 96.8229C36.3658 96.0791 35.7395 95.1657 35.3089 94.1479C34.8848 93.1301 34.6565 92.0145 34.6565 90.8662V65.2194C34.6565 62.5902 32.523 60.4567 29.8938 60.4567C27.2645 60.4567 25.1311 62.5902 25.1311 65.2194V90.6705C25.1311 93.0845 24.2112 95.3288 22.6062 96.8359C20.4597 98.8519 19.2854 101.586 19.2854 104.535C19.2854 107.764 20.7207 110.778 23.2325 112.807C25.7313 114.836 29.0195 115.6 32.249 114.908C36.2419 114.053 39.4714 110.785 40.2869 106.779C41.0307 103.073 39.8693 99.3478 37.1618 96.8229Z" fill="url(#paint0_linear_367_6030)"/>
<path d="M1.59844 134.926V138.593C0.69157 138.469 0 137.699 0 136.759C0 135.82 0.69157 135.05 1.59844 134.926Z" fill="white"/>
<path d="M82.7145 136.759C82.7145 137.692 82.0229 138.469 81.1226 138.593V134.926C82.0229 135.05 82.7145 135.826 82.7145 136.759Z" fill="white"/>
<path d="M89.9588 29.476C89.1774 29.476 88.5413 28.8634 88.5413 28.1109C88.5413 22.7859 84.0382 18.4496 78.5084 18.4496C77.727 18.4496 77.0908 17.837 77.0908 17.0846C77.0908 16.3321 77.727 15.7195 78.5084 15.7195C85.601 15.7195 91.3763 21.2761 91.3763 28.1109C91.3763 28.8634 90.7402 29.476 89.9588 29.476ZM99.4357 26.7652C99.4357 16.3948 90.6751 7.96348 79.9109 7.96348C79.1295 7.96348 78.4933 8.57605 78.4933 9.32851C78.4933 10.081 79.1295 10.6935 79.9109 10.6935C89.1173 10.6935 96.6057 17.9046 96.6057 26.77C96.6057 27.5225 97.2418 28.135 98.0232 28.135C98.8046 28.135 99.4407 27.5225 99.4407 26.77L99.4357 26.7652ZM107.7 27.5032C107.7 12.3383 94.8876 0 79.1395 0C78.3581 0 77.7219 0.612575 77.7219 1.36503C77.7219 2.11748 78.3581 2.73006 79.1395 2.73006C93.3248 2.73006 104.865 13.8432 104.865 27.5032C104.865 28.2556 105.502 28.8682 106.283 28.8682C107.064 28.8682 107.7 28.2556 107.7 27.5032Z" fill="url(#paint1_linear_367_6030)"/>
<defs>
<linearGradient id="paint0_linear_367_6030" x1="41.3634" y1="161.119" x2="41.3634" y2="25.0497" gradientUnits="userSpaceOnUse">
<stop stop-color="#E4F4FF"/>
<stop offset="1" stop-color="#00B7DD"/>
</linearGradient>
<linearGradient id="paint1_linear_367_6030" x1="77.0958" y1="14.7356" x2="107.7" y2="14.7356" gradientUnits="userSpaceOnUse">
<stop stop-color="#E4F2FF"/>
<stop offset="1" stop-color="#00B7DD"/>
</linearGradient>
</defs>
</svg>
